<svg width="181" height="181" viewBox="0 0 181 181" fill="none" xmlns="http://www.w3.org/2000/svg">
<path d="M180.206 90.4595L167.659 98.0973L178.492 108.017L164.697 113.058L173.37 124.906L158.855 127.147L165.042 140.465L150.365 139.826L153.844 154.097L139.573 150.618L140.212 165.295L126.894 159.108L124.652 173.623L112.805 164.951L107.764 178.745L97.8438 167.912L90.2061 180.459L82.5683 167.912L72.6483 178.745L67.597 164.951L55.7498 173.623L53.5184 159.108L40.1903 165.295L40.8293 150.618L26.5681 154.097L30.037 139.826L15.37 140.465L21.5472 127.147L7.03238 124.906L15.7048 113.058L1.92024 108.017L12.743 98.0973L0.206055 90.4595L12.743 82.8217L1.92024 72.9017L15.7048 67.8504L7.04252 56.0033L21.5472 53.7718L15.37 40.4437L30.037 41.0827L26.5681 26.8215L40.8293 30.2904L40.2004 15.6235L53.5184 21.8006L55.7498 7.2858L67.6072 15.9582L72.6483 2.17366L82.5683 12.9964L90.2061 0.459473L97.8438 12.9964L107.764 2.17366L112.805 15.9582L124.652 7.29594L126.894 21.8006L140.212 15.6235L139.573 30.2904L153.844 26.8215L150.365 41.0827L165.042 40.4538L158.855 53.7718L173.37 56.0033L164.697 67.8606L178.492 72.9017L167.659 82.8217L180.206 90.4595Z" fill="#EA66C9"/>
<path d="M98.6602 39.2349C97.6988 39.0616 96.8611 38.6958 96.1461 38.1266C95.4315 37.5628 94.9088 36.8555 94.5726 36.0051C94.2368 35.16 94.1566 34.2316 94.327 33.2256C94.5006 32.1924 94.8814 31.3385 95.48 30.6633C96.0733 29.9884 96.8054 29.5087 97.6768 29.2294C98.5482 28.9502 99.4861 28.8984 100.502 29.0785C101.62 29.2782 102.481 29.6639 103.084 30.2412C103.692 30.8127 104.086 31.5132 104.265 32.3426C104.45 33.1716 104.458 34.0621 104.299 35.0133C104.201 35.5874 104.011 36.1574 103.73 36.7178C103.448 37.2782 103.077 37.7804 102.614 38.2136C102.151 38.6522 101.593 38.9681 100.929 39.1621C100.277 39.366 99.5184 39.3886 98.6602 39.2349ZM99.8091 37.4181C100.575 37.5569 101.259 37.5451 101.862 37.3825C102.464 37.22 102.955 36.9306 103.333 36.5144C103.712 36.0981 103.949 35.5841 104.054 34.9662C104.166 34.2992 104.108 33.7094 103.878 33.1861C103.649 32.6681 103.283 32.2357 102.768 31.895C102.259 31.5539 101.619 31.3142 100.853 31.1753C99.7773 30.9833 98.8889 31.118 98.1981 31.5785C97.5072 32.039 97.082 32.7395 96.9223 33.6799C96.8177 34.3085 96.8689 34.8773 97.0763 35.3914C97.2837 35.9056 97.6239 36.3399 98.0914 36.6948C98.5598 37.0605 99.1305 37.2999 99.8091 37.4181ZM104.871 30.09L107.402 30.5436L105.768 40.2907L103.411 39.8676C103.433 39.3476 103.46 38.8866 103.503 38.4893C103.541 38.0924 103.595 37.705 103.656 37.328L104.871 30.09Z" fill="white"/>
<path d="M119.517 41.9732C119.113 42.7314 118.57 43.2999 117.877 43.6687C117.19 44.0371 116.395 44.1974 115.492 44.1495C114.588 44.0962 113.609 43.8325 112.548 43.3534C111.438 42.8509 110.525 42.226 109.807 41.4737C109.088 40.7214 108.63 39.8854 108.432 38.9657C108.235 38.046 108.36 37.0705 108.812 36.0389C109.258 35.0077 109.888 34.2548 110.695 33.7805C111.503 33.3062 112.421 33.083 113.456 33.1105C114.487 33.1437 115.562 33.4058 116.673 33.9083C117.734 34.3875 118.582 34.9469 119.211 35.5868C119.841 36.2268 120.256 36.9256 120.455 37.6778C120.65 38.4357 120.617 39.2209 120.346 40.0396L118.191 39.0676C118.248 38.3724 118.078 37.7261 117.666 37.135C117.26 36.5436 116.666 36.0739 115.877 35.7207C115.249 35.4369 114.633 35.2927 114.027 35.2773C113.421 35.2618 112.865 35.4047 112.375 35.6941C111.884 35.9834 111.489 36.4602 111.205 37.1125C110.925 37.7537 110.84 38.3591 110.955 38.9231C111.07 39.487 111.341 39.9964 111.768 40.4406C112.194 40.8848 112.721 41.2515 113.349 41.5353C114.193 41.9167 114.959 42.0555 115.641 41.9574C116.324 41.8593 116.903 41.542 117.367 40.9954L119.517 41.9732Z" fill="white"/>
<path d="M122.596 49.1947C121.825 48.5872 121.259 47.8678 120.888 47.0372C120.516 46.2067 120.382 45.3426 120.486 44.4398C120.589 43.537 120.959 42.6797 121.593 41.857C122.212 41.057 122.942 40.4971 123.783 40.1826C124.624 39.8681 125.493 39.7834 126.388 39.9397C127.283 40.0959 128.115 40.4777 128.886 41.0852C129.583 41.6387 130.094 42.211 130.419 42.8023C130.746 43.3988 130.917 43.9959 130.934 44.6041C130.951 45.2123 130.839 45.8137 130.598 46.4136C130.358 47.0135 130.02 47.5989 129.575 48.1706C129.221 48.6277 128.784 49.0369 128.268 49.4033C127.752 49.7644 127.185 50.0266 126.573 50.1897C125.961 50.3528 125.315 50.3619 124.64 50.2167C123.961 50.0772 123.281 49.7382 122.596 49.1947ZM124.472 48.1363C125.083 48.6205 125.697 48.9373 126.302 49.0822C126.912 49.2267 127.478 49.2126 128.003 49.0289C128.528 48.8505 128.982 48.5102 129.369 48.0075C129.781 47.4761 130.009 46.9309 130.049 46.3671C130.089 45.8033 129.97 45.2511 129.68 44.7004C129.39 44.1552 128.942 43.6376 128.326 43.1537C127.463 42.472 126.616 42.1668 125.783 42.2487C124.95 42.3307 124.246 42.7432 123.665 43.4919C123.277 43.9892 123.058 44.5175 122.995 45.0668C122.938 45.6156 123.035 46.1587 123.281 46.691C123.538 47.2278 123.93 47.7064 124.472 48.1363ZM134.408 45.7327L125.979 56.6077L123.951 55.002L130.895 46.0469L132.444 44.1763L134.408 45.7327Z" fill="white"/>
<path d="M139.01 59.0947L138.493 59.5206C138.33 59.6133 138.082 59.723 137.739 59.8504C137.396 59.9777 137.009 60.0814 136.56 60.1463C136.116 60.2162 135.646 60.2234 135.15 60.173C134.654 60.1227 134.16 59.9644 133.675 59.7083C133.183 59.4473 132.728 59.0487 132.31 58.4965C131.975 58.0622 131.703 57.6019 131.486 57.1051C131.27 56.6084 131.154 56.0989 131.138 55.5714C131.122 55.0439 131.246 54.5225 131.508 53.9964C131.771 53.4756 132.217 52.9686 132.851 52.4748L137.53 48.834L139.107 50.8881L134.77 54.2614C134.272 54.6482 133.945 55.0333 133.783 55.4173C133.622 55.8012 133.605 56.1962 133.74 56.6018C133.869 57.0078 134.1 57.4226 134.429 57.8572C134.865 58.4244 135.362 58.8199 135.926 59.0433C136.484 59.2672 137.042 59.3669 137.592 59.3486C138.147 59.3353 138.616 59.2527 139.01 59.0947ZM136.79 63.9273L135.213 61.8732L142.941 55.8588L144.518 57.9129L136.79 63.9273Z" fill="white"/>
<path d="M146.18 61.0952L147.405 63.3874L138.759 68.0306L137.535 65.7384L146.18 61.0952ZM151.297 61.5462L149.314 62.6102L147.894 59.948L149.877 58.884L151.297 61.5462Z" fill="white"/>
<path d="M148.863 66.3582L149.819 68.7782L140.687 72.3691L139.731 69.9491L148.863 66.3582ZM149.251 73.1055C148.975 72.4112 148.609 71.8587 148.143 71.4543C147.681 71.0494 147.197 70.7653 146.697 70.6068C146.197 70.4483 145.74 70.3732 145.34 70.3914L146.341 69.9778C146.493 69.9343 146.731 69.8954 147.05 69.8722C147.37 69.8436 147.735 69.8549 148.14 69.8958C148.546 69.9368 148.961 70.0365 149.387 70.2004C149.813 70.3643 150.202 70.612 150.561 70.9431C150.92 71.2742 151.202 71.7137 151.418 72.2609L149.251 73.1055Z" fill="white"/>
<path d="M147.409 85.0232L147.88 87.4863C147.203 87.5031 146.559 87.3395 145.958 86.9839C145.352 86.6288 144.833 86.0947 144.385 85.3828C143.943 84.6706 143.613 83.756 143.4 82.6495C143.162 81.4101 143.15 80.2782 143.362 79.2542C143.573 78.2302 144.002 77.3793 144.648 76.7067C145.294 76.0342 146.146 75.5948 147.205 75.3993C148.264 75.2038 149.223 75.296 150.077 75.6764C150.931 76.0567 151.649 76.6788 152.231 77.532C152.809 78.3908 153.22 79.4452 153.459 80.6953C153.707 81.9719 153.71 83.072 153.474 83.9952C153.239 84.9185 152.753 85.6603 152.028 86.2199C151.298 86.7799 150.301 87.1435 149.037 87.3161L147.253 78.0442C146.774 78.203 146.362 78.4702 146.024 78.8507C145.68 79.2316 145.446 79.7071 145.316 80.2775C145.185 80.8479 145.19 81.5003 145.329 82.2291C145.485 83.0377 145.751 83.6872 146.133 84.1773C146.514 84.662 146.938 84.9441 147.409 85.0232ZM151.517 80.9334C151.334 79.9919 150.987 79.2674 150.465 78.7605C149.947 78.2478 149.374 77.9658 148.744 77.9037L150.015 84.5159C150.646 84.3299 151.1 83.9248 151.376 83.3006C151.651 82.6712 151.7 81.8855 151.517 80.9334Z" fill="white"/>
<path d="M152.018 111.192C151.895 111.788 151.708 112.319 151.447 112.796C151.187 113.274 150.86 113.658 150.462 113.962C150.065 114.266 149.595 114.473 149.054 114.582C148.513 114.691 147.902 114.666 147.222 114.521L141.351 113.249L141.869 110.721L147.294 111.896C148.104 112.069 148.739 112.001 149.205 111.682C149.665 111.363 149.99 110.757 150.169 109.86C150.307 109.187 150.304 108.551 150.154 107.947C150.004 107.344 149.77 106.838 149.448 106.414C149.125 105.99 148.756 105.715 148.334 105.583L149.385 105.771C149.799 105.93 150.193 106.176 150.567 106.516C150.942 106.855 151.263 107.263 151.526 107.74C151.788 108.217 151.97 108.748 152.07 109.328C152.171 109.909 152.151 110.53 152.018 111.192ZM153.732 102.777C153.609 103.373 153.422 103.904 153.162 104.381C152.906 104.853 152.574 105.243 152.177 105.547C151.779 105.851 151.31 106.057 150.773 106.156C150.236 106.254 149.626 106.234 148.941 106.084L143.07 104.812L143.587 102.284L149.012 103.459C149.822 103.637 150.457 103.564 150.918 103.25C151.379 102.937 151.699 102.331 151.883 101.439C152.021 100.766 152.018 100.13 151.868 99.5267C151.723 98.9281 151.485 98.4171 151.162 97.9931C150.839 97.5691 150.47 97.2887 150.058 97.1461L151.045 97.3386C151.48 97.5011 151.89 97.7463 152.268 98.0692C152.647 98.3921 152.973 98.7943 153.246 99.265C153.519 99.7357 153.706 100.267 153.796 100.858C153.887 101.45 153.874 102.087 153.732 102.777ZM154.952 95.7128L154.435 98.2408L144.84 96.161L145.357 93.633L154.952 95.7128Z" fill="white"/>
<path d="M137.022 119.204C137.636 118.128 138.348 117.284 139.159 116.664C139.971 116.049 140.836 115.7 141.75 115.629C142.67 115.556 143.609 115.801 144.564 116.369C145.524 116.93 146.207 117.641 146.613 118.492C147.018 119.342 147.158 120.276 147.031 121.294C146.905 122.312 146.534 123.359 145.921 124.434C145.307 125.509 144.593 126.348 143.792 126.957C142.985 127.56 142.119 127.898 141.193 127.96C140.268 128.022 139.318 127.778 138.363 127.21C137.403 126.649 136.725 125.942 136.331 125.097C135.936 124.252 135.798 123.328 135.92 122.321C136.037 121.32 136.402 120.279 137.022 119.204ZM138.729 120.213C138.387 120.809 138.189 121.407 138.125 122.005C138.061 122.603 138.159 123.162 138.404 123.673C138.653 124.184 139.068 124.613 139.646 124.954C140.23 125.294 140.804 125.452 141.379 125.421C141.954 125.39 142.485 125.206 142.965 124.864C143.451 124.521 143.868 124.048 144.215 123.441C144.557 122.844 144.754 122.241 144.813 121.638C144.87 121.03 144.777 120.465 144.526 119.943C144.276 119.422 143.855 118.983 143.26 118.638C142.677 118.297 142.108 118.144 141.544 118.179C140.98 118.215 140.456 118.415 139.971 118.768C139.497 119.121 139.081 119.604 138.729 120.213Z" fill="white"/>
<path d="M140.466 132.114L138.79 134.058L131.367 127.533L133.043 125.59L140.466 132.114ZM134.734 135.506C135.213 134.948 135.524 134.37 135.663 133.772C135.802 133.175 135.821 132.618 135.731 132.096C135.635 131.575 135.488 131.138 135.283 130.786L136.12 131.491C136.231 131.607 136.375 131.801 136.547 132.075C136.718 132.348 136.884 132.676 137.037 133.058C137.191 133.44 137.294 133.853 137.352 134.307C137.41 134.762 137.372 135.223 137.249 135.69C137.127 136.157 136.875 136.612 136.499 137.049L134.734 135.506Z" fill="white"/>
<path d="M123.279 139.355L121.333 140.9C120.996 140.303 120.842 139.65 120.871 138.952C120.9 138.253 121.121 137.541 121.539 136.82C121.957 136.098 122.606 135.387 123.481 134.692C124.462 133.914 125.452 133.389 126.452 133.111C127.452 132.833 128.404 132.829 129.303 133.098C130.202 133.368 130.986 133.932 131.66 134.79C132.334 135.648 132.706 136.544 132.771 137.484C132.836 138.424 132.632 139.346 132.149 140.255C131.666 141.165 130.932 142.012 129.946 142.796C128.935 143.598 127.97 144.1 127.045 144.307C126.119 144.515 125.24 144.422 124.405 144.024C123.57 143.625 122.779 142.9 122.03 141.848L129.347 136.032C128.981 135.675 128.555 135.431 128.057 135.3C127.56 135.168 127.03 135.174 126.464 135.318C125.898 135.462 125.328 135.762 124.755 136.219C124.116 136.725 123.673 137.264 123.424 137.827C123.175 138.391 123.125 138.902 123.279 139.355ZM128.819 141.166C129.559 140.578 130.031 139.934 130.237 139.239C130.443 138.544 130.423 137.897 130.178 137.31L124.958 141.457C125.419 141.937 125.988 142.16 126.67 142.121C127.352 142.082 128.065 141.766 128.819 141.166Z" fill="white"/>
<path d="M99.096 145.809L101.575 145.149L104.166 154.719L101.688 155.379L99.096 145.809ZM102.682 149.788L102.485 149.138C102.465 148.951 102.453 148.676 102.466 148.308C102.474 147.94 102.533 147.536 102.636 147.097C102.74 146.657 102.913 146.213 103.145 145.775C103.382 145.331 103.709 144.934 104.131 144.585C104.552 144.236 105.093 143.97 105.753 143.792C106.277 143.652 106.801 143.581 107.341 143.575C107.881 143.568 108.392 143.666 108.879 143.857C109.365 144.049 109.803 144.373 110.182 144.821C110.561 145.269 110.857 145.885 111.07 146.668L112.64 152.468L110.161 153.128L108.706 147.753C108.538 147.138 108.309 146.68 108.017 146.377C107.725 146.074 107.368 145.906 106.948 145.866C106.527 145.826 106.06 145.876 105.536 146.017C104.85 146.202 104.302 146.506 103.887 146.941C103.472 147.376 103.168 147.852 102.974 148.368C102.791 148.884 102.69 149.361 102.682 149.788Z" fill="white"/>
<path d="M97.9411 149.23L95.5742 149.326C95.4045 148.88 95.0871 148.525 94.622 148.262C94.1565 147.994 93.5537 147.881 92.8178 147.907C92.3167 147.928 91.9316 147.993 91.6616 148.094C91.392 148.2 91.2057 148.343 91.1083 148.528C91.0109 148.713 90.9684 148.916 90.9813 149.141C90.9931 149.421 91.0902 149.63 91.268 149.779C91.4454 149.922 91.7167 150.038 92.0759 150.114C92.435 150.19 92.8952 150.26 93.4506 150.316C94.007 150.384 94.5437 150.474 95.0663 150.588C95.5835 150.701 96.0453 150.857 96.452 151.059C96.8588 151.262 97.1852 151.529 97.4309 151.857C97.6766 152.184 97.8114 152.595 97.8401 153.084C97.8626 153.563 97.7688 153.99 97.5589 154.372C97.349 154.755 97.0436 155.079 96.6373 155.346C96.2363 155.612 95.7614 155.825 95.2073 155.984C94.6581 156.137 94.0558 156.229 93.4165 156.259C92.4461 156.297 91.6299 156.189 90.9729 155.935C90.3155 155.675 89.8094 155.302 89.4644 154.803C89.1194 154.305 88.9282 153.725 88.891 153.064L91.1563 152.97C91.2865 153.457 91.5122 153.802 91.8388 154.005C92.1654 154.208 92.6596 154.302 93.3149 154.27C93.96 154.245 94.4422 154.124 94.7568 153.912C95.0766 153.7 95.2251 153.42 95.2081 153.075C95.1962 152.796 95.0832 152.588 94.8682 152.442C94.6585 152.295 94.3503 152.188 93.9429 152.11C93.5355 152.031 93.0319 151.955 92.4211 151.875C91.9007 151.788 91.406 151.689 90.9371 151.578C90.4628 151.467 90.0387 151.314 89.6598 151.126C89.281 150.937 88.9763 150.673 88.7412 150.345C88.5062 150.017 88.3758 149.595 88.3503 149.079C88.3205 148.444 88.4744 147.899 88.8124 147.448C89.1504 146.997 89.6509 146.637 90.3093 146.379C90.9677 146.121 91.7632 145.971 92.6959 145.931C93.5222 145.898 94.2433 145.953 94.8495 146.109C95.4557 146.265 95.9648 146.476 96.3714 146.743C96.778 147.01 97.1013 147.305 97.3351 147.617C97.5693 147.935 97.7326 148.236 97.8255 148.526C97.9175 148.805 97.9583 149.045 97.9411 149.23Z" fill="white"/>
<path d="M77.5143 148.076L75.0601 147.644C75.2755 146.996 75.649 146.451 76.1806 146.007C76.7175 145.563 77.389 145.261 78.2051 145.094C79.0213 144.926 79.9807 144.943 81.0883 145.138C82.321 145.357 83.3803 145.75 84.2611 146.318C85.1419 146.885 85.7878 147.595 86.1989 148.445C86.6048 149.296 86.7199 150.259 86.544 151.33C86.3681 152.401 85.9568 153.274 85.3099 153.947C84.663 154.62 83.8436 155.079 82.846 155.319C81.8483 155.559 80.7306 155.57 79.482 155.353C78.2113 155.126 77.1842 154.736 76.4063 154.183C75.6284 153.629 75.1044 152.905 74.8294 152.018C74.5545 151.131 74.5535 150.056 74.8268 148.8L84.0629 150.43C84.0807 149.922 83.9668 149.438 83.7318 148.98C83.4915 148.522 83.1278 148.128 82.6412 147.801C82.1545 147.475 81.5471 147.243 80.8198 147.118C80.0162 146.976 79.3165 146.995 78.7322 147.183C78.1524 147.36 77.743 147.66 77.5143 148.076ZM79.9211 153.431C80.855 153.595 81.6524 153.527 82.3016 153.215C82.9509 152.903 83.4133 152.465 83.6831 151.894L77.0967 150.731C77.0542 151.398 77.277 151.97 77.7655 152.453C78.2541 152.936 78.9709 153.262 79.9211 153.431Z" fill="white"/>
<path d="M65.7294 148.822C66.4194 149.084 67.0689 149.178 67.673 149.107C68.2772 149.036 68.8035 148.863 69.2525 148.593C69.7015 148.323 70.0531 148.038 70.3112 147.723L69.9555 148.752C69.887 148.898 69.7585 149.096 69.5657 149.358C69.3724 149.615 69.1268 149.887 68.828 150.162C68.5293 150.437 68.1796 150.678 67.779 150.886C67.3784 151.093 66.9395 151.222 66.4559 151.262C65.9781 151.308 65.4633 151.226 64.9222 151.017L65.7294 148.822ZM70.946 153.074L68.5343 152.158L71.9235 142.905L74.3351 143.82L70.946 153.074Z" fill="white"/>
<path d="M66.128 144.269L64.0731 143.064C64.1693 142.598 64.0886 142.129 63.8361 141.651C63.5836 141.173 63.1374 140.746 62.4974 140.372C62.065 140.117 61.7046 139.96 61.4163 139.9C61.1279 139.84 60.8997 139.862 60.7205 139.961C60.5413 140.061 60.3983 140.211 60.2854 140.403C60.1498 140.645 60.1148 140.874 60.191 141.09C60.2624 141.311 60.4312 141.547 60.693 141.809C60.9548 142.07 61.3056 142.374 61.7457 142.725C62.1815 143.087 62.5857 143.457 62.9687 143.829C63.3468 144.206 63.6558 144.589 63.8903 144.976C64.1249 145.364 64.2588 145.764 64.2921 146.177C64.325 146.585 64.2196 147.003 63.9808 147.425C63.7465 147.836 63.4344 148.144 63.0552 148.35C62.6706 148.556 62.2402 148.657 61.7541 148.666C61.268 148.674 60.7533 148.593 60.1993 148.422C59.6507 148.252 59.0955 148.001 58.5343 147.674C57.6868 147.18 57.0551 146.643 56.6397 146.069C56.219 145.495 55.995 144.907 55.9674 144.299C55.9398 143.691 56.0903 143.103 56.4135 142.535L58.3843 143.692C58.2354 144.167 58.2421 144.582 58.4094 144.931C58.5766 145.281 58.9464 145.621 59.5138 145.957C60.075 146.284 60.543 146.449 60.9276 146.443C61.3122 146.437 61.589 146.287 61.7575 145.989C61.8932 145.747 61.9113 145.508 61.8121 145.273C61.7129 145.037 61.51 144.777 61.2035 144.491C60.9023 144.206 60.5113 143.867 60.0402 143.464C59.6478 143.109 59.2825 142.758 58.9385 142.405C58.5998 142.052 58.3196 141.695 58.1027 141.327C57.8859 140.96 57.7643 140.58 57.7425 140.177C57.7207 139.774 57.8363 139.35 58.0946 138.905C58.4085 138.354 58.8279 137.983 59.3578 137.788C59.8877 137.593 60.501 137.57 61.1968 137.709C61.8931 137.853 62.6506 138.159 63.4592 138.635C64.1779 139.057 64.7535 139.496 65.1864 139.956C65.6193 140.415 65.9339 140.867 66.136 141.317C66.338 141.766 66.452 142.184 66.4836 142.576C66.5151 142.967 66.4892 143.309 66.4111 143.601C66.3392 143.903 66.2444 144.12 66.128 144.269Z" fill="white"/>
<path d="M38.0313 128.541L36.4535 126.486L44.1843 120.475L45.6542 122.387C45.288 122.753 44.9604 123.068 44.6661 123.332C44.3719 123.597 44.071 123.845 43.7741 124.077L38.0313 128.541ZM48.7707 126.078C49.3686 126.86 49.7462 127.696 49.8991 128.597C50.052 129.498 49.967 130.367 49.6503 131.216C49.3336 132.064 48.7722 132.796 47.9717 133.415C47.1512 134.052 46.298 134.416 45.4011 134.502C44.5095 134.589 43.6418 134.441 42.8087 134.059C41.9752 133.672 41.2422 133.072 40.6089 132.249C39.9101 131.345 39.5299 130.477 39.4629 129.645C39.3958 128.814 39.5684 128.035 39.9854 127.303C40.4028 126.577 40.9912 125.914 41.746 125.325C42.2039 124.968 42.7211 124.682 43.3077 124.462C43.8943 124.241 44.506 124.132 45.1365 124.124C45.7727 124.121 46.3998 124.27 47.0235 124.575C47.6525 124.88 48.2332 125.383 48.7707 126.078ZM46.7018 126.622C46.2236 125.998 45.7057 125.545 45.1524 125.251C44.5996 124.961 44.0385 124.835 43.481 124.886C42.9231 124.932 42.4003 125.148 41.9122 125.529C41.3837 125.939 41.0314 126.413 40.85 126.949C40.674 127.486 40.6605 128.048 40.8104 128.647C40.9656 129.245 41.2768 129.854 41.7546 130.472C42.4294 131.346 43.1763 131.853 43.9997 131.982C44.8236 132.116 45.6078 131.892 46.3577 131.309C46.856 130.922 47.1994 130.471 47.3874 129.95C47.5758 129.435 47.6172 128.887 47.5062 128.306C47.3904 127.732 47.1203 127.169 46.7018 126.622Z" fill="white"/>
<path d="M31.3897 116.568C31.1468 116.009 30.9902 115.459 30.9252 114.919C30.8603 114.379 30.9047 113.869 31.0474 113.384C31.19 112.899 31.454 112.459 31.8334 112.059C32.2129 111.659 32.7206 111.326 33.3559 111.048L38.8409 108.654L39.877 111.028L34.8051 113.24C34.0458 113.571 33.5724 113.999 33.3796 114.525C33.1868 115.052 33.2741 115.736 33.6414 116.578C33.9169 117.21 34.2902 117.728 34.7509 118.137C35.2169 118.545 35.6991 118.823 36.2037 118.981C36.7083 119.138 37.1693 119.153 37.5867 119.026L36.6744 119.448C36.2247 119.573 35.7573 119.612 35.2618 119.567C34.7663 119.522 34.2741 119.385 33.7798 119.157C33.2856 118.928 32.8318 118.605 32.4176 118.177C32.0198 117.752 31.6719 117.217 31.3897 116.568ZM34.4702 123.077L33.434 120.703L42.3996 116.784L43.4358 119.157L34.4702 123.077Z" fill="white"/>
<path d="M23.2512 100.072L22.8257 97.5161L36.4009 95.3433L36.7962 97.723C36.5034 97.809 36.1264 97.912 35.6593 98.0269C35.1921 98.1417 34.7499 98.2332 34.3326 98.3013L23.2512 100.072ZM37.809 102.45C37.9738 103.432 37.909 104.354 37.62 105.218C37.331 106.081 36.8428 106.797 36.162 107.381C35.4807 107.959 34.6384 108.334 33.6396 108.492C32.6146 108.659 31.6873 108.575 30.8575 108.241C30.0277 107.907 29.3379 107.384 28.7873 106.663C28.2367 105.942 27.8726 105.077 27.7056 104.069C27.5597 103.188 27.5674 102.421 27.723 101.762C27.8786 101.102 28.1603 100.547 28.5571 100.092C28.954 99.6365 29.4437 99.2716 30.0264 98.9971C30.6091 98.7226 31.2573 98.5298 31.9705 98.4133C32.5413 98.3233 33.1407 98.323 33.7577 98.4078C34.3805 98.4976 34.9743 98.6921 35.5337 98.9917C36.0984 99.291 36.583 99.7256 36.993 100.295C37.3869 100.866 37.6644 101.586 37.809 102.45ZM35.7226 101.932C35.5959 101.158 35.3511 100.512 34.9983 99.9864C34.6455 99.4612 34.2087 99.0879 33.6926 98.8607C33.1765 98.6336 32.6091 98.5667 32.0014 98.6648C31.341 98.7721 30.8041 99.0163 30.3905 99.3973C29.9823 99.7779 29.7007 100.268 29.5453 100.863C29.3898 101.457 29.3809 102.143 29.5076 102.917C29.6863 104.006 30.1148 104.806 30.7878 105.319C31.4607 105.832 32.262 106.011 33.1974 105.862C33.821 105.763 34.3375 105.531 34.7528 105.172C35.1676 104.807 35.4571 104.349 35.6316 103.791C35.8065 103.238 35.8365 102.615 35.7226 101.932Z" fill="white"/>
<path d="M36.7485 79.1833C36.4898 80.2224 36.1055 81.0979 35.5957 81.8098C35.0854 82.5163 34.4722 83.0089 33.7508 83.2879C33.0295 83.567 32.2337 83.587 31.3648 83.3639C30.5065 83.14 29.8211 82.7362 29.2973 82.1479C28.7789 81.5593 28.4417 80.8279 28.2904 79.9481C28.1392 79.0682 28.1996 78.092 28.4615 77.0257C28.5339 76.7289 28.6235 76.447 28.7309 76.1855C28.8378 75.9186 28.9562 75.6617 29.0853 75.4039L30.3063 70.5698L32.1868 71.0596C32.0365 71.7184 31.7941 72.3622 31.4542 72.9916C31.1143 73.6209 30.7785 74.1689 30.446 74.625L30.2979 74.6465C30.6094 74.2622 30.9669 73.9177 31.3594 73.6085C31.7572 73.2989 32.1784 73.0794 32.6277 72.9442C33.0771 72.8091 33.5585 72.8065 34.0671 72.9424C34.8979 73.1574 35.5564 73.5578 36.0473 74.1376C36.5382 74.7175 36.8423 75.4351 36.9599 76.2958C37.0827 77.1561 37.0104 78.1169 36.7485 79.1833ZM34.9447 78.7149C35.0823 78.165 35.1108 77.6554 35.0359 77.1912C34.961 76.7269 34.7849 76.3348 34.5022 76.0152C34.2196 75.6955 33.8432 75.4745 33.3731 75.352C32.8866 75.2254 32.4428 75.2306 32.0422 75.373C31.6416 75.5154 31.2927 75.7675 31.0061 76.1284C30.7194 76.4893 30.5053 76.953 30.3637 77.5193C30.226 78.0692 30.198 78.5841 30.2791 79.0587C30.3602 79.5334 30.542 79.9305 30.83 80.2497C31.118 80.569 31.5054 80.7946 31.992 80.9213C32.4674 81.0433 32.9001 81.0335 33.2953 80.8915C33.6906 80.7494 34.0285 80.4928 34.3142 80.1211C34.6 79.7495 34.8031 79.2812 34.9447 78.7149ZM42.9278 77.3691L42.4688 77.2512C41.8786 77.0997 41.4249 77.1812 41.1029 77.5015C40.7809 77.8218 40.5366 78.3092 40.3752 78.9634L39.6366 81.9485C39.4905 82.526 39.3256 83.0023 39.1409 83.3666C38.9562 83.7309 38.7491 84.0159 38.5231 84.1997C38.2975 84.3888 38.0605 84.5032 37.8126 84.5481C37.5647 84.5931 37.3121 84.5791 37.0555 84.5167C36.5469 84.3808 36.1989 84.1145 36.022 83.7116C35.845 83.3088 35.7781 82.8115 35.8272 82.2249C35.8762 81.6383 36.0126 81.0075 36.2316 80.3384L36.7428 79.1783C36.5678 79.9954 36.4837 80.6116 36.4962 81.0318C36.5087 81.452 36.6736 81.7046 36.9908 81.7896C37.1822 81.8405 37.3503 81.8013 37.5008 81.677C37.646 81.5531 37.7577 81.3452 37.8261 81.0649L38.6058 77.9256C38.8198 77.0624 39.0943 76.3515 39.4292 75.7927C39.7637 75.2285 40.1931 74.8465 40.717 74.6411C41.2357 74.4361 41.8829 74.4323 42.6481 74.6306L43.5502 74.8675L42.9278 77.3691Z" fill="white"/>
<path d="M31.6107 67.9506L32.6843 65.6119L41.5981 69.8321L40.5245 72.1707L31.6107 67.9506ZM36.1756 63.0763C35.8659 63.7463 35.7308 64.3927 35.7589 65.0058C35.7922 65.6185 35.9219 66.1648 36.158 66.6387C36.3888 67.1129 36.6547 67.4929 36.9453 67.7794L35.9515 67.3281C35.8112 67.2466 35.6228 67.0984 35.3808 66.8839C35.1389 66.6695 34.8922 66.396 34.6416 66.0742C34.3911 65.7525 34.1738 65.3798 33.9956 64.9611C33.8175 64.5423 33.7218 64.0852 33.7148 63.6002C33.7077 63.1151 33.8217 62.605 34.0629 62.0803L36.1756 63.0763Z" fill="white"/>
<path d="M47.1157 60.8796C46.3946 61.887 45.6008 62.6569 44.7286 63.1843C43.8569 63.717 42.9627 63.9707 42.0406 63.9459C41.119 63.9264 40.2086 63.5823 39.3104 62.9244C38.4122 62.2665 37.8044 61.4957 37.4866 60.6068C37.1689 59.7179 37.1198 58.7771 37.3495 57.7783C37.5792 56.7795 38.0491 55.7741 38.7702 54.7666C39.4913 53.7591 40.2802 52.995 41.1426 52.4791C42.005 51.9633 42.8997 51.7149 43.8328 51.7444C44.766 51.7738 45.6817 52.1175 46.5799 52.7754C47.4781 53.4334 48.0806 54.2045 48.3921 55.0831C48.6984 55.9621 48.7417 56.8979 48.5218 57.8852C48.3072 58.8721 47.8369 59.8721 47.1157 60.8796ZM45.5122 59.7008C45.9112 59.143 46.1702 58.5738 46.2937 57.982C46.4118 57.3907 46.3774 56.8319 46.1791 56.2959C45.9807 55.7599 45.6116 55.2956 45.0656 54.8927C44.5201 54.4952 43.9622 54.2766 43.3875 54.2482C42.8129 54.2197 42.2671 54.351 41.7503 54.6422C41.2336 54.9333 40.7706 55.3608 40.3618 55.9301C39.9628 56.4879 39.7042 57.0624 39.587 57.6645C39.4693 58.2613 39.5049 58.8361 39.7037 59.3775C39.9029 59.9242 40.2782 60.3989 40.8353 60.8064C41.3808 61.2039 41.933 61.4174 42.5015 61.4356C43.0699 61.4537 43.6041 61.3124 44.1254 61.0102C44.6413 60.7083 45.1088 60.2697 45.5122 59.7008Z" fill="white"/>
<path d="M59.8458 45.707L59.1941 46.1862L56.7741 37.8103L58.9997 36.0778L61.6394 46.581L59.741 48.0576L52.3709 43.6633L53.0555 43.1278L55.3706 51.4627L53.4722 52.9393L44.1103 47.6691L46.3359 45.9367L53.7177 50.4759L53.0779 50.9704L50.3938 42.7702L52.71 40.9664L59.8458 45.707Z" fill="white"/>
<path d="M61.574 35.3927L68.5298 32.355L69.335 34.1987L62.3791 37.2365L61.574 35.3927ZM62.7981 31.9035L65.1391 30.8821L70.1851 42.4304L67.8441 43.4518L62.7981 31.9035Z" fill="white"/>
<path d="M73.6635 40.8588L70.676 27.2898L73.1838 26.7518L76.166 40.3212L73.6635 40.8588ZM82.2383 39.0174L81.0715 33.701C80.9538 33.17 80.7698 32.7463 80.5095 32.4361C80.2545 32.1254 79.9062 31.9187 79.4757 31.8204C79.0453 31.7222 78.5016 31.7454 77.8443 31.8848C77.2136 32.0223 76.6713 32.2613 76.2076 32.6132C75.744 32.9652 75.3963 33.3627 75.1602 33.8169C74.924 34.2711 74.8314 34.7148 74.8877 35.1478L74.6306 34.0819C74.6005 33.6417 74.6541 33.1792 74.792 32.6998C74.9298 32.2203 75.15 31.7673 75.4627 31.3346C75.7755 30.9018 76.1723 30.5169 76.6754 30.1891C77.1784 29.8612 77.7633 29.6192 78.4467 29.4725C79.0353 29.3434 79.599 29.3025 80.1319 29.3448C80.6648 29.3871 81.1518 29.5244 81.5931 29.7568C82.0343 29.9891 82.4081 30.3127 82.7143 30.7276C83.0205 31.1424 83.2446 31.6657 83.3803 32.2871L84.7407 38.4797L82.2383 39.0174Z" fill="white"/>
</svg>
