<svg width="146" height="159" viewBox="0 0 146 159" fill="none" xmlns="http://www.w3.org/2000/svg">
<g clip-path="url(#clip0_205_15)">
<path d="M88.6098 11.6999C88.7098 11.7399 88.7898 11.7999 88.8898 11.8499L88.9198 11.8599C89.5998 12.3299 90.2298 12.9099 90.7898 13.5999C91.8998 14.9799 92.7398 16.7999 93.2298 19.0199C93.5298 20.4299 93.7098 22.0099 93.7298 23.7399C93.8398 34.6699 87.7898 48.5599 79.2998 58.3199C77.2398 60.6899 75.0398 62.7999 72.7398 64.5699C72.5998 64.6799 72.4598 64.7899 72.3098 64.8999C71.0398 65.8499 69.7898 66.6699 68.5898 67.3399L68.4098 66.9499C68.2698 66.6299 68.1298 66.2699 67.9798 65.9099C67.9498 65.8099 67.9098 65.7199 67.8598 65.6299C67.3298 64.2899 66.0998 63.2199 64.1898 62.4999C63.7698 62.3499 63.3198 62.2099 62.8298 62.0799C62.7998 62.0699 62.7698 62.0699 62.7498 62.0499C62.3098 61.9499 61.8498 61.8599 61.3498 61.7699C60.6198 61.6599 59.8398 61.5799 58.9998 61.5199C57.0498 61.4099 54.8898 61.4899 52.6198 61.7599C50.0598 62.0399 47.3498 62.5299 44.5498 63.2299C42.8598 63.6499 41.1298 64.1299 39.3998 64.6699C32.2998 66.9099 25.0698 70.1899 19.0698 74.0199C17.7798 74.8499 16.5498 75.7099 15.3898 76.5799C15.0898 76.7999 14.7998 77.0199 14.5198 77.2399C12.4998 78.8299 10.8698 80.3799 9.60976 81.8499C7.79976 83.9799 6.76976 85.9499 6.53976 87.6599C6.46976 88.2399 6.47976 88.7799 6.57976 89.2899V89.3299C6.75976 89.7899 6.93976 90.2299 7.10976 90.6699C7.06976 90.5999 7.02976 90.5299 6.98976 90.4499C6.95976 90.3899 6.92976 90.3299 6.90976 90.2699L6.97976 90.4499C7.30976 91.2699 7.63976 92.0699 7.97976 92.8299L8.16976 93.2899C8.16976 93.2999 8.16976 93.2999 8.17976 93.2999V93.3399C8.85976 94.8599 9.83976 96.8499 10.5598 98.3899C10.4498 98.1499 10.3798 97.8899 10.3698 97.6199C10.3298 97.1899 10.3998 96.7099 10.5598 96.1799C11.0198 94.7299 12.2798 92.9299 14.3198 90.8899C15.7498 89.4499 17.5598 87.8999 19.7398 86.2399C19.8598 86.1399 19.9998 86.0599 20.1298 85.9599C21.5398 84.9099 23.0398 83.8699 24.5998 82.8499C29.7498 79.5199 35.6298 76.3699 41.4298 73.7999C43.2298 73.0099 45.0298 72.2599 46.7998 71.5899C49.8198 70.4299 52.7198 69.4599 55.4298 68.7399C57.6898 68.1399 59.7898 67.6999 61.6798 67.4799C62.4698 67.3799 63.1898 67.3299 63.8698 67.2999C64.8198 67.2699 65.6698 67.3099 66.3898 67.4199C67.9998 67.6599 69.0098 68.2399 69.4298 69.1099C69.4398 69.1099 69.4398 69.1199 69.4398 69.1399C69.4698 69.1799 69.4998 69.2199 69.5098 69.2599C71.0298 68.4599 72.6498 67.4299 74.3298 66.1599H74.3398C74.5498 66.0099 74.7598 65.8399 74.9498 65.6899C86.6798 56.5399 97.4198 39.4699 99.1098 27.1299C99.2898 25.8699 99.3598 24.7099 99.3298 23.6399C99.2898 21.7299 98.9398 20.1499 98.3198 18.8899C97.9298 18.0999 97.4298 17.4399 96.8398 16.9099C96.7198 16.7999 96.5798 16.6899 96.4398 16.5899C96.4298 16.5799 96.3998 16.5599 96.3798 16.5499L95.7598 16.1199C95.7498 16.1099 95.7298 16.0899 95.7198 16.0799C95.6398 16.0099 95.5298 15.9599 95.4398 15.8999C95.4298 15.8899 95.4298 15.8699 95.4098 15.8699C94.8998 15.5099 94.3198 15.1199 93.7398 14.7399C93.0298 14.2799 92.2898 13.8099 91.5398 13.3699L90.9498 12.9799C90.8398 12.9199 90.7398 12.8599 90.6498 12.7999C90.5398 12.7299 90.4398 12.6799 90.3498 12.6099L89.4598 12.1099C89.2098 11.9599 88.9598 11.8199 88.7298 11.6799C88.4798 11.5299 88.2298 11.3899 87.9798 11.2499C87.9098 11.2099 87.8298 11.1799 87.7598 11.1399C87.8198 11.1799 87.8598 11.2099 87.9098 11.2399C87.9998 11.2899 88.0898 11.3499 88.1898 11.3999L87.5998 11.0699C87.5898 11.0699 87.5898 11.0599 87.5798 11.0599C87.8198 11.1899 88.0498 11.3299 88.2898 11.4599C88.3798 11.5699 88.4998 11.6399 88.6098 11.6999Z" fill="url(#paint0_linear_205_15)"/>
<path d="M22.1501 117.22L22.1401 117.21V117.22C22.1401 117.22 22.1401 117.22 22.1501 117.22Z" fill="url(#paint1_linear_205_15)"/>
<path d="M106.86 25.05C107.25 25.52 107.48 26.16 107.55 26.96C107.63 27.93 107.48 29.12 107.08 30.56C106.87 31.28 106.61 32.07 106.28 32.91C104.45 37.52 100.93 43.14 96.5402 48.75C93.9802 52.03 91.1301 55.32 88.1402 58.39C84.5302 62.13 80.7201 65.57 77.0201 68.35C75.0801 69.8 73.3001 70.99 71.6801 71.91C71.5001 72.02 71.3101 72.12 71.1301 72.23C71.1201 72.23 71.1201 72.24 71.1001 72.24C71.3401 72.61 71.5702 73 71.7602 73.33L71.8002 73.4C71.9402 73.62 72.1002 73.86 72.2602 74.12C72.2901 74.16 72.3202 74.2 72.3302 74.24C72.2201 74.06 71.9601 73.96 71.5701 73.96C71.2101 73.96 70.7402 74.04 70.1602 74.2C69.6102 74.35 68.9301 74.57 68.1502 74.86C67.6002 75.08 66.9601 75.33 66.2801 75.62C64.5401 76.38 62.5301 77.35 60.3401 78.5C57.3501 80.05 54.0301 81.92 50.5701 83.97C44.2101 87.75 37.3801 92.16 31.4202 96.41C29.9702 97.45 28.5702 98.47 27.2302 99.47C25.7901 100.55 24.5002 101.56 23.3702 102.49C20.6702 104.69 18.7902 106.45 17.7502 107.69C17.3902 108.13 17.1301 108.52 16.9901 108.84C16.8501 109.12 16.8102 109.34 16.8502 109.5C16.8502 109.51 16.8502 109.53 16.8502 109.53C16.8902 109.6 16.9301 109.67 16.9701 109.72C16.9601 109.71 16.9402 109.69 16.9302 109.68C17.0002 109.78 17.0502 109.87 17.1202 109.97C17.5802 110.7 18.0501 111.44 18.4901 112.09C18.5602 112.17 18.6102 112.27 18.6702 112.35L18.7401 112.45C19.2701 113.22 19.9002 114.11 20.5402 115C20.5402 115.01 20.5501 115.01 20.5501 115.03C20.6101 115.11 20.6601 115.2 20.7201 115.27C20.7901 115.35 20.8401 115.44 20.9001 115.52C21.1101 115.82 21.3202 116.12 21.5202 116.41C21.5902 116.51 21.6601 116.59 21.7101 116.67C21.7701 116.73 21.7902 116.78 21.8302 116.84C21.8602 116.87 21.8901 116.9 21.9001 116.92C21.9102 116.93 21.9102 116.95 21.9302 116.96C21.9602 116.99 21.9701 117.02 21.9901 117.04C22.0301 117.08 22.0602 117.12 22.0902 117.16L22.1301 117.2C22.1601 117.17 22.3902 116.99 22.8201 116.65C23.1701 116.39 23.6202 116.03 24.2002 115.58C25.8202 114.33 28.3802 112.41 31.7802 109.84C32.3302 109.42 32.9002 109 33.5002 108.55C36.7102 106.13 40.2502 103.47 43.8802 100.76C46.1902 99.03 48.5401 97.27 50.8501 95.54C55.7601 91.87 60.5201 88.33 64.5102 85.37C66.6301 83.81 68.5401 82.4 70.1301 81.22C70.7101 80.79 71.2401 80.4 71.7101 80.07C72.3601 79.59 72.9001 79.18 73.3401 78.87C74.3101 78.18 74.7801 77.85 74.8101 77.85C75.2101 78.39 75.7001 79.03 76.1101 79.54C76.1801 79.62 76.2502 79.69 76.3002 79.78C76.3102 79.78 76.3102 79.79 76.3302 79.81C76.3401 79.82 76.3601 79.85 76.3901 79.87L76.4002 79.86C77.1301 79.24 77.9501 78.56 78.8601 77.83C79.9801 76.94 81.2402 75.98 82.6202 74.93C84.1102 73.81 85.6802 72.66 87.3102 71.49C93.0602 67.37 99.5102 63.07 105.55 59.3C108.9 57.21 112.13 55.28 115.03 53.64C117.31 52.35 119.4 51.24 121.2 50.36C121.16 50.29 121.11 50.23 121.07 50.16C121.11 50.23 121.16 50.29 121.2 50.35C121.84 50.04 122.42 49.77 122.95 49.53C123.86 49.13 124.61 48.83 125.21 48.64C126.1 48.36 126.66 48.3 126.89 48.46C126.91 48.47 126.92 48.49 126.94 48.51C126.79 48.28 126.65 48.06 126.5 47.84L126.18 47.35L126.14 47.29C125.03 45.68 123.55 43.65 122.28 41.94C122.05 41.63 121.83 41.33 121.62 41.04C121.62 41.05 121.61 41.06 121.61 41.07C121.54 41.19 121.21 41.5 120.65 41.99C120.17 42.41 119.52 42.95 118.74 43.59C118.29 43.96 117.79 44.37 117.25 44.81C117.3 44.87 117.35 44.94 117.39 45C117.34 44.94 117.29 44.87 117.24 44.81C115.52 46.2 113.43 47.87 111.08 49.73C106.14 53.63 100.08 58.35 94.0402 63C94.0002 63.03 93.9602 63.06 93.9302 63.09C89.5102 66.49 85.0901 69.85 81.1402 72.83C80.6002 73.23 80.0901 73.62 79.6101 73.98C77.5901 75.5 75.9701 76.69 74.6801 77.65C74.4902 77.39 74.2802 77.12 74.0802 76.85L73.5301 76.09L73.2101 75.63C73.2101 75.6 73.2001 75.59 73.1801 75.57L73.1101 75.46C73.0401 75.35 72.9701 75.25 72.9002 75.16C72.9002 75.15 72.8901 75.15 72.8901 75.13C72.7501 74.92 72.6001 74.7 72.4601 74.48C74.2701 73.4 76.4001 71.95 78.8101 70.12C80.2001 69.09 81.5901 68 83.0002 66.84C90.5702 60.66 98.5902 52.87 104.54 46.03C107.21 42.94 109.48 40.07 111.08 37.6C111.51 36.95 111.87 36.34 112.19 35.79C112.8 34.7 113.2 33.8 113.39 33.06C113.6 32.33 113.58 31.77 113.36 31.41C113.35 31.38 113.32 31.35 113.3 31.33C113.27 31.3 113.24 31.27 113.23 31.25L113.19 31.21L113.15 31.17L112.33 30.31L112.27 30.25C112.26 30.24 112.25 30.23 112.24 30.22C112.1 30.07 111.96 29.92 111.81 29.77C111.24 29.18 110.59 28.54 109.95 27.92C109.81 27.78 109.66 27.64 109.52 27.51C109.16 27.16 108.79 26.82 108.42 26.48C108.4 26.46 108.38 26.44 108.36 26.43C108.35 26.42 108.34 26.41 108.33 26.4L108.25 26.33C107.93 26.03 107.58 25.71 107.22 25.39C107.25 25.42 107.29 25.45 107.32 25.49C107.29 25.46 107.25 25.43 107.22 25.4C107.12 25.3 107.03 25.22 106.93 25.14C106.92 25.11 106.89 25.1 106.86 25.07C106.8 25.01 106.74 24.96 106.67 24.9C106.71 24.96 106.75 24.98 106.79 25.02C106.84 25.03 106.86 25.04 106.86 25.05Z" fill="url(#paint2_linear_205_15)"/>
<path d="M106.46 24.65C106.43 24.64 106.4 24.61 106.38 24.59C106.49 24.69 106.6 24.8 106.71 24.88C106.62 24.8 106.54 24.74 106.46 24.65Z" fill="url(#paint3_linear_205_15)"/>
<path d="M114.39 153.85C114.54 153.78 114.69 153.71 114.84 153.64C115.02 153.55 115.19 153.46 115.36 153.38C114.79 153.65 114.2 153.92 113.63 154.17C113.88 154.07 114.14 153.96 114.39 153.85Z" fill="url(#paint4_linear_205_15)"/>
<path d="M90.9399 92.83C91.0999 92.81 91.2499 92.79 91.4099 92.77C91.2999 92.78 91.1699 92.8 91.0099 92.82L90.9399 92.83Z" fill="url(#paint5_linear_205_15)"/>
<path d="M49.2602 1.35998C49.2302 1.35998 49.2102 1.35998 49.1802 1.35998L49.1102 1.36998C48.9702 1.37998 48.8402 1.38998 48.7102 1.38998C48.4002 1.40998 48.0702 1.43998 47.7302 1.46998C47.4102 1.49998 47.1002 1.51998 46.7802 1.55998C46.7602 1.55998 46.7502 1.55998 46.7302 1.55998C46.7502 1.55998 46.7602 1.55998 46.7702 1.55998C46.9602 1.54998 47.1502 1.52998 47.3302 1.51998C48.2802 1.45998 49.0702 1.40998 49.7602 1.36998C49.0702 1.40998 48.2802 1.45998 47.3302 1.51998C54.4602 1.12998 64.2802 3.77998 71.8202 17.96C72.0102 17.95 72.2102 17.93 72.4002 17.9C72.2102 17.93 72.0102 17.94 71.8202 17.97C72.9402 20.27 73.8301 22.66 74.4902 25.1C75.4302 28.66 75.9002 32.31 75.9002 35.89C75.9002 45.59 72.5201 54.9 66.2701 60.86C66.2001 60.6 66.1501 60.32 66.0901 60.07L66.0201 59.72L66.0102 59.71C66.0102 59.7 66.0102 59.7 66.0102 59.7C66.0002 59.62 65.9802 59.53 65.9702 59.45C71.6702 52.56 73.6601 42.49 71.6002 32.51C71.0002 29.59 70.0602 26.67 68.7602 23.85C68.0402 22.31 67.2202 20.79 66.3002 19.31C57.9902 6.05998 43.7102 0.479979 32.2502 5.15998C31.3602 5.55998 30.6202 5.88998 29.9502 6.20998C29.8902 6.23998 29.8302 6.26998 29.7602 6.30998C29.1502 6.58998 28.6002 6.85998 28.0602 7.13998C27.4202 7.46998 26.7902 7.79998 26.1102 8.20998C25.8502 8.37998 25.5702 8.52998 25.2902 8.68998C24.8602 8.96998 24.4002 9.23998 23.9102 9.55998C27.4502 7.47998 31.4202 6.44998 35.5202 6.37998C38.6702 6.31998 41.9002 6.83998 45.0702 7.86998C51.7102 10.07 58.0902 14.59 62.9202 21.17C63.8202 22.39 64.6402 23.65 65.3702 24.93C66.7302 27.28 67.8102 29.72 68.6202 32.19C71.7102 41.64 70.7202 51.45 65.8502 58.58V58.64C65.7902 58.35 65.7402 58.04 65.6702 57.75C69.1802 50.82 68.9902 42.1 65.1202 33.94C64.1502 31.92 62.9802 29.93 61.5602 28.02C60.7902 26.97 59.9402 25.93 59.0302 24.93C55.7802 21.33 51.9702 18.47 47.9302 16.35C38.1602 11.24 26.9502 10.61 18.4302 15.2C17.3902 15.75 16.4002 16.39 15.4602 17.11C13.7602 18.38 12.3102 19.84 11.1002 21.44C10.0602 22.85 8.79015 24.83 7.83015 26.31C7.83015 26.31 7.83015 26.31 7.83015 26.32C7.82015 26.33 7.82016 26.33 7.80016 26.35C7.50015 26.88 7.19016 27.4 6.93015 27.9C6.81015 28.12 6.69016 28.33 6.58015 28.55C6.54015 28.62 6.50015 28.7 6.46016 28.79C6.29015 29.12 6.11015 29.47 5.95015 29.81L5.88016 29.92C5.87015 29.96 5.85016 29.99 5.84016 30.02C5.83015 30.06 5.80016 30.1 5.78016 30.14C5.72016 30.25 5.68016 30.35 5.63016 30.46C5.64016 30.45 5.65016 30.43 5.65016 30.42C5.64015 30.43 5.64016 30.45 5.63016 30.46C5.58015 30.56 5.53015 30.65 5.49015 30.75C5.50015 30.73 5.51016 30.7 5.53016 30.68C5.49016 30.77 5.45015 30.86 5.41015 30.94C5.40015 30.95 5.40016 30.97 5.39015 30.98C5.27015 31.24 5.16016 31.49 5.05016 31.75C5.05016 31.75 5.05015 31.74 5.06015 31.74C5.27015 31.27 5.48015 30.8 5.71016 30.33C5.84016 30.08 5.97015 29.83 6.10015 29.56C6.10015 29.56 6.10015 29.56 6.10015 29.55C7.28015 27.43 8.85015 25.48 10.8302 23.78C11.2202 23.43 11.6202 23.1 12.0302 22.78C21.3302 15.79 35.5202 15.75 47.4102 21.76C50.8302 23.49 54.0502 25.72 56.9202 28.42V28.43L56.9302 28.44C57.8702 29.31 58.7102 30.21 59.5202 31.14C60.9302 32.76 62.1202 34.43 63.1302 36.16C67.2702 43.22 68.1102 50.91 65.5802 57.43C64.8702 54.97 63.3102 52.67 60.8602 50.71C59.9202 49.94 58.8402 49.23 57.6402 48.57C56.8202 48.13 55.9502 47.71 55.0302 47.31C55.0302 47.35 55.0402 47.39 55.0402 47.43C55.0302 47.39 55.0302 47.35 55.0102 47.31C52.8802 46.42 50.5502 45.75 48.1202 45.28C45.3702 44.74 42.4702 44.46 39.5302 44.42C37.6302 44.41 35.7102 44.48 33.7902 44.66C26.2402 45.35 18.6702 47.57 12.5802 51.09C11.2902 51.82 10.0902 52.63 8.94015 53.48C8.57015 53.77 8.19016 54.06 7.83015 54.35C5.84015 56 4.26015 57.73 3.11015 59.5C1.66015 61.7 0.870155 63.96 0.730155 66.16C0.700155 66.73 0.700155 67.29 0.760155 67.85C0.770155 68.03 0.800155 68.21 0.820155 68.39L1.46015 72.13L1.49015 72.24C1.50015 72.31 1.52015 72.39 1.53015 72.46C1.54015 72.54 1.56015 72.63 1.57015 72.7C1.87015 74.13 2.29015 75.85 2.62015 77.27C2.50015 76.64 2.46015 76 2.49015 75.35C2.59015 73.3 3.42015 71.12 4.99015 68.9C6.10015 67.34 7.59015 65.76 9.45015 64.21C9.91015 63.82 10.3902 63.44 10.9002 63.06C11.6302 62.49 12.4202 61.95 13.2202 61.43C19.6502 57.24 27.9102 54.25 36.0802 52.85C37.9202 52.53 39.7602 52.3 41.5702 52.16C44.3602 51.94 47.0802 51.91 49.6602 52.12C51.9702 52.3 54.1802 52.66 56.2002 53.21H56.2102C57.1102 53.46 57.9502 53.74 58.7402 54.05C59.9002 54.51 60.9402 55.02 61.8502 55.6C64.2402 57.11 65.7402 59.02 66.3302 61.16L66.3401 61.2C66.3502 61.24 66.3502 61.27 66.3702 61.31C66.4302 61.53 66.4902 61.77 66.5602 62.02C66.5702 62.03 66.5702 62.05 66.5702 62.05C72.3302 57.32 76.2701 49.98 77.9902 41.88C78.8902 37.62 79.1802 33.16 78.7802 28.75C78.4302 25.04 77.6002 21.38 76.2602 17.92C72.1602 8.08998 66.0002 2.71998 57.4802 1.47998C57.3802 1.46998 57.2902 1.44998 57.1902 1.43998C57.1502 1.43998 57.1102 1.43998 57.0702 1.42998C56.6102 1.41998 56.1402 1.38998 55.6402 1.36998C55.5002 1.36998 55.3802 1.35998 55.2502 1.35998H55.1502C54.3302 1.32998 53.6602 1.30998 53.0502 1.28998C53.6802 1.29998 54.3902 1.32998 55.2402 1.35998C55.2302 1.35998 55.2202 1.35998 55.2102 1.35998C54.4002 1.31998 53.6202 1.28998 52.9202 1.26998C51.8402 1.21998 50.4302 1.28998 49.2602 1.35998Z" fill="url(#paint6_linear_205_15)"/>
<path d="M125.97 58.43C124.1 58.73 122.01 59.25 119.77 59.91C117.06 60.73 114.11 61.79 111.08 63.04C108.82 63.98 106.53 65 104.23 66.11C99.5399 68.38 94.8199 70.98 90.5499 73.72C88.8099 74.84 87.1299 75.98 85.5599 77.11C85.1699 77.39 84.7999 77.68 84.4299 77.95C82.2999 79.54 80.5299 81.05 79.1199 82.42L78.8599 82.68L78.7399 82.56C79.0899 82.93 79.0199 83.69 78.4899 84.86C78.2299 85.43 77.8699 86.08 77.3999 86.82C77.0699 87.35 76.6799 87.93 76.2399 88.54V88.55C74.6599 90.74 72.5599 93.25 70.0999 95.98C63.6699 103.08 54.7699 111.42 46.6299 117.91C45.5399 118.78 44.4399 119.63 43.3899 120.43C40.1499 122.87 37.4499 124.66 35.3499 125.83C34.3699 126.37 33.5099 126.77 32.7899 127.03C31.7099 127.43 30.9499 127.5 30.5499 127.25C30.5199 127.24 30.5099 127.24 30.4899 127.22C30.4599 127.19 30.4199 127.15 30.3799 127.11C30.4399 127.18 30.4899 127.23 30.5499 127.3L31.4199 128.21L32.5799 129.44C32.7299 129.59 32.8799 129.76 33.0499 129.92C33.0499 129.93 33.0499 129.93 33.0599 129.95C33.4099 130.3 33.7499 130.64 34.0999 130.97C34.8199 131.68 35.5699 132.4 36.2299 133.03C36.4099 133.18 36.5799 133.35 36.7399 133.51C36.7999 133.57 36.8599 133.63 36.9299 133.69C36.9699 133.73 37.0099 133.76 37.0499 133.79C37.0599 133.82 37.0899 133.83 37.1099 133.85C37.9999 134.49 39.4499 134.49 41.3899 133.84C42.4599 133.49 43.6699 132.94 45.0199 132.21C46.8199 131.21 48.8499 129.89 51.1099 128.18C54.0799 125.95 57.1399 123.31 60.1299 120.43C64.4599 116.28 68.6399 111.66 72.1999 107.12C76.0699 102.18 79.2099 97.32 80.9899 93.31V93.3C81.3499 92.48 81.6399 91.75 81.8799 91.04C82.2099 90.03 82.4099 89.14 82.4799 88.37C82.5999 87.06 82.3399 86.11 81.7299 85.55L81.7199 85.54C81.6899 85.5 81.6499 85.47 81.6199 85.44C81.5599 85.38 81.5099 85.33 81.4499 85.27L80.9999 84.88L80.5599 84.45C81.7199 83.25 83.1299 81.99 84.7899 80.69C85.0099 80.52 85.2299 80.36 85.4699 80.18C86.6599 79.29 87.9199 78.42 89.2299 77.56C95.1199 73.76 102.19 70.45 109.13 68.08C110.85 67.5 112.55 66.97 114.22 66.52C117.08 65.75 119.88 65.15 122.48 64.79C124.72 64.47 126.84 64.33 128.76 64.37C129.53 64.38 130.27 64.44 130.95 64.52C132.08 64.64 133.07 64.85 133.91 65.14C135.53 65.68 136.64 66.5 137.22 67.53C137.23 67.57 137.26 67.61 137.28 67.65C137.36 67.86 137.46 68.08 137.54 68.3C137.5 68.18 137.46 68.04 137.42 67.91L136.76 66.39V66.4C136.76 66.4 136.75 66.4 136.75 66.39C135.96 64.62 134.87 62.39 133.94 60.51C133.79 60.19 133.65 59.9 133.51 59.61C133.45 59.51 133.4 59.43 133.33 59.33C132.86 58.72 131.99 58.33 130.7 58.18C129.95 58.1 129.07 58.1 128.03 58.18C127.38 58.23 126.7 58.32 125.97 58.43Z" fill="url(#paint7_linear_205_15)"/>
<path d="M111.54 72.87C103.67 74.38 95.7198 77.34 89.3998 81.36C88.4098 81.99 87.4698 82.64 86.5598 83.32C86.5698 83.35 86.5798 83.39 86.5898 83.42C86.5998 83.45 86.6098 83.48 86.6198 83.51C86.5998 83.45 86.5798 83.38 86.5698 83.32C86.1198 83.66 85.6898 84 85.2698 84.34C84.3698 85.08 83.5498 85.83 82.8198 86.57C82.9698 86.7 83.1098 86.82 83.2398 86.94C83.2498 86.95 83.2698 86.96 83.2798 86.97C83.2998 86.99 83.3298 87.01 83.3498 87.03C83.3598 87.04 83.3698 87.05 83.3798 87.06C83.3998 87.07 83.4198 87.09 83.4398 87.11C83.4498 87.12 83.4698 87.13 83.4798 87.15C83.4898 87.16 83.4898 87.16 83.4998 87.17C83.7598 87.39 84.0598 87.63 84.3498 87.86C84.7998 87.42 85.2898 86.99 85.7998 86.57C86.2098 86.23 86.6298 85.9 87.0698 85.56C87.0598 85.5 87.0498 85.43 87.0398 85.37C87.0398 85.39 87.0498 85.41 87.0498 85.44C87.0598 85.48 87.0698 85.52 87.0698 85.57C88.0498 84.83 89.0798 84.14 90.1698 83.48C96.4098 79.7 104.28 77.28 112.12 76.46C113.88 76.28 115.63 76.17 117.36 76.15C120.37 76.11 123.32 76.33 126.12 76.81C128.56 77.23 130.88 77.84 133.01 78.67C133 78.59 132.98 78.51 132.97 78.43C132.98 78.51 133 78.59 133.01 78.67C133.9 79.02 134.74 79.39 135.53 79.79C136.84 80.46 138 81.19 139 81.99C141.44 83.92 142.97 86.2 143.59 88.65L143.63 88.9C143.71 89.34 143.78 89.78 143.85 90.21C143.83 89.96 143.8 89.7 143.75 89.45C143.75 89.45 143.75 89.45 143.75 89.44L143.74 89.41L143.39 87.5C143.38 87.45 143.37 87.4 143.36 87.35C143.36 87.33 143.35 87.3 143.35 87.28C143.34 87.24 143.33 87.19 143.33 87.15C143.28 86.92 143.23 86.68 143.18 86.43C143.05 85.77 142.91 85.11 142.77 84.47C142.59 83.68 142.4 82.88 142.21 82.17C142.17 82.02 142.13 81.86 142.08 81.71C142 81.43 141.92 81.15 141.84 80.89C141.82 80.83 141.81 80.77 141.79 80.71C141.71 80.42 141.63 80.12 141.54 79.81C141.51 79.72 141.48 79.63 141.44 79.54C141.43 79.52 141.43 79.51 141.42 79.49C140.74 77.76 139.38 76.22 137.34 74.98C136.38 74.4 135.27 73.88 134.01 73.44C133.28 73.18 132.49 72.95 131.66 72.75C131.68 72.83 131.7 72.91 131.73 72.99C131.71 72.91 131.69 72.83 131.66 72.74C129.62 72.24 127.39 71.94 125.05 71.82C122.34 71.68 119.47 71.79 116.53 72.12C114.9 72.29 113.22 72.54 111.54 72.87Z" fill="url(#paint8_linear_205_15)"/>
<path d="M133.73 86.6099C131.45 85.2799 128.98 84.2199 126.38 83.3699C123.07 82.2999 119.57 81.6299 116.02 81.3399C113.56 81.1499 111.07 81.1199 108.6 81.2799C103.11 81.6499 97.7502 82.9399 93.1002 85.1099C91.4102 85.8799 89.8202 86.7799 88.3402 87.7899C87.9902 88.0399 87.6602 88.2699 87.3302 88.5199C86.9802 88.7799 86.6502 89.0499 86.3202 89.3199C86.2202 89.2399 86.1102 89.1699 86.0202 89.0999L85.8102 88.9599C86.6302 89.5599 87.2802 90.3999 87.7102 91.4899C87.9302 92.0399 88.1002 92.6499 88.2202 93.3199C88.2202 93.3899 88.2302 93.4399 88.2502 93.4999C88.3502 94.1899 88.4002 94.9299 88.3902 95.7399C88.3902 96.7899 88.2802 97.9399 88.0702 99.1899C85.9802 111.48 74.5802 128.73 62.6202 137.74C62.1902 138.06 61.7802 138.36 61.3602 138.65C59.3402 140.06 57.4402 141.13 55.7102 141.86C52.2502 143.31 49.4102 143.45 47.4502 142.33C47.3702 142.29 47.2802 142.23 47.2002 142.18L49.3402 143.72L49.4602 143.8C49.4702 143.81 49.4902 143.83 49.5202 143.84C49.5502 143.85 49.5802 143.88 49.6202 143.91C50.0102 144.17 50.4202 144.44 50.8502 144.73C51.3902 145.09 51.9702 145.48 52.5502 145.85C53.1902 146.25 53.8402 146.64 54.4702 147.03C54.5102 147.06 54.5402 147.07 54.5702 147.1L54.6802 147.16C54.7102 147.17 54.7202 147.19 54.7502 147.2C54.7802 147.21 54.8202 147.24 54.8502 147.26C54.8602 147.27 54.8802 147.27 54.8802 147.29C54.9402 147.32 54.9802 147.33 55.0202 147.36C55.0202 147.37 55.0302 147.37 55.0302 147.37C55.1702 147.44 55.2902 147.51 55.4302 147.58C58.5802 149.16 62.9302 148.63 67.8702 145.79C68.9902 145.14 70.1302 144.39 71.3002 143.51C72.6802 142.47 74.0402 141.31 75.3502 140.04C85.4202 130.35 93.1902 114.71 93.3902 102.75C93.4302 101.01 93.2902 99.4299 93.0202 98.0199C92.5902 95.8499 91.8202 94.0899 90.7502 92.7499C90.7402 92.7399 90.7202 92.7199 90.7102 92.6899C101.72 89.7199 114.72 95.3199 122.63 107.52H122.64C123.62 109.03 124.48 110.59 125.24 112.18C126.46 114.77 127.38 117.42 128.02 120.11C130.86 132.23 127.6 144.61 118.78 151.26C117.84 151.97 116.86 152.59 115.85 153.13C116.39 152.87 116.86 152.62 117.29 152.4C118.33 151.85 119.14 151.39 119.99 150.86C121.07 150.18 122.19 149.39 123.89 148.22C123.9 148.21 123.92 148.21 123.93 148.19C123.96 148.16 123.99 148.15 124.03 148.11C124.33 147.87 124.68 147.61 125.01 147.34C125.22 147.17 125.43 146.99 125.62 146.81C133.71 139.6 135.76 127.31 131.54 115.73C130.74 113.53 129.7 111.36 128.45 109.24C127.69 107.98 126.86 106.74 125.93 105.53C125.89 105.57 125.83 105.6 125.78 105.64C125.86 105.02 124.87 104.49 124.48 104.01L123.5 102.89C123.39 102.77 123.28 102.64 123.17 102.52C122.99 102.31 122.8 102.13 122.6 101.94C122.57 101.9 122.53 101.86 122.49 101.82C122.31 101.64 122.14 101.46 121.96 101.28L121.81 101.13C121.67 101.01 121.53 100.87 121.41 100.74C121.34 100.67 121.26 100.6 121.19 100.55C121.08 100.44 120.95 100.33 120.84 100.22C120.76 100.15 120.69 100.08 120.6 100.01C120.49 99.9099 120.38 99.7999 120.25 99.7099C120.18 99.6399 120.1 99.5699 120.01 99.4999C119.9 99.3999 119.77 99.3099 119.66 99.2099C119.58 99.1399 119.51 99.0699 119.42 98.9999C119.39 98.9699 119.36 98.9599 119.32 98.9299C119.24 98.8499 119.14 98.7799 119.06 98.7099C118.98 98.6499 118.91 98.5899 118.82 98.5299C118.7 98.4199 118.57 98.3199 118.43 98.2299C118.36 98.1699 118.29 98.1199 118.22 98.0599C118.05 97.9399 117.89 97.8099 117.72 97.6899C117.69 97.6599 117.65 97.6299 117.62 97.6199C117.44 97.4999 117.27 97.3699 117.09 97.2499C117.06 97.2199 117.03 97.1899 117.01 97.1799C116.95 97.1399 116.89 97.0999 116.83 97.0599C116.77 97.0199 116.72 96.9899 116.66 96.9499C116.65 96.9399 116.62 96.9199 116.59 96.8899C116.55 96.8599 116.51 96.8299 116.47 96.8199C116.44 96.7899 116.41 96.7799 116.4 96.7599C116.32 96.6999 116.23 96.6499 116.16 96.6099C116.06 96.5399 115.97 96.4699 115.87 96.4199C115.84 96.4099 115.81 96.3899 115.79 96.3599C115.79 96.3599 115.78 96.3599 115.78 96.3499C115.74 96.3399 115.7 96.3099 115.66 96.2799C115.62 96.2499 115.58 96.2199 115.54 96.1999C115.42 96.1199 115.29 96.0499 115.17 95.9599C115.14 95.9499 115.1 95.9199 115.07 95.8999C115.07 95.8999 115.06 95.8899 115.04 95.8899C115 95.8599 114.94 95.8299 114.9 95.8099C114.78 95.7299 114.65 95.6599 114.53 95.5899C114.45 95.5299 114.36 95.4899 114.28 95.4399C114.25 95.4299 114.22 95.3999 114.18 95.3799C114.17 95.3699 114.14 95.3499 114.12 95.3499C114.08 95.3199 114.04 95.2899 113.98 95.2699C113.95 95.2599 113.91 95.2299 113.87 95.2099C113.79 95.1499 113.7 95.1099 113.62 95.0699C113.58 95.0399 113.55 95.0299 113.51 94.9999C113.48 94.9899 113.44 94.9699 113.41 94.9599C113.35 94.9199 113.3 94.8899 113.24 94.8599C113.23 94.8499 113.21 94.8499 113.2 94.8299C113.12 94.7999 113.05 94.7599 112.98 94.7199C112.95 94.7099 112.91 94.6899 112.88 94.6599C112.8 94.6199 112.71 94.5799 112.63 94.5399C112.57 94.5099 112.51 94.4799 112.45 94.4399C112.42 94.4399 112.41 94.4299 112.38 94.4099C112.37 94.4099 112.35 94.3999 112.34 94.3799C112.31 94.3699 112.28 94.3499 112.26 94.3399C112.16 94.2999 112.07 94.2599 111.98 94.2199C111.88 94.1799 111.79 94.1199 111.69 94.0799C111.69 94.0799 111.68 94.0699 111.66 94.0699C111.63 94.0599 111.62 94.0399 111.59 94.0399C111.51 93.9999 111.42 93.9599 111.34 93.9199C111.3 93.9099 111.26 93.8899 111.23 93.8599C111.16 93.8499 111.09 93.8199 111.04 93.7799C111.03 93.7799 111 93.7699 110.98 93.7699C110.95 93.7599 110.94 93.7599 110.92 93.7399C110.88 93.7299 110.85 93.7099 110.82 93.6999C110.78 93.6699 110.74 93.6599 110.7 93.6399C110.59 93.5799 110.49 93.5399 110.38 93.4999C110.34 93.4899 110.28 93.4599 110.24 93.4399C110.18 93.4099 110.14 93.3999 110.1 93.3799C110.09 93.3699 110.07 93.3499 110.06 93.3499C110.05 93.3499 110.03 93.3499 110.02 93.3399C109.99 93.3299 109.95 93.3099 109.92 93.2999C109.86 93.2699 109.81 93.2599 109.75 93.2399C109.74 93.2299 109.72 93.2299 109.71 93.2299C109.67 93.1999 109.61 93.1699 109.56 93.1599C109.5 93.1499 109.46 93.1199 109.41 93.0999C109.33 93.0699 109.24 93.0299 109.15 92.9999C109.11 92.9699 109.05 92.9599 109 92.9399C108.96 92.9299 108.93 92.8999 108.89 92.8799C108.85 92.8699 108.82 92.8699 108.78 92.8499C108.68 92.8099 108.59 92.7799 108.49 92.7399C108.41 92.7099 108.32 92.6799 108.23 92.6599C108.22 92.6499 108.22 92.6499 108.2 92.6499C108.03 92.5899 107.85 92.5299 107.69 92.4799C107.61 92.4499 107.52 92.4399 107.44 92.4099C107.41 92.3999 107.4 92.3799 107.38 92.3799C107.23 92.3399 107.09 92.2999 106.95 92.2599C106.91 92.2499 106.87 92.2299 106.83 92.2199C106.79 92.2099 106.76 92.2099 106.72 92.1899C106.54 92.1299 106.35 92.0699 106.17 92.0199C106.07 91.9899 105.99 91.9599 105.91 91.9499C105.67 91.8799 105.45 91.8299 105.23 91.7799C105.11 91.7399 104.98 91.7099 104.86 91.6999C104.64 91.6299 104.42 91.5899 104.2 91.5599C104.1 91.5499 104.01 91.5199 103.91 91.4999C103.9 91.4999 103.88 91.4999 103.85 91.4899C103.74 91.4799 103.63 91.4499 103.52 91.4299C103.3 91.3699 103.06 91.3499 102.84 91.3199C102.8 91.3099 102.76 91.3099 102.72 91.3099C102.58 91.2799 102.46 91.2699 102.32 91.2499C102.29 91.2499 102.25 91.2499 102.22 91.2399C102.18 91.2399 102.14 91.2299 102.1 91.2299C102 91.2199 101.89 91.1999 101.78 91.1899L101.32 91.1499C101.28 91.1399 101.25 91.1399 101.21 91.1399H101.2C101.16 91.1299 101.13 91.1299 101.09 91.1299C101.06 91.1299 101.03 91.1299 101.02 91.1199H100.88C100.82 91.1099 100.78 91.1099 100.73 91.1099C100.66 91.0999 100.61 91.0999 100.54 91.0999C100.5 91.0999 100.46 91.0899 100.4 91.0899H100.28C100.21 91.0799 100.14 91.0799 100.09 91.0799H100.02C99.9802 91.0699 99.9202 91.0699 99.8802 91.0699H99.7002C99.6402 91.0599 99.5902 91.0599 99.5302 91.0599H99.3502C99.3402 91.0599 99.3402 91.0599 99.3402 91.0599H99.2602C99.1902 91.0599 99.1102 91.0499 99.0202 91.0499H98.3402C98.2802 91.0499 98.2402 91.0499 98.1902 91.0599H97.7602C97.7302 91.0699 97.6902 91.0699 97.6602 91.0699H97.5502C97.4802 91.0699 97.4002 91.0799 97.3102 91.0799H97.2402C97.2102 91.0799 97.2102 91.0799 97.2002 91.0899C97.1902 91.0899 97.1902 91.0899 97.1902 91.0899C97.1802 91.0799 97.1602 91.0899 97.1302 91.0899H96.9902C96.9602 91.0899 96.9302 91.0899 96.9102 91.0999C96.9102 91.0999 96.9102 91.0999 96.9002 91.0999C96.8402 91.0999 96.7902 91.0999 96.7202 91.1099C96.6502 91.1099 96.6002 91.1099 96.5302 91.1199C96.4702 91.1199 96.4202 91.1199 96.3502 91.1299H96.3002C96.2702 91.1299 96.2402 91.1399 96.2202 91.1399H96.1402C96.1302 91.1499 96.1002 91.1499 96.0602 91.1499C96.0302 91.1499 96.0002 91.1499 95.9802 91.1599C95.9702 91.1599 95.9702 91.1599 95.9502 91.1599C95.8802 91.1699 95.8002 91.1699 95.7302 91.1899H95.6602C95.5802 91.1999 95.4902 91.2199 95.4102 91.2299H95.3102C95.2702 91.2399 95.2302 91.2399 95.1902 91.2599C95.1502 91.2599 95.1202 91.2599 95.0802 91.2699C95.0502 91.2699 95.0202 91.2699 95.0002 91.2799C94.9302 91.2799 94.8502 91.2899 94.7802 91.3099C94.7702 91.3099 94.7402 91.3099 94.7202 91.3199C94.6202 91.3299 94.5402 91.3499 94.4402 91.3599C94.4302 91.3599 94.4302 91.3599 94.4302 91.3599C94.4002 91.3599 94.3902 91.3699 94.3602 91.3699C94.3502 91.3699 94.3502 91.3699 94.3302 91.3699C94.2702 91.3799 94.2102 91.3999 94.1402 91.4099C94.0302 91.4199 93.9202 91.4499 93.8102 91.4799C93.7702 91.4799 93.7302 91.4899 93.6902 91.4899C93.6602 91.4999 93.6202 91.4999 93.5902 91.5199C93.5502 91.5199 93.5102 91.5299 93.4702 91.5299C93.3702 91.5599 93.2902 91.5699 93.1902 91.5999C93.1302 91.6099 93.0902 91.6099 93.0402 91.6299C93.0002 91.6399 92.9602 91.6599 92.9002 91.6699C92.8402 91.6799 92.7902 91.6999 92.7302 91.7099C92.6902 91.7099 92.6602 91.7199 92.6202 91.7399C92.5902 91.7399 92.5502 91.7499 92.5202 91.7499C92.4402 91.7799 92.3502 91.7899 92.2702 91.8199C92.1702 91.8499 92.0802 91.8799 91.9802 91.8999C91.9702 91.8999 91.9502 91.8999 91.9402 91.9099C91.9002 91.9099 91.8402 91.9199 91.8002 91.9399C91.7902 91.9499 91.7602 91.9499 91.7602 91.9499C91.7502 91.9499 91.7302 91.9499 91.7202 91.9599L91.7102 91.9699C91.7002 91.9699 91.6702 91.9699 91.6502 91.9799C91.5002 92.0199 91.3602 92.0599 91.2102 92.1199L90.9702 92.0099L90.0702 91.5499C98.6202 87.5499 109.58 88.3999 119.12 93.4299C122.96 95.4599 126.57 98.1599 129.69 101.5C129.7 101.49 129.71 101.48 129.72 101.46C129.71 101.47 129.7 101.49 129.7 101.5C130.58 102.49 131.4 103.49 132.16 104.5C133.49 106.26 134.62 108.04 135.57 109.84C140.22 118.69 140.24 127.86 135.41 135.98C135.38 136.03 135.35 136.09 135.31 136.14C135.36 136.07 135.41 136 135.46 135.92C135.63 135.68 135.79 135.45 135.94 135.22C136.01 135.12 136.07 135.02 136.14 134.91C136.17 134.86 136.21 134.81 136.24 134.76C136.3 134.67 136.36 134.57 136.41 134.48C136.66 134.09 136.89 133.7 137.11 133.33C137.14 133.28 137.17 133.22 137.2 133.17C137.44 132.75 137.71 132.27 137.99 131.77C138 131.76 138.01 131.74 138.02 131.72C138.22 131.36 138.4 131 138.59 130.64C138.95 129.96 139.26 129.32 139.62 128.52C139.82 128.08 140.03 127.59 140.28 127.03C140.3 126.99 140.31 126.95 140.33 126.91C140.32 126.93 140.31 126.95 140.3 126.97C140.12 127.4 139.91 127.83 139.7 128.25C140.13 127.26 140.57 126.18 140.98 125.13C142.92 118.95 141.88 111.88 137.95 105.39C136.91 103.68 135.67 102 134.23 100.4C133.44 99.5199 132.6 98.6699 131.69 97.8399C131.68 97.8699 131.67 97.8899 131.66 97.9199C131.67 97.8899 131.68 97.8699 131.69 97.8399C128.81 95.1999 125.57 93.0399 122.14 91.3699C116.31 88.5299 109.94 87.1099 103.87 87.2099C102.41 87.2299 100.97 87.3399 99.5602 87.5399C95.8102 88.0699 92.2602 89.2199 89.1302 91.0299C88.9402 90.9199 88.7602 90.8099 88.5802 90.7099C88.5702 90.6799 88.5402 90.6799 88.5202 90.6699C88.4402 90.6099 88.3502 90.5599 88.2702 90.5199L87.6202 90.0999C88.5502 89.4199 89.5402 88.7999 90.5702 88.2499C93.4902 86.6399 96.7502 85.4999 100.2 84.7999C100.8 84.6899 101.39 84.5799 102 84.4799C105.92 83.8699 110.03 83.8299 114.09 84.3399C117.99 84.8399 121.87 85.8299 125.51 87.3299C128.3 88.4799 130.96 89.9299 133.38 91.6699C134.32 92.3499 135.21 93.0499 136.02 93.7699C137.43 95.0199 138.66 96.3199 139.71 97.6699C143.29 102.26 144.86 107.4 144.3 112.3C144.42 111.36 144.54 110.39 144.63 109.49V109.45C144.64 109.35 144.66 109.27 144.66 109.19C144.69 108.98 144.7 108.77 144.73 108.58C144.73 108.47 144.74 108.36 144.74 108.25C144.75 108.12 144.76 107.97 144.76 107.83C144.75 107.98 144.74 108.12 144.74 108.25C144.78 107.76 144.81 107.26 144.85 106.74C144.89 106.12 144.92 105.53 144.93 104.99C144.93 104.96 144.93 104.93 144.93 104.9C144.93 104.81 144.94 104.72 144.94 104.63C144.94 104.56 144.94 104.49 144.95 104.42C144.95 104.34 144.95 104.26 144.96 104.18C144.96 104.01 144.97 103.84 144.97 103.67C144.97 103.55 144.97 103.43 144.97 103.31C144.97 103.26 144.97 103.21 144.97 103.16C144.97 103.15 144.97 103.14 144.97 103.13V102.77C144.97 102.45 144.96 102.13 144.93 101.83C144.65 98.1899 143.01 94.6099 140.03 91.4299C139.01 90.3399 137.82 89.2899 136.46 88.2899C135.58 87.7599 134.68 87.1799 133.73 86.6099Z" fill="url(#paint9_linear_205_15)"/>
<path d="M115.8 153.16C115.82 153.15 115.84 153.14 115.86 153.12C115.8 153.15 115.73 153.18 115.67 153.22C115.72 153.2 115.76 153.18 115.8 153.16Z" fill="url(#paint10_linear_205_15)"/>
<path d="M22.3799 10.5399C22.8799 10.1899 23.3899 9.86994 23.9099 9.55994C23.4499 9.84994 22.9499 10.1799 22.3799 10.5399Z" fill="url(#paint11_linear_205_15)"/>
<path d="M77.11 7.83996C79.79 10.52 81.89 14.33 83.09 19.16C83.12 19.17 83.14 19.18 83.17 19.18C83.14 19.17 83.12 19.17 83.09 19.16C84.61 25.26 84.46 32.07 82.99 38.61C81.85 43.66 79.92 48.55 77.35 52.85C74.89 56.96 71.83 60.54 68.31 63.18C68.32 63.18 68.32 63.18 68.33 63.19C68.32 63.19 68.32 63.19 68.31 63.18C67.95 63.45 67.59 63.71 67.23 63.96C67.33 64.24 67.45 64.57 67.59 64.96C67.66 65.15 67.74 65.35 67.83 65.55C68.64 65.06 69.46 64.51 70.28 63.89C70.24 63.87 70.21 63.86 70.17 63.84C70.21 63.86 70.24 63.87 70.28 63.89C72.03 62.57 73.7 61.03 75.27 59.32C77.78 56.58 80.02 53.41 81.92 49.98C86.94 40.93 89.56 30.12 88.32 21.05C88.07 20.94 87.82 20.84 87.58 20.73C87.83 20.83 88.07 20.94 88.32 21.04C87.93 18.15 87.17 15.66 86.12 13.58C84.83 11.04 83.11 9.11996 81.06 7.87996C81.01 7.84996 80.95 7.80996 80.9 7.77996C80.68 7.64996 80.46 7.52996 80.24 7.41996C80.18 7.38996 80.12 7.35996 80.06 7.32996C79.93 7.26996 79.8 7.20996 79.66 7.14996C79.65 7.13996 79.64 7.13996 79.62 7.12996C79.07 6.90996 78.48 6.67996 77.86 6.44996C77.75 6.40996 77.65 6.36996 77.54 6.32996C75.63 5.60996 73.53 4.85996 71.67 4.23996C71.64 4.22996 71.62 4.21996 71.59 4.20996C71.6 4.20996 71.61 4.21996 71.62 4.21996C73.61 4.99996 75.47 6.20996 77.11 7.83996Z" fill="url(#paint12_linear_205_15)"/>
<path d="M121.62 126.9C121.56 123.29 121.04 119.62 120 116.07C119.31 113.68 118.4 111.34 117.25 109.08C111.63 98.02 101.95 92.08 92.54 92.67C92.24 92.7 91.93 92.71 91.64 92.75C91.86 92.74 92.07 92.74 92.44 92.72C92.44 92.72 92.45 92.72 92.47 92.72C94.92 93.95 97.01 96.03 98.56 98.9C99.69 101.02 100.54 103.58 101.01 106.52V106.53C102.41 115.22 100.3 125.43 95.92 134.23C93.86 138.39 91.27 142.23 88.3 145.42C86.85 147 85.28 148.42 83.65 149.65C78.07 153.84 72.58 155.06 68.06 153.66C67.99 153.63 67.91 153.62 67.84 153.59C67.83 153.59 67.81 153.58 67.8 153.58C67.79 153.58 67.77 153.57 67.76 153.57C67.5 153.47 67.25 153.38 67 153.27C67.18 153.35 67.37 153.42 67.55 153.51C67.94 153.66 68.32 153.81 68.7 153.97C68.73 153.98 68.76 153.98 68.78 154C68.81 154.01 68.84 154.03 68.86 154.03C69.21 154.15 69.55 154.28 69.91 154.42C70.2 154.53 70.5 154.63 70.82 154.74C71.08 154.82 71.33 154.92 71.57 155C72.82 155.43 74.45 155.91 75.79 156.27C75.93 156.3 76.07 156.34 76.19 156.37C76.22 156.38 76.26 156.38 76.29 156.4C76.3 156.4 76.3 156.4 76.3 156.4C76.31 156.4 76.31 156.4 76.31 156.4C76.31 156.4 76.31 156.4 76.32 156.4C76.32 156.41 76.33 156.41 76.35 156.41C86.23 158.4 95.68 151.54 101.48 141C103.86 136.67 105.63 131.72 106.56 126.5C107.61 120.58 107.6 114.32 106.19 108.26V108.25C104.39 101.68 101.38 97.91 98.59 95.73C96.18 93.85 93.95 93.12 92.78 92.74C95.27 92.82 98.73 93.49 102.34 95.87C105.97 98.25 109.74 102.35 112.88 109.29V109.3C114.13 112.58 114.94 115.91 115.37 119.22C115.98 123.79 115.85 128.28 115.12 132.53C112.68 146.52 103.48 157.64 91.02 158.42C90.8 158.43 90.56 158.43 90.33 158.45H90.59C90.66 158.45 90.73 158.46 90.8 158.46H90.92C91.1 158.47 91.28 158.47 91.46 158.47L91.97 158.5C92.05 158.5 92.12 158.49 92.19 158.49C92.47 158.5 92.74 158.5 93.02 158.5C93.46 158.49 93.92 158.47 94.38 158.44C94.5 158.43 94.64 158.43 94.77 158.43C94.94 158.42 95.09 158.42 95.24 158.4C95.25 158.4 95.25 158.4 95.27 158.4H95.44C95.54 158.4 95.63 158.4 95.73 158.39H95.83C96 158.38 96.15 158.38 96.31 158.36C96.48 158.35 96.66 158.33 96.85 158.32C96.85 158.32 96.86 158.32 96.88 158.32C96.99 158.31 97.1 158.29 97.2 158.29C97.32 158.28 97.45 158.26 97.57 158.25C97.69 158.24 97.83 158.22 97.96 158.21C98.1 158.2 98.24 158.18 98.38 158.17C98.39 158.17 98.42 158.16 98.45 158.16C98.62 158.15 98.78 158.12 98.95 158.1C99.07 158.09 99.21 158.07 99.34 158.04H99.4C99.41 158.04 99.41 158.04 99.41 158.04C99.52 158.03 99.62 158.01 99.73 158C99.79 158 99.83 157.99 99.88 157.99H99.92L100.27 157.93C100.28 157.93 100.28 157.93 100.3 157.93C100.33 157.93 100.34 157.92 100.36 157.92C103.74 157.42 107.03 156.07 110.06 153.8C117.71 148.02 121.79 137.7 121.62 126.9Z" fill="url(#paint13_linear_205_15)"/>
<path d="M0.08 53.4999C0.09 53.3999 0.11 53.3099 0.12 53.2099C0.42 50.7899 1.34 48.4099 2.85 46.1499C4.16 44.1999 5.92 42.3399 8.15 40.6699C8.43 40.4599 8.73 40.2499 9.02 40.0499C10.56 38.9699 12.23 38.0299 14 37.2299C18.77 35.0599 24.28 33.8299 29.91 33.5899C32.17 33.4899 34.43 33.5499 36.69 33.7699C40.19 34.0999 43.64 34.8199 46.9 35.9099C49.6 36.8199 52.17 37.9999 54.52 39.4399C55.47 40.0099 56.36 40.6199 57.19 41.2499C58.45 42.1999 59.58 43.2299 60.58 44.2899C64.08 48.0699 65.81 52.3799 65.71 56.6699C65.7 56.7299 65.69 56.7899 65.68 56.8399L65.71 56.6699V56.8899C65.71 56.8099 65.71 56.6999 65.72 56.6299C66.66 51.2799 65.14 45.5199 61.21 40.4099C60.2 39.0799 59.02 37.8099 57.7 36.5899C56.87 35.8399 56 35.1199 55.06 34.3999V34.3899H55.05C52.49 32.4899 49.68 30.9199 46.72 29.6699C42.91 28.0799 38.87 27.0399 34.81 26.5699C27.1 25.6599 19.31 26.7799 13.03 29.9899C11.6 30.7199 10.25 31.5499 9 32.4899C7.28 33.7799 5.86 35.1899 4.68 36.6999C2.84 39.0799 1.66 41.6799 1.11 44.4099C1.1 44.4499 1.08 44.5099 1.07 44.5599L0.95 45.3599C0.84 46.0099 0.71 46.6599 0.62 47.3099C0.58 47.6299 0.54 47.9499 0.5 48.2399C0.49 48.3899 0.47 48.5599 0.46 48.7199C0.35 49.6099 0.27 50.4899 0.18 51.3899C0.17 51.5399 0.17 51.7099 0.15 51.8599C0.12 52.1099 0.11 52.3599 0.09 52.6199C0.09 52.6799 0.08 52.7399 0.08 52.7999V52.9499C0.07 53.1699 0.05 53.4099 0.04 53.6399C0.03 53.8299 0.03 54.0399 0.01 54.2599C0.01 54.5899 0 54.9499 0 55.2999C0.01 54.9999 0.03 54.6799 0.04 54.3499C0.06 54.0999 0.07 53.7899 0.08 53.4999Z" fill="url(#paint14_linear_205_15)"/>
</g>
<defs>
<linearGradient id="paint0_linear_205_15" x1="59.3294" y1="53.9605" x2="18.54" y2="63.8089" gradientUnits="userSpaceOnUse">
<stop stop-color="#C3BDFF"/>
<stop offset="0.541667" stop-color="#F8D8FA"/>
<stop offset="1" stop-color="#FFDEC1"/>
</linearGradient>
<linearGradient id="paint1_linear_205_15" x1="22.1458" y1="117.215" x2="22.1414" y2="117.216" gradientUnits="userSpaceOnUse">
<stop stop-color="#C3BDFF"/>
<stop offset="0.541667" stop-color="#F8D8FA"/>
<stop offset="1" stop-color="#FFDEC1"/>
</linearGradient>
<linearGradient id="paint2_linear_205_15" x1="79.4942" y1="70.242" x2="31.8011" y2="83.1632" gradientUnits="userSpaceOnUse">
<stop stop-color="#C3BDFF"/>
<stop offset="0.541667" stop-color="#F8D8FA"/>
<stop offset="1" stop-color="#FFDEC1"/>
</linearGradient>
<linearGradient id="paint3_linear_205_15" x1="106.568" y1="24.7324" x2="106.424" y2="24.7696" gradientUnits="userSpaceOnUse">
<stop stop-color="#C3BDFF"/>
<stop offset="0.541667" stop-color="#F8D8FA"/>
<stop offset="1" stop-color="#FFDEC1"/>
</linearGradient>
<linearGradient id="paint4_linear_205_15" x1="114.614" y1="153.768" x2="113.97" y2="154.089" gradientUnits="userSpaceOnUse">
<stop stop-color="#C3BDFF"/>
<stop offset="0.541667" stop-color="#F8D8FA"/>
<stop offset="1" stop-color="#FFDEC1"/>
</linearGradient>
<linearGradient id="paint5_linear_205_15" x1="91.2074" y1="92.7995" x2="91.1549" y2="92.8928" gradientUnits="userSpaceOnUse">
<stop stop-color="#C3BDFF"/>
<stop offset="0.541667" stop-color="#F8D8FA"/>
<stop offset="1" stop-color="#FFDEC1"/>
</linearGradient>
<linearGradient id="paint6_linear_205_15" x1="45.2387" y1="38.5961" x2="10.7432" y2="46.6601" gradientUnits="userSpaceOnUse">
<stop stop-color="#C3BDFF"/>
<stop offset="0.541667" stop-color="#F8D8FA"/>
<stop offset="1" stop-color="#FFDEC1"/>
</linearGradient>
<linearGradient id="paint7_linear_205_15" x1="91.3628" y1="95.5572" x2="46.1494" y2="109.996" gradientUnits="userSpaceOnUse">
<stop stop-color="#C3BDFF"/>
<stop offset="0.541667" stop-color="#F8D8FA"/>
<stop offset="1" stop-color="#FFDEC1"/>
</linearGradient>
<linearGradient id="paint8_linear_205_15" x1="85.5" y1="83" x2="116.783" y2="1.62379" gradientUnits="userSpaceOnUse">
<stop stop-color="#C3BDFF"/>
<stop offset="0.956776" stop-color="#F8D8FA"/>
<stop offset="1" stop-color="#FFDEC1"/>
</linearGradient>
<linearGradient id="paint9_linear_205_15" x1="102.839" y1="116.523" x2="61.3336" y2="129.332" gradientUnits="userSpaceOnUse">
<stop stop-color="#C3BDFF"/>
<stop offset="0.541667" stop-color="#F8D8FA"/>
<stop offset="1" stop-color="#FFDEC1"/>
</linearGradient>
<linearGradient id="paint10_linear_205_15" x1="115.778" y1="153.169" x2="115.704" y2="153.201" gradientUnits="userSpaceOnUse">
<stop stop-color="#C3BDFF"/>
<stop offset="0.541667" stop-color="#F8D8FA"/>
<stop offset="1" stop-color="#FFDEC1"/>
</linearGradient>
<linearGradient id="paint11_linear_205_15" x1="23.2506" y1="10.0414" x2="22.6186" y2="10.2654" gradientUnits="userSpaceOnUse">
<stop stop-color="#C3BDFF"/>
<stop offset="0.541667" stop-color="#F8D8FA"/>
<stop offset="1" stop-color="#FFDEC1"/>
</linearGradient>
<linearGradient id="paint12_linear_205_15" x1="67" y1="66" x2="12.2604" y2="12.8765" gradientUnits="userSpaceOnUse">
<stop stop-color="#C3BDFF"/>
<stop offset="0.717343" stop-color="#F8D8FA"/>
<stop offset="1" stop-color="#FFDEC1"/>
</linearGradient>
<linearGradient id="paint13_linear_205_15" x1="98.0862" y1="124.988" x2="73.5581" y2="129.608" gradientUnits="userSpaceOnUse">
<stop stop-color="#C3BDFF"/>
<stop offset="0.541667" stop-color="#F8D8FA"/>
<stop offset="1" stop-color="#FFDEC1"/>
</linearGradient>
<linearGradient id="paint14_linear_205_15" x1="37.5537" y1="41.3092" x2="12.7996" y2="53.4231" gradientUnits="userSpaceOnUse">
<stop stop-color="#C3BDFF"/>
<stop offset="0.541667" stop-color="#F8D8FA"/>
<stop offset="1" stop-color="#FFDEC1"/>
</linearGradient>
<clipPath id="clip0_205_15">
<rect width="145.09" height="158.51" fill="white"/>
</clipPath>
</defs>
</svg>
