<svg width="14" height="18" viewBox="0 0 14 18" fill="none" xmlns="http://www.w3.org/2000/svg">
<path d="M8.3999 5.89095H11.3446H13.5441L8.3999 0.479492V2.79331V5.89095Z" fill="#F3BA2F"/>
<path d="M0 1.8V16.0909C0 17.1453 0.812518 18 1.81481 18H12.1593C13.1761 18 14 17.1333 14 16.0636V7.52727H12.4444H11.3447H7.62222C7.19289 7.52727 6.84444 7.16073 6.84444 6.70909V2.79327V1.63636V0H1.71111C0.765852 0 0 0.805636 0 1.8ZM4.40741 9.81818H9.59259C10.0219 9.81818 10.3704 10.1847 10.3704 10.6364C10.3704 11.088 10.0219 11.4545 9.59259 11.4545H4.40741C3.97807 11.4545 3.62963 11.088 3.62963 10.6364C3.62963 10.1847 3.97807 9.81818 4.40741 9.81818ZM4.40741 13.0909H9.59259C10.0219 13.0909 10.3704 13.4575 10.3704 13.9091C10.3704 14.3607 10.0219 14.7273 9.59259 14.7273H4.40741C3.97807 14.7273 3.62963 14.3607 3.62963 13.9091C3.62963 13.4575 3.97807 13.0909 4.40741 13.0909Z" fill="#F3BA2F"/>
</svg>
