<svg width="84" height="83" viewBox="0 0 84 83" fill="none" xmlns="http://www.w3.org/2000/svg">
<ellipse cx="41.7516" cy="41.1083" rx="41.6827" ry="40.9249" fill="#7764FA"/>
<path d="M32.3263 49.6864C29.7408 49.6864 27.5973 48.8345 25.8959 47.1302C24.1939 45.4264 23.3433 43.3185 23.3433 40.8068C23.3433 38.2956 24.1939 36.1877 25.8959 34.4834C27.5973 32.7793 29.7406 31.9269 32.3263 31.9269C33.8807 31.9269 35.3167 32.2938 36.634 33.0278C37.9509 33.7616 38.9779 34.7566 39.7142 36.0122L37.2597 37.4311C36.8014 36.5833 36.1343 35.9106 35.2592 35.413C34.3836 34.9155 33.4062 34.667 32.3261 34.667C30.4935 34.667 29.0085 35.2461 27.8713 36.4037C26.7337 37.5618 26.1655 39.0296 26.1655 40.807C26.1655 42.5847 26.7337 44.0525 27.8713 45.2103C29.0083 46.3684 30.4933 46.9469 32.3261 46.9469C33.4062 46.9469 34.3878 46.6984 35.2715 46.2009C36.1551 45.7039 36.8179 45.0312 37.2597 44.1828L39.7142 45.5772C38.994 46.8333 37.9753 47.8318 36.6584 48.5738C35.3412 49.3157 33.8971 49.6864 32.3263 49.6864Z" fill="white" stroke="white" stroke-width="0.4"/>
<path d="M60.1119 40.8066C60.1119 43.09 59.3592 45.0631 57.8541 46.7265L59.6703 48.5855L57.682 50.3713L55.7921 48.4388C54.3521 49.2704 52.8223 49.6862 51.2022 49.6862C48.7313 49.6862 46.6287 48.8263 44.8942 47.1054C43.1597 45.3849 42.2925 43.2856 42.2925 40.8064C42.2925 38.3277 43.1597 36.228 44.8942 34.5073C46.6287 32.7872 48.7313 31.9269 51.2022 31.9269C53.6727 31.9269 55.7755 32.7872 57.5102 34.5077C59.2444 36.2284 60.1119 38.3279 60.1119 40.8066ZM51.2022 46.9465C52.1185 46.9465 52.9775 46.7593 53.7793 46.384L50.6376 43.1796L52.6256 41.3938L55.9147 44.745C56.8308 43.6197 57.2891 42.3073 57.2891 40.8066C57.2891 39.0617 56.7002 37.6021 55.5221 36.4278C54.3439 35.2537 52.9038 34.6668 51.2022 34.6668C49.5002 34.6668 48.0605 35.2537 46.8824 36.4278C45.7043 37.6021 45.1151 39.0617 45.1151 40.8066C45.1151 42.5518 45.7043 44.011 46.8824 45.1853C48.0605 46.3596 49.5002 46.9465 51.2022 46.9465Z" fill="white" stroke="white" stroke-width="0.4"/>
<path d="M15.5629 32.2446H12.1759L8.99836 40.9719C8.89041 41.2686 8.90824 41.5963 9.04884 41.879C9.40494 42.5942 10.0088 43.0911 11.1462 43.2729L13.8691 35.547L16.5936 43.2771L11.1468 43.2647C11.15 43.2653 11.1436 43.2643 11.1468 43.2647L11.0178 43.3276C9.92589 43.5787 8.94689 44.1143 8.13433 44.8423C7.59877 45.3221 7.19339 45.9292 6.94764 46.6039L5.94141 49.3681H9.00958L10.2123 45.919H17.5265L18.729 49.3681H21.7726L15.5629 32.2446Z" fill="white" stroke="white" stroke-width="0.4"/>
<path d="M70.7158 43.2574C70.3795 43.159 70.1748 43.1221 70.1748 43.1221C70.1748 43.1221 72.116 43.0574 73.3944 42.5498C74.2396 42.1387 74.938 41.5373 75.489 40.7454C76.1187 39.8404 76.4339 38.8415 76.4339 37.7488C76.4339 36.2162 75.8978 34.9153 74.8264 33.847C73.7545 32.779 72.4495 32.2446 70.9115 32.2446H64.0391V49.3682H66.8617V43.1304H70.1996L73.8324 49.3682H76.925L75.5605 47.0417C74.4872 45.2122 72.7561 43.854 70.7158 43.2574ZM66.8615 34.8867H70.9115C71.6639 34.8867 72.3022 35.1644 72.8258 35.7185C73.3493 36.2731 73.6113 36.95 73.6113 37.7488C73.6113 38.5481 73.3493 39.225 72.8258 39.7791C72.302 40.3338 71.6637 40.6109 70.9115 40.6109H66.8615V34.8867Z" fill="white" stroke="white" stroke-width="0.4"/>
</svg>
