<svg width="135" height="35" viewBox="0 0 135 35" fill="none" xmlns="http://www.w3.org/2000/svg">
<g clip-path="url(#clip0_93_297)">
<path d="M50.0693 33.7004C45.1631 33.7004 41.0957 32.0837 37.8671 28.8496C34.6373 25.6167 33.0232 21.6167 33.0232 16.8504C33.0232 12.0852 34.6373 8.08523 37.8671 4.85114C41.0957 1.61742 45.1627 0 50.0693 0C53.019 0 55.744 0.696212 58.2436 2.08902C60.7425 3.48144 62.6915 5.3697 64.0886 7.75227L59.431 10.4447C58.5614 8.83598 57.2954 7.55947 55.6349 6.61515C53.9733 5.67121 52.1186 5.19962 50.0689 5.19962C46.5914 5.19962 43.7736 6.29849 41.6156 8.49508C39.4569 10.6928 38.3786 13.478 38.3786 16.8508C38.3786 20.2242 39.4569 23.0095 41.6156 25.2064C43.7732 27.4042 46.591 28.5019 50.0689 28.5019C52.1186 28.5019 53.9813 28.0303 55.6581 27.0864C57.3349 26.1432 58.5925 24.8667 59.431 23.2568L64.0886 25.9027C62.7219 28.2864 60.7889 30.1811 58.29 31.589C55.7904 32.997 53.0501 33.7004 50.0693 33.7004Z" fill="white"/>
<path d="M102.793 16.85C102.793 21.183 101.364 24.9273 98.5083 28.0837L101.955 31.6114L98.1819 35L94.5956 31.333C91.863 32.911 88.9601 33.7 85.8858 33.7C81.197 33.7 77.2071 32.0682 73.9158 28.8027C70.6244 25.5379 68.9788 21.5542 68.9788 16.8496C68.9788 12.1462 70.6244 8.16174 73.9158 4.89659C77.2071 1.63258 81.197 0 85.8858 0C90.5738 0 94.5641 1.63258 97.8558 4.89735C101.147 8.1625 102.793 12.1466 102.793 16.85ZM85.8858 28.5011C87.6245 28.5011 89.2546 28.1458 90.776 27.4337L84.8144 21.353L88.5869 17.9644L94.8282 24.3235C96.5666 22.1883 97.4362 19.6977 97.4362 16.85C97.4362 13.539 96.3188 10.7693 94.0833 8.54091C91.8474 6.31288 89.1148 5.19924 85.8858 5.19924C82.656 5.19924 79.9241 6.31288 77.6886 8.54091C75.4531 10.7693 74.335 13.539 74.335 16.85C74.335 20.1617 75.4531 22.9307 77.6886 25.1591C79.9241 27.3875 82.656 28.5011 85.8858 28.5011Z" fill="white"/>
<path d="M18.2577 0.603516H11.8305L5.80087 17.1645C5.59601 17.7274 5.62984 18.3493 5.89664 18.8857C6.57239 20.2429 7.71827 21.1857 9.87664 21.5308L15.0436 6.87018L20.2135 21.5387L9.87778 21.5153C9.88386 21.5164 9.8717 21.5145 9.87778 21.5153L9.63302 21.6346C7.56093 22.1111 5.70319 23.1274 4.16129 24.5088C3.145 25.4194 2.37576 26.5713 1.90943 27.8516L0 33.0971H5.82215L8.10442 26.552H21.9839L24.2657 33.0971H30.0411L18.2577 0.603516Z" fill="white"/>
<path d="M122.915 21.5008C122.276 21.314 121.888 21.2439 121.888 21.2439C121.888 21.2439 125.572 21.1212 127.998 20.158C129.601 19.378 130.927 18.2367 131.972 16.7341C133.167 15.0167 133.765 13.1212 133.765 11.0477C133.765 8.13939 132.748 5.67083 130.715 3.64356C128.681 1.61704 126.204 0.603027 123.286 0.603027H110.245V33.0966H115.601V21.2598H121.935L128.829 33.0966H134.697L132.108 28.6818C130.071 25.2102 126.786 22.633 122.915 21.5008ZM115.601 5.61666H123.286C124.714 5.61666 125.925 6.14356 126.919 7.19507C127.912 8.24735 128.409 9.53182 128.409 11.0477C128.409 12.5644 127.912 13.8489 126.919 14.9004C125.925 15.953 124.713 16.4788 123.286 16.4788H115.601V5.61666Z" fill="white"/>
</g>
<defs>
<clipPath id="clip0_93_297">
<rect width="134.697" height="35" fill="white"/>
</clipPath>
</defs>
</svg>
