<svg width="398" height="132" viewBox="0 0 398 132" fill="none" xmlns="http://www.w3.org/2000/svg">
<path d="M377.16 98.6968C379.413 97.8309 381.017 96.7097 382.722 95.5219C383.133 95.2332 383.556 94.9335 383.979 94.6449C388.843 91.3589 391.991 87.6178 394.654 84.0655C395.674 82.7 396.035 81.2457 396.408 79.6916C396.632 78.748 396.869 77.7822 397.267 76.8053L397.441 76.3834L397.528 76.339C398.486 74.5073 397.814 72.6756 397.03 70.5664C396.993 70.4554 396.956 70.3555 396.918 70.2445H396.371V69.2343C395.699 65.9594 393.024 62.9954 390.2 59.8649L389.963 59.5984C388.557 58.0332 386.392 56.7343 384.116 55.3689C382.461 54.3698 380.744 53.3374 379.3 52.1718C377.944 51.5945 376.663 50.9728 375.419 50.3623C373.391 49.3743 371.475 48.4418 369.235 47.6758C367.617 47.1207 365.888 46.6212 364.221 46.1327C363.089 45.8108 361.956 45.4777 360.849 45.1336C357.179 43.9791 353.583 42.9911 349.85 42.0808C342.597 40.3157 334.634 38.8725 325.539 37.6514C322.316 37.2185 318.994 36.9409 315.784 36.6745L311.069 36.2749C304.811 35.7309 298.353 35.1758 291.871 35.2758C290.179 35.298 288.474 35.298 286.77 35.3091L281.669 35.3202C275.472 35.3313 269.077 35.3535 262.819 35.7864C252.517 36.508 243.41 37.496 234.974 38.817C234.426 38.9058 233.891 39.0058 233.356 39.1168C232.436 39.3055 231.478 39.4831 230.47 39.5719C227.745 39.7828 225.244 40.2158 222.843 40.8707L222.731 40.904C222.196 41.0595 221.586 41.226 220.915 41.2926C216.05 41.7699 211.558 42.6802 206.606 43.746C202.563 44.6118 198.892 45.4333 195.396 46.2881C192.87 47.5759 190.332 48.8747 187.807 50.1624L185.057 51.5612L186.027 51.4391L182.718 55.9795C182.78 56.0017 182.855 56.0239 182.942 56.035C184.447 56.3125 186.127 56.3014 187.545 56.0128L188.267 55.8684L188.752 56.368C188.789 56.4013 189.001 56.479 189.312 56.479C189.511 56.479 189.698 56.4457 189.835 56.3902C194.214 54.5141 199.676 53.3263 205.636 52.971C206.42 52.8156 207.191 52.6491 207.962 52.4937C209.617 52.1385 211.334 51.7721 213.113 51.539C214.494 51.3503 215.714 50.9728 217.02 50.5621C218.7 50.0292 220.442 49.4853 222.557 49.3743C223.577 48.908 224.747 48.7304 225.891 48.5528C227.011 48.3862 228.069 48.2197 228.753 47.8201L229.064 47.6314H229.437L233.63 47.5537C234.961 46.7988 236.467 46.9209 237.811 47.0208C238.084 47.043 238.371 47.0652 238.644 47.0763C238.644 47.0763 238.794 47.043 239.192 46.8654C240.137 46.4324 241.182 46.3325 242.19 46.2437C242.999 46.166 243.758 46.0994 244.343 45.8552C245.015 45.5777 245.823 45.6221 246.595 45.6554C247.03 45.6776 247.491 45.6998 247.802 45.6554C248.847 45.511 249.917 45.4333 250.949 45.3667C252.753 45.2446 254.47 45.1225 255.988 44.6562L256.362 44.6007C256.586 44.6007 256.822 44.6007 257.071 44.6118C257.257 44.6229 257.544 44.634 257.693 44.6229C259.385 43.7904 261.276 43.746 263.118 43.7127C263.454 43.7015 263.802 43.7015 264.138 43.6793C266.004 43.6016 268.02 43.7238 270.272 44.0346C271.255 44.1678 272.225 44.0346 273.233 43.8792C274.29 43.7238 275.385 43.5683 276.58 43.7015C278.11 43.8681 279.628 43.8126 281.233 43.746C282.141 43.7127 283.05 43.6793 283.97 43.6793C284.493 43.6793 285.003 43.6793 285.526 43.6682C286.956 43.6571 288.437 43.6349 289.88 43.746C292.53 43.9458 295.243 44.0901 297.868 44.2344C301.277 44.4231 304.798 44.6007 308.257 44.9227L310.198 45.1003C316.73 45.6887 323.486 46.2992 329.931 47.4538C330.466 47.5537 331.063 47.5981 331.685 47.6425C331.971 47.6647 332.245 47.6869 332.531 47.7091L332.705 47.7313L341.265 49.6407L345.023 50.3734L341.017 48.2863L349.029 50.662H352.662L351.045 51.2615L352.575 51.7166C353.521 52.0163 354.218 52.4493 354.827 52.8267C355.275 53.1043 355.686 53.3707 356.171 53.5483L357.639 54.1034C361.098 55.4133 364.669 56.7676 367.257 58.7881C369.459 59.5762 370.753 60.7197 372.01 61.8298C372.358 62.1406 372.706 62.4514 373.079 62.7512C374.597 63.9723 375.829 65.2711 377.024 66.5256C377.633 67.1694 378.243 67.8133 378.902 68.4461L379.201 68.7125L379.238 69.1122C379.251 69.3009 379.251 69.4896 379.251 69.6894C379.251 69.8226 379.238 70.0225 379.263 70.078C380.358 71.7209 380.445 73.4083 380.383 74.8626L382.747 75.1734L380.769 76.7498C380.657 76.8386 380.52 76.9385 380.42 77.0273C380.545 78.0264 380.532 79.514 378.703 80.7906C377.982 81.2902 377.608 81.9118 377.185 82.6334C376.837 83.2107 376.451 83.8656 375.854 84.4873C374 86.3856 371.947 88.2062 369.558 90.0601C368.936 90.5374 368.352 91.037 367.767 91.5254C366.373 92.6911 364.943 93.9011 363.064 94.9557C362.056 96.2323 360.339 97.0982 357.851 97.5978C357.067 97.8753 356.432 98.275 355.748 98.6857C354.852 99.2297 353.844 99.8513 352.451 100.229C352.289 100.295 352.289 100.329 352.277 100.373L352.102 101.117L351.256 101.25C351.07 101.283 350.858 101.306 350.647 101.317C350.435 101.339 350.112 101.372 350.012 101.406C349.154 101.894 348.059 102.16 347.001 102.416C345.993 102.66 345.048 102.893 344.475 103.293L344.065 103.581L343.542 103.515C342.348 103.37 341.987 103.67 341.502 104.192C340.793 104.969 339.648 105.457 337.919 105.735C336.314 105.979 334.995 106.29 333.999 106.656C333.887 106.701 333.788 106.767 333.614 106.912C333.153 107.267 332.444 107.811 330.926 107.811C330.926 107.811 330.926 107.811 330.914 107.811C330.528 107.811 330.155 107.955 329.682 108.144C329.06 108.388 328.276 108.699 327.256 108.721C326.796 108.732 326.584 108.932 326.509 109.021C325.974 109.643 324.718 110.608 322.229 110.142C321.06 109.92 319.828 109.987 319.169 110.32L318.895 110.464C318.198 110.819 317.476 111.186 316.183 111.252C315.884 111.274 315.66 111.385 315.249 111.596C314.764 111.852 314.179 112.163 313.321 112.251V114.294L311.604 112.762L308.431 113.706L309.14 113.073C307.249 113.905 304.935 114.449 301.986 114.738C301.451 114.794 301.041 114.971 300.618 115.326L300.282 115.615L298.652 115.704C297.594 116.392 296.251 116.359 295.131 116.337C294.384 116.314 293.6 116.303 293.202 116.514L293.09 116.57C291.722 117.136 290.191 117.447 288.698 117.758C287.628 117.98 286.62 118.19 285.687 118.479C285.152 118.845 284.505 118.868 284.082 118.879C283.995 118.879 283.921 118.879 283.833 118.89C283.41 118.956 282.863 119.023 282.253 119.012C282.179 119.012 282.129 119.034 282.129 119.034L281.955 119.145L281.756 119.19C280.823 119.401 279.927 119.623 279.329 119.978L279.043 120.144L277.563 120.211L276.953 120.033C276.393 119.867 275.933 119.734 275.435 119.756C275.273 119.822 275.161 119.867 275.074 119.911L275.099 120.699L273.855 120.733C269.712 120.821 265.519 121.166 261.475 121.488C260.405 121.576 259.348 121.665 258.278 121.743L257.058 121.765C256.436 122.187 255.652 122.32 254.993 122.442C254.707 122.487 254.408 122.542 254.159 122.62L253.575 122.809L253.052 122.498C248.673 122.265 244.368 122.82 240.2 123.353C239.391 123.452 238.595 123.563 237.786 123.652C237.077 124.618 235.496 124.651 234.576 124.662L233.755 124.685L233.419 124.485C233.133 124.318 232.697 124.218 232.013 124.185C231.005 124.13 230.034 124.263 229.014 124.396C228.293 124.485 227.559 124.585 226.787 124.618L226.314 124.64L225.742 124.23C225.282 123.885 225.12 123.797 224.995 123.841C223.789 124.207 222.395 124.529 220.84 123.952C220.205 124.074 219.558 124.096 218.936 124.13C218.103 124.163 217.331 124.196 216.834 124.452C215.502 125.162 214.358 124.907 213.624 124.563L213.549 124.529C212.802 124.429 212.043 124.318 211.297 124.207C208.92 123.841 206.668 123.497 204.23 123.697C202.861 123.808 201.443 123.763 200.261 123.586C198.258 123.286 196.23 123.275 194.102 123.264H193.604C191.887 123.253 190.158 123.264 188.441 123.275C183.825 123.308 179.047 123.33 174.344 122.953C173.125 123.153 171.955 123.042 170.811 122.931C169.492 122.809 168.248 122.698 167.14 123.086C165.834 123.552 164.279 122.897 163.98 122.764C162.4 122.043 160.658 121.998 158.493 122.62L157.946 122.775L157.448 122.498C157.038 122.276 156.901 122.265 156.888 122.265C154.997 122.709 153.429 122.542 151.949 121.732C151.65 121.565 150.879 121.643 150.257 121.71L149.597 121.765L149.46 121.754C148.552 121.654 147.793 121.432 147.047 121.221C146.313 121.01 145.603 120.799 144.82 120.744C140.664 120.433 136.483 120.033 132.938 119.678C131.805 119.567 130.661 119.456 129.528 119.356C125.858 119.012 122.076 118.657 118.393 118.068C113.914 117.347 109.261 116.736 104.557 116.226C100.999 115.837 97.6024 115.182 94.3053 114.549C92.9989 114.294 91.6925 114.039 90.3736 113.806C87.5244 113.295 84.7374 112.684 82.1122 112.107L81.2537 111.918C79.263 111.485 77.2101 111.03 75.3189 110.442C73.5646 109.898 71.7107 109.409 69.9191 108.943L68.8117 108.655C66.6966 108.1 64.6561 107.467 63.1009 106.978C62.3668 106.745 61.6701 106.49 60.9609 106.235C59.8535 105.835 58.796 105.457 57.6638 105.18C53.6823 104.192 50.2857 102.749 47.001 101.339C45.6199 100.751 44.1891 100.14 42.7459 99.5738C38.7769 98.0307 35.2558 96.1324 31.996 94.3118C30.0302 93.2128 28.4003 92.0583 26.6335 90.7817C24.7673 89.4273 23.3489 88.1174 22.2664 86.7852C20.002 83.9766 17.862 80.9127 17.5385 77.4269C17.526 77.3492 17.4141 77.1161 17.3394 76.9718C17.0906 76.4944 16.7671 75.8395 17.0284 75.0846C17.3145 74.2631 17.526 73.4305 17.75 72.5535C18.2352 70.6774 18.7453 68.7347 19.9771 66.8142C22.9632 62.1517 26.2354 58.5993 30.2541 55.6353C30.8389 55.2024 31.4237 54.7694 31.996 54.3365C34.6337 52.3494 37.3709 50.3068 40.7054 48.5306C41.4643 48.1198 42.2606 47.7313 43.0569 47.3427C44.4504 46.6656 45.7693 46.0217 46.9015 45.289C50.2484 43.1354 54.1551 41.2704 58.8333 39.5941C59.443 39.3721 59.7913 39.0613 60.2392 38.6727C60.5627 38.3952 60.9235 38.0732 61.3963 37.7846C62.0931 37.3628 62.9267 37.2407 63.7354 37.1074C64.2953 37.0186 65.0045 36.9076 65.2409 36.7189C66.4478 35.7198 68.115 35.1536 69.7324 34.5986C70.143 34.4543 70.5536 34.321 70.9518 34.1767L71.4121 34.0102C73.3406 33.2997 75.3313 32.5671 77.6082 32.0897C79.0017 31.2127 80.7436 30.6688 82.4232 30.147C83.7172 29.7363 84.9489 29.3588 85.9692 28.8482C86.5788 28.5262 87.3254 28.4041 87.9848 28.3042C88.4451 28.2265 89.0797 28.1266 89.2414 27.9823C90.0377 27.3606 90.9211 27.3717 91.5681 27.3717C91.7422 27.3717 92.0035 27.3717 92.0906 27.3495C93.4095 26.6279 95.0394 26.2505 97.1545 26.195C97.59 26.1839 98.1125 26.0396 98.5231 25.9175C99.2323 25.7176 99.929 25.4956 100.638 25.2847C102.057 24.8406 103.537 24.3744 105.117 24.0747C105.963 23.9081 106.76 23.6528 107.593 23.3642C109.211 22.8313 111.04 22.2208 113.391 22.3762C113.404 22.3762 113.441 22.3651 113.478 22.3651C114.76 21.5547 116.365 21.2439 117.92 20.9441C118.841 20.7665 119.712 20.6 120.458 20.3447L120.794 20.2781C121.304 20.2337 121.827 20.2448 122.325 20.2559C123.519 20.2781 124.253 20.267 124.502 19.8784C124.776 19.4455 125.398 18.957 126.841 19.068C128.272 19.179 129.466 19.0347 130.586 18.624C131.32 18.3575 132.751 17.9024 134.082 17.969C135.239 18.0245 135.675 17.7359 136.372 17.2585C136.546 17.1475 136.707 17.0254 136.894 16.9144L137.305 16.6591L137.802 16.7257C140.502 17.1031 142.269 16.9366 143.712 16.1928C144.334 15.8709 145.243 15.6489 145.977 15.6822C147.905 15.7266 149.672 15.4379 151.551 15.1271C152.409 14.9828 153.268 14.8496 154.139 14.7386L154.251 14.7275L154.711 14.7497L155.171 14.6942L155.283 14.7053C156.017 14.7386 156.913 14.783 157.336 14.5942C158.394 14.128 159.538 13.9615 160.646 13.8061C161.056 13.7506 161.467 13.684 161.865 13.6173C165.224 12.9846 168.074 12.6182 170.823 12.4628C171.52 12.4295 172.204 12.2741 172.926 12.1298C174.058 11.8856 175.352 11.6191 176.795 11.7634C177.691 11.8523 178.5 11.6746 179.433 11.4748C180.441 11.2528 181.598 11.0086 182.954 11.1085C184.397 11.2195 186.177 11.0308 187.172 10.6533C188.254 10.2426 189.337 10.2093 190.295 10.176C190.942 10.1538 191.539 10.1427 192.074 10.0095L192.485 9.90955C194.139 9.49881 196.168 8.98815 198.395 9.4655C199.029 8.76613 200.124 8.59961 201.679 8.96595C202.737 9.22128 203.745 9.27678 204.765 9.13247C210.252 8.38869 215.788 8.25547 219.994 8.22217C220.38 8.22217 220.765 8.22217 221.151 8.23327C222.37 8.25547 223.527 8.27768 224.485 7.94464L224.684 7.87803L227.72 7.80032L227.87 7.82253C229.039 8.04455 230.296 8.02235 231.938 7.77812C232.125 7.74482 232.311 7.71152 232.51 7.67821C233.232 7.5339 234.14 7.35628 235.136 7.5783C236.156 7.81143 237.251 7.77812 238.395 7.74482C238.893 7.73372 239.378 7.72262 239.864 7.72262C243.26 7.75592 246.644 7.75592 250.029 7.74482C255.777 7.73372 261.724 7.73372 267.584 7.91134C268.567 7.94464 269.55 8.01125 270.533 8.08896C272.312 8.22217 273.992 8.34428 275.709 8.22217C278.558 8.02235 281.046 8.11116 283.323 8.4775C283.597 8.5219 283.933 8.533 284.281 8.5441C284.53 8.55521 284.767 8.55521 285.003 8.57741C286.496 8.67732 288.051 8.72172 289.557 8.76613C293.202 8.86604 296.972 8.96595 300.518 9.90955C300.916 10.0206 301.451 10.0761 301.974 10.0872C306.652 10.1427 311.318 10.8754 316.232 12.3296L316.444 12.3962L316.618 12.5183C317.066 12.8403 317.912 12.8403 318.808 12.8403C318.907 12.8403 318.994 12.8403 319.094 12.8403L319.878 12.3851L320.425 13.2177C320.463 13.2177 320.5 13.2288 320.55 13.2288L320.798 13.2621C321.819 13.473 322.864 13.6617 323.909 13.8505C326.372 14.2945 328.911 14.7497 331.088 15.5267C333.34 16.326 334.709 16.326 336.513 15.5045C336.687 15.4268 336.898 15.3602 337.11 15.3047C337.185 15.2825 337.259 15.2714 337.321 15.2381C338.391 14.783 339.262 15.0494 339.847 15.227C339.971 15.2603 340.083 15.3047 340.208 15.3269L341.353 15.5712L340.967 15.0161C340.643 14.8385 340.233 14.672 339.81 14.4943C338.839 14.0836 337.757 13.6395 337.11 12.8181C336.363 12.5516 335.617 12.2852 334.858 12.0299C333.203 11.4637 331.486 10.8754 329.894 10.1649C328.45 9.52101 326.982 8.93265 325.166 8.98815L325.141 7.90024L324.581 8.86604L324.556 8.85494H324.544L323.897 8.5219C323.834 8.4997 323.785 8.4775 323.722 8.45529C320.91 7.67821 317.887 7.07875 314.963 6.49039C312.811 6.05744 310.584 5.61339 308.431 5.10274C308.133 5.03613 307.747 4.98062 307.349 4.96952C305.98 4.91402 304.711 4.70309 303.492 4.50327C302.944 4.41446 302.397 4.32565 301.849 4.24795C297.445 3.63738 292.742 3.00461 287.977 2.49396C286.048 2.28304 284.057 2.13872 282.141 1.99441C279.864 1.82789 277.5 1.65027 275.211 1.37274C271.031 0.873187 266.701 0.751074 262.52 0.628961C260.828 0.584556 259.136 0.52905 257.444 0.462443C256.685 0.429139 255.926 0.429139 255.167 0.429139C253.923 0.429139 252.629 0.429139 251.36 0.284824C249.008 0.040598 246.707 0.0294969 244.268 0.0183957H244.131C242.526 0.00729449 240.921 0.0183957 239.316 0.0294969C236.629 0.040598 233.854 0.0628004 231.129 0.0072945C228.952 -0.0371102 226.75 0.129407 224.622 0.284824C222.569 0.440241 220.442 0.584556 218.302 0.573455C215.813 0.551252 213.586 0.628961 211.508 0.80658C207.589 1.13962 203.595 1.40604 199.738 1.67247L195.446 1.9611C189.922 2.34964 183.502 2.82699 177.355 3.68179C169.343 4.7919 161.243 6.01303 153.405 7.18976L151.14 7.5339C149.348 7.80032 147.557 8.13336 145.815 8.45529C144.994 8.61071 144.185 8.75503 143.364 8.89934L143.14 8.92155C141.697 8.94375 140.34 8.96595 139.283 9.38779C138.648 9.64312 137.877 9.93175 136.819 9.98726C135.725 10.0539 134.667 10.2204 133.56 10.4091C132.067 10.6533 130.524 10.9198 128.807 10.8976C127.948 10.8754 127.413 11.0641 127.214 11.2084L126.916 11.4304L125.796 11.5192C125.298 11.5525 124.8 11.5969 124.303 11.6524C120.62 12.1187 117.074 12.9291 113.64 13.7173C111.077 14.3056 108.439 14.9051 105.727 15.3713C105.366 15.4379 105.005 15.5712 104.607 15.7155C104.383 15.7932 104.159 15.882 103.935 15.9597C103.662 16.0485 103.388 16.1484 103.114 16.2483C102.467 16.4814 101.795 16.7146 101.036 16.8811L98.9959 17.3251C94.0813 18.402 89.005 19.5121 84.4015 21.0329C82.1993 21.7656 79.8726 22.4206 77.6331 23.0645C75.4557 23.6861 73.2162 24.33 71.0886 25.0183C63.6857 27.4494 57.6389 29.5364 52.0524 31.5791C46.4909 33.6217 40.8671 36.0639 35.3305 38.8614C24.9788 43.968 17.0284 49.2854 10.9442 55.0359C6.01724 59.6984 3.34222 64.6384 1.37639 68.8679C0.343709 71.0882 0.206847 73.375 0.057544 75.7951L0.0202182 76.4167C-0.141527 79.0144 0.667199 81.7786 2.4464 84.6205C4.44955 87.851 6.73887 91.2479 10.683 94.2341C11.952 95.1999 13.4451 96.1102 14.8883 96.9983C15.9335 97.6311 17.0035 98.2972 18.0113 98.9743C21.4577 101.317 25.4391 103.448 30.1919 105.513C31.4112 106.035 32.7177 106.534 33.9992 107.023C34.5839 107.245 35.1687 107.467 35.741 107.689L35.9401 107.789L36.2387 107.977C36.9479 108.421 37.57 108.799 38.5032 108.954L38.7147 109.01L40.0584 109.476C41.0164 109.82 41.9869 110.153 42.9823 110.464C43.7163 110.697 44.4877 110.908 45.2467 111.119C46.69 111.519 48.1706 111.929 49.477 112.484C55.4366 115.016 62.2548 116.736 68.1523 118.079C69.6951 118.435 71.213 118.812 72.7309 119.19C75.605 119.911 78.5662 120.655 81.6394 121.177C83.2942 121.454 84.9241 121.787 86.5166 122.109C88.893 122.598 91.3441 123.097 93.8076 123.397C96.8932 123.774 99.9788 124.241 102.965 124.685C106.971 125.284 111.102 125.906 115.27 126.317C120.309 126.816 125.41 127.438 130.35 128.037L134.207 128.503C137.081 128.859 140.054 129.214 143.028 129.003L146.114 128.959L146.325 129.025C147.756 129.503 149.398 129.458 151.115 129.403C151.538 129.392 151.974 129.38 152.397 129.369H152.683L152.944 129.48C153.006 129.514 153.069 129.514 153.205 129.525H153.579L153.89 129.702C154.375 129.98 155.196 129.969 156.067 129.924L156.179 129.913L156.291 129.924C159.14 130.235 162.176 130.535 165.224 130.468C165.399 130.468 165.56 130.457 165.722 130.457C166.319 130.457 166.829 130.491 167.29 130.557C172.565 131.301 178.089 131.434 183.427 131.556C186.189 131.623 189.038 131.69 191.838 131.834C195.595 132.034 199.49 132.011 203.247 131.978C205.101 131.967 206.942 131.956 208.784 131.967C208.796 131.967 208.821 131.967 208.833 131.967C209.816 131.967 210.662 131.756 211.421 131.523L211.658 131.456L211.907 131.479C213.039 131.556 214.171 131.479 215.365 131.379C216.784 131.268 218.252 131.157 219.77 131.323C220.74 131.023 221.723 130.89 222.681 130.857L222.171 130.446L216.659 129.569L222.184 128.626L222.495 128.215L223.179 128.459L223.602 128.381L224.05 128.492C224.149 128.537 224.237 128.559 224.336 128.614L224.473 128.681L225.929 128.903L225.531 129.192L229.475 131.101C229.985 131.068 230.52 131.023 231.129 130.946L231.291 130.935C231.926 130.924 232.51 130.946 233.12 130.957L233.058 130.679H228.803L234.327 128.215L234.464 128.337L237.114 127.749L235.969 129.17L237.649 129.924L235.335 130.446V130.99C236.056 130.99 236.778 130.957 237.462 130.901C238.395 130.813 239.329 130.679 240.249 130.546C241.282 130.402 242.352 130.246 243.459 130.158L243.783 129.924L244.243 129.936C248.075 130.047 251.945 129.714 255.74 128.981C255.192 127.604 255.74 126.372 257.332 125.528L258.95 124.662L259.161 126.028C259.261 126.072 259.373 126.128 259.422 126.15L260.268 126.539L261.214 126.716C261.525 126.772 261.811 126.794 262.11 126.783C262.16 126.772 262.209 126.761 262.247 126.749C262.483 126.128 263.068 125.895 263.429 125.817L264.586 125.562L264.922 126.583C265.034 126.927 265.121 127.571 264.524 128.226C265.295 128.137 266.129 128.082 266.937 128.026C269.065 127.882 271.068 127.749 272.785 127.105L272.997 127.027L273.22 127.016C273.731 127.005 274.228 126.994 274.738 126.994C275.336 126.994 275.908 126.983 276.48 126.96L278.197 123.652L277.252 122.453H279.23L286.036 120.144L281.308 123.719L283.099 125.995C287.218 125.351 291.336 124.696 295.442 124.019C295.716 123.974 295.989 123.874 296.313 123.774C296.487 123.719 296.661 123.652 296.848 123.597L297.047 123.53L297.532 123.541C297.681 123.497 297.768 123.475 297.843 123.464C298.726 123.286 299.647 123.142 300.555 122.986C302.608 122.653 304.537 122.342 306.179 121.687L306.503 121.554L306.851 121.599C309.227 121.887 311.044 121.266 312.487 120.622L312.699 120.522L312.948 120.511C315.784 120.322 317.937 119.878 319.728 119.112C320.612 118.746 321.557 118.346 322.615 118.301C324.68 118.202 326.422 117.669 328.289 117.114C330.155 116.548 332.096 115.959 334.397 115.815C334.485 115.815 334.696 115.748 334.945 115.604C335.878 115.071 336.936 114.782 337.956 114.494C338.466 114.349 338.964 114.216 339.437 114.05L341.141 113.439V113.861C341.303 113.817 341.44 113.772 341.564 113.695V113.04H342.709C342.846 113.017 342.982 113.006 343.119 112.995C343.281 112.984 343.43 112.973 343.555 112.94C344.177 112.584 345.048 112.329 345.894 112.096C346.852 111.818 347.934 111.519 348.221 111.075L348.469 110.675L348.967 110.553C349.614 110.397 350.261 110.242 350.92 110.087C352.451 109.72 354.018 109.343 355.512 108.932C356.171 108.743 356.768 108.433 357.403 108.1L357.714 107.933C359.294 107.134 361.023 106.334 363.151 105.757C364.432 105.413 365.353 104.969 365.95 104.403L366.187 104.181L366.523 104.092C366.809 104.025 367.095 103.948 367.381 103.87L362.89 102.538H370.143L376.787 98.0862L375.742 99.3851C376.178 99.1298 376.65 98.8966 377.16 98.6968ZM297.52 121.243L294.534 120.944L296.972 118.746L299.921 119.867L297.52 121.243Z" fill="#7764FA"/>
</svg>
