<svg width="562" height="160" viewBox="0 0 562 160" fill="none" xmlns="http://www.w3.org/2000/svg">
<path d="M482.02 110.896C499.63 111.002 516.899 106.719 534.309 104.049C535.226 103.899 535.988 103.31 536.39 105.84C536.244 106.113 536.1 106.419 535.938 106.726C537.06 106.363 538.18 105.968 539.242 105.513C540.993 104.767 542.74 103.957 544.49 103.179C543.817 103.176 543.182 103.202 542.491 103.2C543.288 97.8621 545.305 95.337 546.632 91.9978C546.975 91.1214 547.3 89.6941 547.128 88.7349C546.82 87.0733 545.89 86.4763 544.913 86.5659C542.218 86.7808 539.744 74.9233 537.045 75.0736C533.911 75.2638 530.811 75.9709 527.635 74.1175C526.594 73.4981 525.365 73.611 524.275 73.906C517.589 75.6573 510.769 73.4236 504.066 72.7064C499.104 72.187 502.351 76.0194 497.421 75.9845C497.365 68.1677 491.004 69.3832 485.872 77.1694C485.218 76.9045 486.491 83.0248 486.702 81.8029C486.955 80.3823 487.699 81.1915 488.262 81.4647C488.469 81.5757 488.677 81.6867 488.9 81.7637C489.567 80.0125 490.555 79.2718 491.732 79.1962C497.128 78.8309 502.525 78.4979 507.92 78.1326C510.347 77.9748 512.808 78.0738 515.207 77.4961C516.783 77.1239 518.285 77.0185 519.889 77.6188C521.435 78.1918 523.078 78.561 524.586 78.26C531.693 76.8276 538.88 77.4353 546.042 77.3952C546.697 77.4001 547.527 77.0313 548.001 77.6053C551.012 81.0987 553.789 78.7964 556.246 76.8809C559.793 74.1178 561.567 70.9326 557.191 64.8997C556.829 64.3804 556.452 63.8951 556.123 63.3078C555.466 62.1657 554.559 61.079 554.453 59.4638C545.353 60.4617 536.098 55.4617 527.168 50.4318C524.96 49.2045 522.75 47.945 520.54 46.6854C519.545 46.4843 518.566 46.2492 517.573 46.0804C511.261 44.9374 504.922 44.7719 498.599 44.5725C496.575 44.4982 494.652 44.8373 492.573 43.9232C490.608 43.0637 488.533 43.3191 486.504 43.148C483.34 42.8859 480.182 42.6884 477.023 42.4909C469.576 42.0696 462.143 41.5821 454.684 41.2593C447.243 40.935 439.802 41.7156 432.389 40.4138C423.54 38.8538 414.809 40.2078 405.996 39.1969C396.781 38.158 387.594 39.4889 378.333 39.1366C369.345 38.7918 360.368 39.161 351.384 39.1409C337.218 39.1414 323.085 40.2113 308.95 40.9566C305.398 41.1526 301.895 42.6441 298.342 42.2554C288.804 41.2786 279.444 43.3078 270.003 43.8171C257.409 44.4858 244.87 46.2869 232.299 47.6035C227.603 48.0995 222.929 48.9187 218.206 48.9948C207.671 49.182 197.133 49.0445 186.581 48.9732C177.341 48.944 168.243 51.6317 158.924 50.1148C154.322 52.3247 149.527 49.9051 144.843 50.3026C137.428 50.9184 129.989 51.1788 122.617 52.1806C115.046 53.2006 107.297 51.2146 99.8356 53.9145C99.4081 54.0512 98.9339 54.0298 98.4853 53.8435C93.5271 51.9913 88.6354 53.3828 83.7337 53.5078C75.4369 53.717 67.1676 54.3462 58.819 54.0402C45.7847 53.5469 32.7365 53.1198 19.7312 54.1838C14.1233 54.6336 9.2881 58.0024 4.54301 61.9153C0.296796 65.3925 -0.104432 75.1139 3.53868 81.0517C5.06329 83.5116 6.97318 85.1886 8.72342 87.2054C9.91764 86.8357 10.9775 87.1934 11.6315 89.4083C12.0059 89.0164 12.4072 88.1996 12.7229 88.3006C15.4402 89.2536 18.3227 89.119 20.7913 92.1097C21.2652 92.6837 21.4006 94.1987 21.6893 95.2771C21.5818 95.5795 21.4519 95.8189 21.304 96.0599C21.542 96.3631 21.7779 96.6339 22.0181 96.9693C23.2726 97.2442 24.5271 97.519 25.7838 97.8261C21.306 98.5946 16.8981 99.8768 12.4861 101.094C11.5926 101.891 10.7171 102.687 9.82359 103.484C8.40097 107.872 5.26969 110.044 5.29001 116.477C5.30836 120.375 5.0954 121.012 7.95423 121.627C9.46604 121.943 10.9318 122.946 10.9136 125.45C10.8666 130.297 12.746 131.229 14.5646 132.622C15.2655 129.99 16.1545 129.681 17.2357 132.312C20.4394 132.083 23.6432 131.854 26.865 131.623C27.6763 131.516 28.5057 131.407 29.3191 131.332C30.619 130.076 31.9014 127.716 33.5366 130.198C34.9879 132.372 36.6181 131.995 38.044 131.831C43.3341 131.248 48.6838 132.415 53.9347 131.51C58.33 131.984 62.8001 133.881 67.0005 130.538C67.5015 130.135 68.3039 131.003 68.9525 130.911C73.2824 130.384 77.6409 130.016 81.9273 129.103C83.9531 128.657 85.8586 128.319 87.8836 129.531C90.0754 130.792 91.9204 125.91 94.2805 128.911C98.5531 128.064 103.256 131.304 107.071 125.949C107.487 125.359 108.477 125.203 108.908 125.683C111.715 128.838 114.23 126.137 116.607 124.944C118.633 123.946 120.229 123.051 122.269 125.334C123.78 127.015 124.715 124.915 125.315 122.682C125.956 120.251 126.843 120.462 127.927 122.02C128.18 121.444 128.546 120.923 128.702 120.259C130.084 114.412 131.666 113.844 134.484 118.298C135.579 120.017 138.454 119.493 138.518 117.408C138.543 116.398 137.426 115.168 136.823 114.021L136.805 114.023C135.831 113.3 135.798 112.523 136.649 111.632C136.649 111.632 136.649 111.632 136.667 111.63C136.755 111.297 136.839 110.64 136.895 110.667C137.36 110.819 137.275 111.185 136.667 111.63C136.667 111.63 136.667 111.63 136.669 111.663L136.756 112.987C136.861 113.205 136.87 113.627 136.894 113.982C136.873 113.951 136.835 113.922 136.815 113.892L136.826 114.053C138.151 114.029 139.556 113.543 140.668 115.52C142.233 118.334 143.904 119.968 146.145 118.917C146.656 118.675 147.534 119.31 147.947 120.052C149.959 123.572 152.254 122.516 154.337 121.838C156.739 121.032 159.012 119.914 161.541 121.046C162.889 121.637 164.173 120.415 165.461 120.361C169.358 120.166 172.211 114.022 176.88 117.006C180.6 119.394 184.811 115.66 188.88 117.821C190.068 118.46 191.026 117.267 192.1 117.006C194.947 116.322 197.831 115.927 200.716 115.565C201.907 115.423 202.899 116.404 203.504 118.429C204.511 119.929 205.615 119.567 206.736 119.465C213.444 118.881 220.199 119.561 226.912 118.49C233.984 117.353 241.208 118.25 248.372 118.242C249.953 118.227 251.614 118.594 253.074 117.843C257.613 115.509 262.363 116.958 266.953 117.349C270.536 117.637 274.15 118.118 277.721 117.953C284.447 117.628 291.182 118.569 297.931 118.047C315.102 116.731 332.368 116.868 349.507 114.775C352.537 114.399 355.481 111.301 358.697 114.321C361.709 112.549 364.802 112.85 367.977 113.859C369.5 114.337 371.21 114.342 372.634 113.594C374.99 112.37 377.175 110.74 379.798 112.481C382.383 114.194 385.072 109.982 387.73 113.638C388.188 114.246 389.293 114.469 389.678 113.947C392.385 110.026 395.686 112.388 398.6 112.738C406.959 113.758 415.06 110.836 423.439 111.887C431.286 112.857 439.156 111.679 447.024 111.867C454.91 112.053 462.651 109.75 470.569 110.42C474.373 110.753 478.199 110.857 482.02 110.896ZM30.7335 99.5491C29.3926 99.8997 28.1374 98.78 26.8617 98.1821C28.0843 98.5248 29.2889 98.8692 30.4859 99.3768C31.1206 99.351 31.7512 99.2606 32.3552 99.0427C32.6562 98.9176 32.9572 98.7925 33.256 98.635C35.7294 98.083 38.2502 98.534 40.5712 98.7109C39.9747 98.7657 39.3601 98.8221 38.7636 98.8769C36.0376 98.3472 33.394 99.0773 30.7335 99.5491ZM99.0532 98.1518C95.6817 98.0388 112.714 91.0418 107.774 88.0829C111.641 86.5905 93.6536 94.5527 96.0836 93.6146C95.8651 92.4972 95.4052 91.3045 95.5046 90.3204C95.6349 88.976 96.4195 89.294 97.0275 89.6932C98.2838 90.5528 99.5104 91.5126 100.749 92.3739C101.741 93.0952 102.79 91.0491 103.78 92.8431C102.764 98.7211 102.764 98.7211 99.0532 98.1518ZM125.852 95.009C122.33 95.6573 118.8 96.1764 115.272 96.7278C115.958 97.7698 116.695 98.7421 117.331 99.8536C117.864 100.78 118.045 102.16 117.376 102.774C116.862 103.244 116.066 102.765 115.465 103.015C114.423 103.5 113.378 106.424 112.509 102.311C111.852 99.2192 111.958 98.8845 114.587 96.8232C114.777 96.6757 115.019 96.7511 115.236 96.7311C115.049 94.9933 113.862 92.405 115.617 91.9839C118.895 91.228 122.216 90.5656 125.59 91.5558C125.868 91.6278 126.279 92.63 126.319 93.2438C126.377 93.8559 126.087 94.9875 125.852 95.009ZM366.78 83.2903C348.889 84.9978 331.163 77.3467 313.279 78.891C311.327 79.0702 295.369 80.2875 293.572 77.2677C278.096 78.6559 276.509 79.9918 261.025 81.2508C255.218 81.7189 249.454 82.2806 243.533 81.5567C236.585 80.6996 229.634 82.0202 222.687 82.3005C219.132 82.4319 215.552 82.4681 211.983 82.4057C211.346 82.3991 210.695 81.614 210.047 81.1535C203.885 83.1491 197.585 83.305 191.309 84.1086C182.292 85.2614 192.389 78.8651 183.425 80.273C181.043 80.5567 159.423 85.6386 157.049 86.0515C155.232 86.3483 153.569 85.396 151.947 83.9524C151.46 84.8421 150.971 85.6995 150.483 86.5893C146.361 86.6752 142.225 86.8274 138.096 86.8165C137.769 86.8141 137.402 85.9377 137.043 85.4507C134.796 85.2995 134.22 86.5833 132.121 87.5884C130.232 78.55 129.16 95.8103 129.12 94.6441C129.07 93.6087 129.244 92.0977 129.649 91.6057C130.323 90.7963 131.224 90.3886 132.071 90.2783C135.375 89.91 138.689 89.7032 141.999 89.4318L144.681 89.2831C149.124 88.8103 153.548 88.3391 157.991 87.8663C159.543 87.6913 161.123 87.3837 162.441 89.7326C162.856 89.6945 163.274 89.6886 163.694 89.7151C164.48 87.2705 165.44 87.2149 166.562 89.3543C166.958 89.2855 167.375 89.2796 167.779 89.34C168.996 88.4808 170.189 86.9739 171.458 86.9224C175.432 86.7851 179.48 88.0708 183.321 85.8983C189.921 88.6722 196.35 86.0346 202.868 86.1512C217.24 84.8643 231.611 83.545 245.966 82.2596C246.87 82.1767 247.793 81.8319 248.67 82.1739C255.491 84.9925 262.171 82.8518 268.874 82.464C273.566 82.1957 278.317 82.8319 282.932 81.3684C283.59 81.1455 284.293 81.0484 284.942 81.2488C294.501 84.2061 303.811 81.1415 313.235 80.9263C316.612 80.8438 319.926 80.0845 323.341 81.6884C324.842 82.3956 326.482 81.8876 328.056 81.7755C333.233 81.3978 338.389 80.9895 343.563 80.5795C350.816 78.8736 358.25 80.2061 365.556 79.3078C366.765 79.1644 368.087 80.4729 369.534 81.1851C368.985 84.1928 367.648 83.2106 366.78 83.2903ZM454.216 73.6869C451.096 72.966 447.929 74.0367 444.775 74.1962C440.969 74.3832 437.194 75.0547 433.307 73.4616C431.141 72.588 428.815 73.4515 426.567 73.5604C420.28 73.9101 414.034 75.166 407.685 72.629C402.732 73.0837 397.8 73.569 392.847 74.0237C389.173 74.8485 385.507 73.8526 381.847 72.6612C381.207 72.8824 374.889 79.7672 374.246 79.9562C373.658 80.1401 378.439 83.6173 378.159 81.8232C378.062 81.1821 378.321 80.4108 378.457 79.7159C378.527 79.3845 378.682 78.9803 378.874 78.8651C382.321 76.5013 385.801 74.9468 389.514 78.6033C390.46 78.614 391.422 78.5906 392.387 78.5996C398.153 78.0702 403.937 77.5392 409.704 77.0098C411.258 76.8671 412.841 76.5918 414.17 78.8422C416.677 75.7521 419.606 75.4833 422.564 76.5116C424.368 77.1259 426.118 77.7453 427.944 77.5777C432.662 77.1445 437.431 77.2266 442.102 76.3429C446.844 75.4525 451.53 78.1422 456.288 77.7704C460.269 77.4699 464.505 80.2334 468.371 79.2934C472.704 78.2458 476.87 79.9432 481.093 80.0105C482.039 80.0211 482.907 80.4939 483.524 81.8672C483.714 82.2722 483.628 83.7425 483.504 83.7865C482.463 84.272 486.859 79.2001 485.806 78.9393C477.023 76.7232 462.986 75.7092 454.216 73.6869Z" fill="url(#paint0_linear_103_322)"/>
<path d="M197.852 92.6349C197.854 92.6695 197.854 92.6695 197.856 92.7041C197.854 92.6695 197.871 92.6679 197.869 92.6333C197.869 92.6333 197.869 92.6333 197.852 92.6349Z" fill="url(#paint1_linear_103_322)"/>
<defs>
<linearGradient id="paint0_linear_103_322" x1="219.164" y1="33.492" x2="261.993" y2="178.264" gradientUnits="userSpaceOnUse">
<stop stop-color="#5C4DF1"/>
<stop offset="0.541667" stop-color="#EA52F0"/>
<stop offset="1" stop-color="#EB9F5C"/>
</linearGradient>
<linearGradient id="paint1_linear_103_322" x1="197.857" y1="92.6281" x2="197.88" y2="92.6317" gradientUnits="userSpaceOnUse">
<stop stop-color="#5C4DF1"/>
<stop offset="0.541667" stop-color="#EA52F0"/>
<stop offset="1" stop-color="#EB9F5C"/>
</linearGradient>
</defs>
</svg>
