<svg width="153" height="166" viewBox="0 0 153 166" fill="none" xmlns="http://www.w3.org/2000/svg">
<path d="M145.803 118.39H141.441V116.51H145.803V111.568H147.801V116.51H152.162V118.39H147.801V122.955H145.803V118.39Z" fill="#E5E5E5"/>
<path d="M145.803 83.3896H141.441V81.5098H145.803V76.5684H147.801V81.5098H152.162V83.3896H147.801V87.9551H145.803V83.3896Z" fill="#E5E5E5"/>
<path d="M106.441 153.39V151.521H117.162V153.39H106.441ZM110.803 157.955V146.568H112.79V157.955H110.803Z" fill="#FAD064"/>
<path d="M110.803 118.39H106.441V116.51H110.803V111.568H112.801V116.51H117.162V118.39H112.801V122.955H110.803V118.39Z" fill="#E5E5E5"/>
<path d="M110.803 83.3896H106.441V81.5098H110.803V76.5684H112.801V81.5098H117.162V83.3896H112.801V87.9551H110.803V83.3896Z" fill="#E5E5E5"/>
<path d="M75.8027 153.39H71.4414V151.51H75.8027V146.568H77.8008V151.51H82.1621V153.39H77.8008V157.955H75.8027V153.39Z" fill="#E5E5E5"/>
<path d="M75.8027 118.39H71.4414V116.51H75.8027V111.568H77.8008V116.51H82.1621V118.39H77.8008V122.955H75.8027V118.39Z" fill="#E5E5E5"/>
<path d="M71.4414 83.3896V81.5205H82.1621V83.3896H71.4414ZM75.8027 87.9551V76.5684H77.79V87.9551H75.8027Z" fill="#E5E5E5"/>
<path d="M71.4414 48.3896V46.5205H82.1621V48.3896H71.4414ZM75.8027 52.9551V41.5684H77.79V52.9551H75.8027Z" fill="#FAD064"/>
<path d="M75.8027 13.3896H71.4414V11.5098H75.8027V6.56836H77.8008V11.5098H82.1621V13.3896H77.8008V17.9551H75.8027V13.3896Z" fill="#E5E5E5"/>
<path d="M40.8027 153.39H36.4414V151.51H40.8027V146.568H42.8008V151.51H47.1621V153.39H42.8008V157.955H40.8027V153.39Z" fill="#E5E5E5"/>
<path d="M36.4414 118.39V116.521H47.1621V118.39H36.4414ZM40.8027 122.955V111.568H42.79V122.955H40.8027Z" fill="#7764FA"/>
<path d="M40.8027 83.3896H36.4414V81.5098H40.8027V76.5684H42.8008V81.5098H47.1621V83.3896H42.8008V87.9551H40.8027V83.3896Z" fill="#E5E5E5"/>
<path d="M40.8027 48.3896H36.4414V46.5098H40.8027V41.5684H42.8008V46.5098H47.1621V48.3896H42.8008V52.9551H40.8027V48.3896Z" fill="#E5E5E5"/>
<path d="M40.8027 13.3896H36.4414V11.5098H40.8027V6.56836H42.8008V11.5098H47.1621V13.3896H42.8008V17.9551H40.8027V13.3896Z" fill="#E5E5E5"/>
<path d="M5.80273 153.39H1.44141V151.51H5.80273V146.568H7.80078V151.51H12.1621V153.39H7.80078V157.955H5.80273V153.39Z" fill="#E5E5E5"/>
<path d="M5.80273 118.39H1.44141V116.51H5.80273V111.568H7.80078V116.51H12.1621V118.39H7.80078V122.955H5.80273V118.39Z" fill="#E5E5E5"/>
<path d="M5.80273 83.3896H1.44141V81.5098H5.80273V76.5684H7.80078V81.5098H12.1621V83.3896H7.80078V87.9551H5.80273V83.3896Z" fill="#E5E5E5"/>
<path d="M5.80273 48.3896H1.44141V46.5098H5.80273V41.5684H7.80078V46.5098H12.1621V48.3896H7.80078V52.9551H5.80273V48.3896Z" fill="#E5E5E5"/>
<path d="M5.80273 13.3896H1.44141V11.5098H5.80273V6.56836H7.80078V11.5098H12.1621V13.3896H7.80078V17.9551H5.80273V13.3896Z" fill="#E5E5E5"/>
</svg>
