<svg width="113" height="153" viewBox="0 0 113 153" fill="none" xmlns="http://www.w3.org/2000/svg">
<path d="M80.4518 76.5C80.4518 97.5787 78.1549 116.635 74.456 130.399C72.6051 137.286 70.4143 142.806 68.0126 146.586C65.5879 150.402 63.0794 152.25 60.6434 152.25C58.2073 152.25 55.6988 150.402 53.2741 146.586C50.8724 142.806 48.6816 137.286 46.8307 130.399C43.1318 116.635 40.835 97.5787 40.835 76.5C40.835 55.4213 43.1318 36.3649 46.8307 22.601C48.6816 15.7136 50.8724 10.194 53.2741 6.41396C55.6988 2.59778 58.2073 0.75 60.6434 0.75C63.0794 0.75 65.5879 2.59778 68.0126 6.41396C70.4143 10.194 72.6051 15.7136 74.456 22.601C78.1549 36.3649 80.4518 55.4213 80.4518 76.5Z" stroke="#8F9093" stroke-width="1.5"/>
<path d="M50.3668 76.5C50.3668 97.5787 48.07 116.635 44.3711 130.399C42.5202 137.286 40.3293 142.806 37.9276 146.586C35.503 150.402 32.9944 152.25 30.5584 152.25C28.1224 152.25 25.6138 150.402 23.1892 146.586C20.7875 142.806 18.5966 137.286 16.7457 130.399C13.0468 116.635 10.75 97.5787 10.75 76.5C10.75 55.4213 13.0468 36.3649 16.7457 22.601C18.5966 15.7136 20.7875 10.194 23.1892 6.41396C25.6138 2.59778 28.1224 0.75 30.5584 0.75C32.9944 0.75 35.503 2.59778 37.9276 6.41396C40.3293 10.194 42.5202 15.7136 44.3711 22.601C48.07 36.3649 50.3668 55.4213 50.3668 76.5Z" stroke="#8F9093" stroke-width="1.5"/>
<path d="M111.541 76.5C111.541 97.5787 109.244 116.635 105.545 130.399C103.694 137.286 101.503 142.806 99.1015 146.586C96.6768 150.402 94.1683 152.25 91.7322 152.25C89.2962 152.25 86.7877 150.402 84.363 146.586C81.9613 142.806 79.7704 137.286 77.9195 130.399C74.2207 116.635 71.9238 97.5787 71.9238 76.5C71.9238 55.4213 74.2207 36.3649 77.9195 22.601C79.7704 15.7136 81.9613 10.194 84.363 6.41396C86.7877 2.59778 89.2962 0.75 91.7322 0.75C94.1683 0.75 96.6768 2.59778 99.1015 6.41396C101.503 10.194 103.694 15.7136 105.545 22.601C109.244 36.3649 111.541 55.4213 111.541 76.5Z" stroke="#8F9093" stroke-width="1.5"/>
<path d="M20.057 77C20.057 88.0445 29.038 97 40.114 97C29.038 97 20.057 105.955 20.057 117C20.057 105.955 11.076 97 0 97C10.7154 97 20.057 88.0445 20.057 77Z" fill="#7764FA"/>
</svg>
