<svg width="21" height="16" viewBox="0 0 21 16" fill="none" xmlns="http://www.w3.org/2000/svg">
<g clip-path="url(#clip0_161_2)">
<path d="M17.5093 1.34026C16.1714 0.713731 14.7407 0.259171 13.2446 0C13.0605 0.331836 12.8466 0.779129 12.698 1.13438C11.1083 0.895393 9.53307 0.895393 7.97239 1.13438C7.82464 0.779129 7.60503 0.331836 7.42014 0C5.92243 0.259171 4.49013 0.715345 3.15229 1.34349C0.453999 5.42161 -0.277494 9.39799 0.0882523 13.3187C1.87823 14.6557 3.6125 15.4671 5.31851 15.9984C5.73996 15.4187 6.1154 14.8026 6.43835 14.1535C5.82232 13.9194 5.23212 13.6303 4.67421 13.2953C4.82197 13.1854 4.96649 13.0708 5.10697 12.9529C8.50769 14.5435 12.2031 14.5435 15.5634 12.9529C15.7047 13.0708 15.8493 13.1854 15.9962 13.2953C15.4367 13.6319 14.8449 13.921 14.2288 14.1551C14.5526 14.8026 14.9264 15.4203 15.3487 16C17.0555 15.4687 18.7922 14.6565 20.5822 13.3187C21.0109 8.77388 19.8483 4.83383 17.5093 1.34026ZM6.90099 10.907C5.88045 10.907 5.04319 9.95428 5.04319 8.79326C5.04319 7.63224 5.86269 6.6779 6.90099 6.6779C7.9401 6.6779 8.77736 7.63062 8.75879 8.79326C8.76121 9.95428 7.9401 10.907 6.90099 10.907ZM13.7686 10.907C12.7481 10.907 11.9108 9.95428 11.9108 8.79326C11.9108 7.63224 12.7303 6.6779 13.7686 6.6779C14.8077 6.6779 15.645 7.63062 15.6264 8.79326C15.6264 9.95428 14.8069 10.907 13.7686 10.907Z" fill="#8567FF"/>
</g>
<defs>
<clipPath id="clip0_161_2">
<rect width="20.6691" height="16" fill="white"/>
</clipPath>
</defs>
</svg>
