<svg width="238" height="121" viewBox="0 0 238 121" fill="none" xmlns="http://www.w3.org/2000/svg">
<path d="M4.09353 117.999C4.09353 116.893 3.17716 115.996 2.04677 115.996C0.916368 115.996 0 116.893 0 117.999C0 119.106 0.916368 120.003 2.04677 120.003C3.17716 120.003 4.09353 119.106 4.09353 117.999Z" fill="url(#paint0_linear_441_1153)"/>
<path d="M20.7537 118C20.7537 119.041 19.894 119.863 18.8502 119.863C17.7858 119.863 16.9467 119.021 16.9467 118C16.9467 116.958 17.8063 116.137 18.8502 116.137C19.894 116.137 20.7537 116.978 20.7537 118Z" fill="url(#paint1_linear_441_1153)"/>
<path d="M37.3939 117.999C37.3939 118.961 36.5957 119.742 35.6132 119.742C34.6308 119.742 33.8325 118.961 33.8325 117.999C33.8325 117.038 34.6308 116.257 35.6132 116.257C36.5957 116.257 37.3939 117.038 37.3939 117.999Z" fill="url(#paint2_linear_441_1153)"/>
<path d="M54.0553 117.999C54.0553 117.114 53.3222 116.396 52.4179 116.396C51.5136 116.396 50.7805 117.114 50.7805 117.999C50.7805 118.884 51.5136 119.602 52.4179 119.602C53.3222 119.602 54.0553 118.884 54.0553 117.999Z" fill="url(#paint3_linear_441_1153)"/>
<path d="M70.6949 117.999C70.6949 118.821 70.0195 119.462 69.2008 119.462C68.3616 119.462 67.7066 118.801 67.7066 117.999C67.7066 117.198 68.382 116.537 69.2008 116.537C70.0195 116.537 70.6949 117.198 70.6949 117.999Z" fill="url(#paint4_linear_441_1153)"/>
<path d="M87.3555 117.999C87.3555 118.74 86.7415 119.341 85.9842 119.341C85.2269 119.341 84.6128 118.74 84.6128 117.999C84.6128 117.258 85.2269 116.657 85.9842 116.657C86.7415 116.677 87.3555 117.258 87.3555 117.999Z" fill="url(#paint5_linear_441_1153)"/>
<path d="M103.997 118C103.997 117.336 103.447 116.797 102.769 116.797C102.09 116.797 101.54 117.336 101.54 118C101.54 118.663 102.09 119.202 102.769 119.202C103.447 119.202 103.997 118.663 103.997 118Z" fill="url(#paint6_linear_441_1153)"/>
<path d="M120.656 117.999C120.656 118.58 120.165 119.061 119.572 119.061C118.978 119.061 118.487 118.58 118.487 117.999C118.487 117.418 118.978 116.937 119.572 116.937C120.165 116.937 120.656 117.418 120.656 117.999Z" fill="url(#paint7_linear_441_1153)"/>
<path d="M137.317 118C137.317 118.521 136.887 118.941 136.355 118.941C135.822 118.941 135.393 118.521 135.393 118C135.393 117.479 135.822 117.058 136.355 117.058C136.887 117.078 137.317 117.479 137.317 118Z" fill="url(#paint8_linear_441_1153)"/>
<path d="M153.958 117.999C153.958 118.44 153.589 118.8 153.139 118.8C152.689 118.8 152.32 118.44 152.32 117.999C152.32 117.558 152.689 117.198 153.139 117.198C153.589 117.198 153.958 117.558 153.958 117.999Z" fill="url(#paint9_linear_441_1153)"/>
<path d="M170.618 117.999C170.618 118.36 170.311 118.661 169.943 118.661C169.574 118.661 169.267 118.36 169.267 117.999C169.267 117.639 169.574 117.338 169.943 117.338C170.311 117.338 170.618 117.639 170.618 117.999Z" fill="url(#paint10_linear_441_1153)"/>
<path d="M187.258 117.999C187.258 118.3 187.012 118.54 186.705 118.54C186.398 118.54 186.153 118.3 186.153 117.999C186.153 117.699 186.398 117.458 186.705 117.458C187.012 117.478 187.258 117.719 187.258 117.999Z" fill="url(#paint11_linear_441_1153)"/>
<path d="M203.92 118C203.92 117.778 203.736 117.599 203.51 117.599C203.284 117.599 203.101 117.778 203.101 118C203.101 118.221 203.284 118.4 203.51 118.4C203.736 118.4 203.92 118.221 203.92 118Z" fill="url(#paint12_linear_441_1153)"/>
<path d="M220.578 117.999C220.578 118.139 220.456 118.259 220.313 118.259C220.17 118.259 220.048 118.139 220.048 117.999C220.048 117.859 220.17 117.739 220.313 117.739C220.456 117.739 220.578 117.859 220.578 117.999Z" fill="url(#paint13_linear_441_1153)"/>
<path d="M237.219 117.999C237.219 118.079 237.157 118.139 237.076 118.139C236.994 118.139 236.933 118.079 236.933 117.999C236.933 117.919 236.994 117.859 237.076 117.859C237.157 117.879 237.219 117.939 237.219 117.999Z" fill="url(#paint14_linear_441_1153)"/>
<path d="M4.09353 103.515C4.09353 102.409 3.17716 101.512 2.04677 101.512C0.916368 101.512 0 102.409 0 103.515C0 104.621 0.916368 105.518 2.04677 105.518C3.17716 105.518 4.09353 104.621 4.09353 103.515Z" fill="url(#paint15_linear_441_1153)"/>
<path d="M20.7537 103.515C20.7537 104.557 19.894 105.379 18.8502 105.379C17.7858 105.379 16.9467 104.537 16.9467 103.515C16.9467 102.474 17.8063 101.652 18.8502 101.652C19.894 101.632 20.7537 102.474 20.7537 103.515Z" fill="url(#paint16_linear_441_1153)"/>
<path d="M37.3939 103.515C37.3939 104.477 36.5957 105.258 35.6132 105.258C34.6308 105.258 33.8325 104.477 33.8325 103.515C33.8325 102.554 34.6308 101.772 35.6132 101.772C36.5957 101.772 37.3939 102.554 37.3939 103.515Z" fill="url(#paint17_linear_441_1153)"/>
<path d="M54.0553 103.515C54.0553 102.63 53.3222 101.912 52.4179 101.912C51.5136 101.912 50.7805 102.63 50.7805 103.515C50.7805 104.4 51.5136 105.117 52.4179 105.117C53.3222 105.117 54.0553 104.4 54.0553 103.515Z" fill="url(#paint18_linear_441_1153)"/>
<path d="M70.6949 103.515C70.6949 104.336 70.0195 104.977 69.2008 104.977C68.3616 104.977 67.7066 104.316 67.7066 103.515C67.7066 102.714 68.382 102.052 69.2008 102.052C70.0195 102.032 70.6949 102.694 70.6949 103.515Z" fill="url(#paint19_linear_441_1153)"/>
<path d="M87.3555 103.515C87.3555 104.256 86.7415 104.857 85.9842 104.857C85.2269 104.857 84.6128 104.256 84.6128 103.515C84.6128 102.774 85.2269 102.173 85.9842 102.173C86.7415 102.173 87.3555 102.774 87.3555 103.515Z" fill="url(#paint20_linear_441_1153)"/>
<path d="M103.997 103.515C103.997 104.176 103.444 104.717 102.769 104.717C102.093 104.717 101.54 104.176 101.54 103.515C101.54 102.854 102.093 102.313 102.769 102.313C103.464 102.313 103.997 102.834 103.997 103.515Z" fill="url(#paint21_linear_441_1153)"/>
<path d="M120.656 103.515C120.656 104.096 120.165 104.576 119.572 104.576C118.978 104.576 118.487 104.096 118.487 103.515C118.487 102.934 118.978 102.453 119.572 102.453C120.165 102.433 120.656 102.914 120.656 103.515Z" fill="url(#paint22_linear_441_1153)"/>
<path d="M137.317 103.516C137.317 104.036 136.887 104.457 136.355 104.457C135.822 104.457 135.393 104.036 135.393 103.516C135.393 102.995 135.822 102.574 136.355 102.574C136.887 102.574 137.317 102.995 137.317 103.516Z" fill="url(#paint23_linear_441_1153)"/>
<path d="M153.958 103.515C153.958 103.956 153.589 104.316 153.139 104.316C152.689 104.316 152.32 103.956 152.32 103.515C152.32 103.074 152.689 102.714 153.139 102.714C153.589 102.714 153.958 103.054 153.958 103.515Z" fill="url(#paint24_linear_441_1153)"/>
<path d="M170.598 103.515C170.598 103.15 170.295 102.854 169.922 102.854C169.549 102.854 169.247 103.15 169.247 103.515C169.247 103.88 169.549 104.176 169.922 104.176C170.295 104.176 170.598 103.88 170.598 103.515Z" fill="url(#paint25_linear_441_1153)"/>
<path d="M187.258 103.515C187.258 103.816 187.012 104.056 186.705 104.056C186.398 104.056 186.153 103.816 186.153 103.515C186.153 103.215 186.398 102.974 186.705 102.974C187.012 102.974 187.258 103.215 187.258 103.515Z" fill="url(#paint26_linear_441_1153)"/>
<path d="M203.92 103.515C203.92 103.294 203.736 103.115 203.51 103.115C203.284 103.115 203.101 103.294 203.101 103.515C203.101 103.737 203.284 103.916 203.51 103.916C203.736 103.916 203.92 103.737 203.92 103.515Z" fill="url(#paint27_linear_441_1153)"/>
<path d="M220.578 103.515C220.578 103.655 220.456 103.775 220.313 103.775C220.17 103.775 220.048 103.655 220.048 103.515C220.048 103.375 220.17 103.254 220.313 103.254C220.456 103.254 220.578 103.355 220.578 103.515Z" fill="url(#paint28_linear_441_1153)"/>
<path d="M237.219 103.515C237.219 103.595 237.157 103.655 237.076 103.655C236.994 103.655 236.933 103.595 236.933 103.515C236.933 103.435 236.994 103.374 237.076 103.374C237.157 103.374 237.219 103.435 237.219 103.515Z" fill="url(#paint29_linear_441_1153)"/>
<path d="M4.09353 89.011C4.09353 87.9045 3.17716 87.0076 2.04677 87.0076C0.916368 87.0076 0 87.9045 0 89.011C0 90.1174 0.916368 91.0144 2.04677 91.0144C3.17716 91.0144 4.09353 90.1174 4.09353 89.011Z" fill="url(#paint30_linear_441_1153)"/>
<path d="M20.7537 89.0114C20.7537 90.0531 19.894 90.8745 18.8502 90.8745C17.7858 90.8745 16.9467 90.0331 16.9467 89.0114C16.9467 87.9696 17.8063 87.1482 18.8502 87.1482C19.894 87.1282 20.7537 87.9696 20.7537 89.0114Z" fill="url(#paint31_linear_441_1153)"/>
<path d="M37.3939 89.0113C37.3939 89.9729 36.5957 90.7542 35.6132 90.7542C34.6308 90.7542 33.8325 89.9729 33.8325 89.0113C33.8325 88.0497 34.6308 87.2683 35.6132 87.2683C36.5957 87.2683 37.3939 88.0497 37.3939 89.0113Z" fill="url(#paint32_linear_441_1153)"/>
<path d="M54.0553 89.0106C54.0553 89.8921 53.3185 90.6134 52.4179 90.6134C51.5173 90.6134 50.7805 89.8921 50.7805 89.0106C50.7805 88.1292 51.5173 87.4079 52.4179 87.4079C53.3185 87.4079 54.0553 88.1292 54.0553 89.0106Z" fill="url(#paint33_linear_441_1153)"/>
<path d="M70.6949 89.011C70.6949 89.8324 70.0195 90.4735 69.2008 90.4735C68.3616 90.4735 67.7066 89.8123 67.7066 89.011C67.7066 88.2096 68.382 87.5485 69.2008 87.5485C70.0195 87.5285 70.6949 88.1896 70.6949 89.011Z" fill="url(#paint34_linear_441_1153)"/>
<path d="M87.3555 89.0109C87.3555 89.7522 86.7415 90.3532 85.9842 90.3532C85.2269 90.3532 84.6128 89.7522 84.6128 89.0109C84.6128 88.2696 85.2269 87.6686 85.9842 87.6686C86.7415 87.6686 87.3555 88.2696 87.3555 89.0109Z" fill="url(#paint35_linear_441_1153)"/>
<path d="M103.997 89.0112C103.997 89.6723 103.444 90.2132 102.769 90.2132C102.093 90.2132 101.54 89.6723 101.54 89.0112C101.54 88.3501 102.093 87.8092 102.769 87.8092C103.464 87.8092 103.997 88.3501 103.997 89.0112Z" fill="url(#paint36_linear_441_1153)"/>
<path d="M120.656 89.0106C120.656 89.5916 120.165 90.0724 119.572 90.0724C118.978 90.0724 118.487 89.5916 118.487 89.0106C118.487 88.4296 118.978 87.9488 119.572 87.9488C120.165 87.9288 120.656 88.4096 120.656 89.0106Z" fill="url(#paint37_linear_441_1153)"/>
<path d="M137.317 89.0115C137.317 89.5324 136.887 89.9531 136.355 89.9531C135.822 89.9531 135.393 89.5324 135.393 89.0115C135.393 88.4906 135.822 88.0699 136.355 88.0699C136.887 88.0699 137.317 88.4906 137.317 89.0115Z" fill="url(#paint38_linear_441_1153)"/>
<path d="M153.958 89.0108C153.958 89.4516 153.589 89.8122 153.139 89.8122C152.689 89.8122 152.32 89.4516 152.32 89.0108C152.32 88.5701 152.689 88.2095 153.139 88.2095C153.589 88.2095 153.958 88.5701 153.958 89.0108Z" fill="url(#paint39_linear_441_1153)"/>
<path d="M170.618 89.0111C170.618 89.3717 170.311 89.6723 169.943 89.6723C169.574 89.6723 169.267 89.3717 169.267 89.0111C169.267 88.6505 169.574 88.35 169.943 88.35C170.311 88.33 170.618 88.6305 170.618 89.0111Z" fill="url(#paint40_linear_441_1153)"/>
<path d="M187.258 89.011C187.258 89.3115 187.012 89.552 186.705 89.552C186.398 89.552 186.153 89.3115 186.153 89.011C186.153 88.7105 186.398 88.4701 186.705 88.4701C187.012 88.4701 187.258 88.7105 187.258 89.011Z" fill="url(#paint41_linear_441_1153)"/>
<path d="M203.92 89.0115C203.92 89.2318 203.736 89.4121 203.51 89.4121C203.285 89.4121 203.101 89.2318 203.101 89.0115C203.101 88.7911 203.285 88.6108 203.51 88.6108C203.736 88.6108 203.92 88.7911 203.92 89.0115Z" fill="url(#paint42_linear_441_1153)"/>
<path d="M220.578 89.0108C220.578 89.1511 220.456 89.2713 220.313 89.2713C220.17 89.2713 220.048 89.1511 220.048 89.0108C220.048 88.8706 220.17 88.7504 220.313 88.7504C220.456 88.7504 220.578 88.8505 220.578 89.0108Z" fill="url(#paint43_linear_441_1153)"/>
<path d="M237.219 89.0107C237.219 89.0908 237.157 89.1509 237.076 89.1509C236.994 89.1509 236.933 89.0908 236.933 89.0107C236.933 88.9305 236.994 88.8704 237.076 88.8704C237.157 88.8704 237.219 88.9305 237.219 89.0107Z" fill="url(#paint44_linear_441_1153)"/>
<path d="M4.09353 74.506C4.09353 73.3995 3.17716 72.5026 2.04677 72.5026C0.916368 72.5026 0 73.3995 0 74.506C0 75.6124 0.916368 76.5093 2.04677 76.5093C3.17716 76.5093 4.09353 75.6124 4.09353 74.506Z" fill="url(#paint45_linear_441_1153)"/>
<path d="M20.7537 74.5065C20.7537 75.5482 19.894 76.3696 18.8502 76.3696C17.7858 76.3696 16.9467 75.5282 16.9467 74.5065C16.9467 73.4647 17.8063 72.6433 18.8502 72.6433C19.894 72.6433 20.7537 73.4647 20.7537 74.5065Z" fill="url(#paint46_linear_441_1153)"/>
<path d="M37.3939 74.5063C37.3939 73.5437 36.5967 72.7634 35.6132 72.7634C34.6298 72.7634 33.8325 73.5437 33.8325 74.5063C33.8325 75.4689 34.6298 76.2493 35.6132 76.2493C36.5967 76.2493 37.3939 75.4689 37.3939 74.5063Z" fill="url(#paint47_linear_441_1153)"/>
<path d="M54.0553 74.5058C54.0553 75.3873 53.3185 76.1085 52.4179 76.1085C51.5173 76.1085 50.7805 75.3873 50.7805 74.5058C50.7805 73.6243 51.5173 72.9031 52.4179 72.9031C53.3185 72.9031 54.0553 73.6243 54.0553 74.5058Z" fill="url(#paint48_linear_441_1153)"/>
<path d="M70.6949 74.5061C70.6949 75.3075 70.0195 75.9686 69.2008 75.9686C68.3616 75.9686 67.7066 75.3075 67.7066 74.5061C67.7066 73.7048 68.382 73.0436 69.2008 73.0436C70.0195 73.0436 70.6949 73.7048 70.6949 74.5061Z" fill="url(#paint49_linear_441_1153)"/>
<path d="M87.3555 74.506C87.3555 75.2473 86.7415 75.8483 85.9842 75.8483C85.2269 75.8483 84.6128 75.2473 84.6128 74.506C84.6128 73.7648 85.2269 73.1637 85.9842 73.1637C86.7415 73.1637 87.3555 73.7648 87.3555 74.506Z" fill="url(#paint50_linear_441_1153)"/>
<path d="M103.997 74.5064C103.997 73.8425 103.447 73.3043 102.769 73.3043C102.09 73.3043 101.54 73.8425 101.54 74.5064C101.54 75.1702 102.09 75.7084 102.769 75.7084C103.447 75.7084 103.997 75.1702 103.997 74.5064Z" fill="url(#paint51_linear_441_1153)"/>
<path d="M120.656 74.5058C120.656 75.0868 120.165 75.5676 119.572 75.5676C118.978 75.5676 118.487 75.0868 118.487 74.5058C118.487 73.9248 118.978 73.444 119.572 73.444C120.165 73.444 120.656 73.9248 120.656 74.5058Z" fill="url(#paint52_linear_441_1153)"/>
<path d="M137.317 74.5065C137.317 75.0274 136.887 75.4481 136.355 75.4481C135.822 75.4481 135.393 75.0274 135.393 74.5065C135.393 73.9856 135.822 73.5649 136.355 73.5649C136.887 73.5649 137.317 73.9856 137.317 74.5065Z" fill="url(#paint53_linear_441_1153)"/>
<path d="M153.958 74.506C153.958 74.9467 153.589 75.3073 153.139 75.3073C152.689 75.3073 152.32 74.9467 152.32 74.506C152.32 74.0652 152.689 73.7046 153.139 73.7046C153.589 73.7046 153.958 74.0652 153.958 74.506Z" fill="url(#paint54_linear_441_1153)"/>
<path d="M170.618 74.5063C170.618 74.8669 170.311 75.1674 169.943 75.1674C169.574 75.1674 169.267 74.8669 169.267 74.5063C169.267 74.1457 169.574 73.8452 169.943 73.8452C170.311 73.8452 170.618 74.1457 170.618 74.5063Z" fill="url(#paint55_linear_441_1153)"/>
<path d="M187.258 74.5062C187.258 74.8067 187.012 75.0471 186.705 75.0471C186.398 75.0471 186.153 74.8067 186.153 74.5062C186.153 74.2057 186.398 73.9653 186.705 73.9653C187.012 73.9653 187.258 74.2057 187.258 74.5062Z" fill="url(#paint56_linear_441_1153)"/>
<path d="M203.92 74.5065C203.92 74.7269 203.736 74.9072 203.51 74.9072C203.285 74.9072 203.101 74.7269 203.101 74.5065C203.101 74.2861 203.285 74.1058 203.51 74.1058C203.736 74.1058 203.92 74.2861 203.92 74.5065Z" fill="url(#paint57_linear_441_1153)"/>
<path d="M220.558 74.5059C220.558 74.362 220.439 74.2454 220.292 74.2454C220.146 74.2454 220.027 74.362 220.027 74.5059C220.027 74.6497 220.146 74.7663 220.292 74.7663C220.439 74.7663 220.558 74.6497 220.558 74.5059Z" fill="url(#paint58_linear_441_1153)"/>
<path d="M237.219 74.5058C237.219 74.5859 237.157 74.646 237.076 74.646C236.994 74.646 236.933 74.5859 236.933 74.5058C236.933 74.4256 236.994 74.3655 237.076 74.3655C237.157 74.3655 237.219 74.4256 237.219 74.5058Z" fill="url(#paint59_linear_441_1153)"/>
<path d="M4.09353 60.0019C4.09353 58.8955 3.17716 57.9985 2.04677 57.9985C0.916368 57.9985 0 58.8955 0 60.0019C0 61.1084 0.916368 62.0053 2.04677 62.0053C3.17716 62.0053 4.09353 61.1084 4.09353 60.0019Z" fill="url(#paint60_linear_441_1153)"/>
<path d="M20.7537 60.0025C20.7537 61.0442 19.894 61.8656 18.8502 61.8656C17.7858 61.8656 16.9467 61.0242 16.9467 60.0025C16.9467 58.9607 17.8063 58.1393 18.8502 58.1393C19.894 58.1393 20.7537 58.9807 20.7537 60.0025Z" fill="url(#paint61_linear_441_1153)"/>
<path d="M37.3939 60.0024C37.3939 59.0398 36.5967 58.2594 35.6132 58.2594C34.6298 58.2594 33.8325 59.0398 33.8325 60.0024C33.8325 60.965 34.6298 61.7453 35.6132 61.7453C36.5967 61.7453 37.3939 60.965 37.3939 60.0024Z" fill="url(#paint62_linear_441_1153)"/>
<path d="M54.0553 60.0017C54.0553 59.1166 53.3222 58.399 52.4179 58.399C51.5136 58.399 50.7805 59.1166 50.7805 60.0017C50.7805 60.8869 51.5136 61.6044 52.4179 61.6044C53.3222 61.6044 54.0553 60.8869 54.0553 60.0017Z" fill="url(#paint63_linear_441_1153)"/>
<path d="M70.6949 60.0021C70.6949 60.8034 70.0195 61.4645 69.2008 61.4645C68.3616 61.4645 67.7066 60.8034 67.7066 60.0021C67.7066 59.2007 68.382 58.5396 69.2008 58.5396C70.0195 58.5396 70.6949 59.2007 70.6949 60.0021Z" fill="url(#paint64_linear_441_1153)"/>
<path d="M87.3555 60.002C87.3555 60.7432 86.7415 61.3442 85.9842 61.3442C85.2269 61.3442 84.6128 60.7432 84.6128 60.002C84.6128 59.2607 85.2269 58.6597 85.9842 58.6597C86.7415 58.6797 87.3555 59.2607 87.3555 60.002Z" fill="url(#paint65_linear_441_1153)"/>
<path d="M103.997 60.0024C103.997 59.3385 103.447 58.8003 102.769 58.8003C102.09 58.8003 101.54 59.3385 101.54 60.0024C101.54 60.6662 102.09 61.2044 102.769 61.2044C103.447 61.2044 103.997 60.6662 103.997 60.0024Z" fill="url(#paint66_linear_441_1153)"/>
<path d="M120.656 60.0018C120.656 60.5827 120.165 61.0635 119.572 61.0635C118.978 61.0635 118.487 60.5827 118.487 60.0018C118.487 59.4208 118.978 58.9399 119.572 58.9399C120.165 58.9399 120.656 59.4208 120.656 60.0018Z" fill="url(#paint67_linear_441_1153)"/>
<path d="M137.317 60.0026C137.317 60.5235 136.887 60.9442 136.355 60.9442C135.822 60.9442 135.393 60.5235 135.393 60.0026C135.393 59.4817 135.822 59.061 136.355 59.061C136.887 59.081 137.317 59.4817 137.317 60.0026Z" fill="url(#paint68_linear_441_1153)"/>
<path d="M153.958 60.0019C153.958 60.4427 153.589 60.8033 153.139 60.8033C152.689 60.8033 152.32 60.4427 152.32 60.0019C152.32 59.5612 152.689 59.2006 153.139 59.2006C153.589 59.2006 153.958 59.5612 153.958 60.0019Z" fill="url(#paint69_linear_441_1153)"/>
<path d="M170.598 60.0023C170.598 59.6372 170.295 59.3412 169.922 59.3412C169.549 59.3412 169.247 59.6372 169.247 60.0023C169.247 60.3674 169.549 60.6634 169.922 60.6634C170.295 60.6634 170.598 60.3674 170.598 60.0023Z" fill="url(#paint70_linear_441_1153)"/>
<path d="M187.258 60.0022C187.258 60.3027 187.012 60.5431 186.705 60.5431C186.398 60.5431 186.153 60.3027 186.153 60.0022C186.153 59.7017 186.398 59.4613 186.705 59.4613C187.012 59.4813 187.258 59.7217 187.258 60.0022Z" fill="url(#paint71_linear_441_1153)"/>
<path d="M203.92 60.0025C203.92 59.7812 203.736 59.6018 203.51 59.6018C203.284 59.6018 203.101 59.7812 203.101 60.0025C203.101 60.2238 203.284 60.4031 203.51 60.4031C203.736 60.4031 203.92 60.2238 203.92 60.0025Z" fill="url(#paint72_linear_441_1153)"/>
<path d="M220.558 60.0019C220.558 59.8581 220.439 59.7415 220.292 59.7415C220.146 59.7415 220.027 59.8581 220.027 60.0019C220.027 60.1457 220.146 60.2623 220.292 60.2623C220.439 60.2623 220.558 60.1457 220.558 60.0019Z" fill="url(#paint73_linear_441_1153)"/>
<path d="M237.219 60.0017C237.219 60.0819 237.157 60.142 237.076 60.142C236.994 60.142 236.933 60.0819 236.933 60.0017C236.933 59.9216 236.994 59.8615 237.076 59.8615C237.157 59.8815 237.219 59.9416 237.219 60.0017Z" fill="url(#paint74_linear_441_1153)"/>
<path d="M4.09353 45.5174C4.09353 44.4109 3.17716 43.514 2.04677 43.514C0.916368 43.514 0 44.4109 0 45.5174C0 46.6238 0.916368 47.5208 2.04677 47.5208C3.17716 47.5208 4.09353 46.6238 4.09353 45.5174Z" fill="url(#paint75_linear_441_1153)"/>
<path d="M20.7537 45.5175C20.7537 46.5592 19.894 47.3806 18.8502 47.3806C17.7858 47.3806 16.9467 46.5392 16.9467 45.5175C16.9467 44.4757 17.8063 43.6543 18.8502 43.6543C19.894 43.6343 20.7537 44.4757 20.7537 45.5175Z" fill="url(#paint76_linear_441_1153)"/>
<path d="M37.3939 45.5174C37.3939 44.5548 36.5967 43.7744 35.6132 43.7744C34.6298 43.7744 33.8325 44.5548 33.8325 45.5174C33.8325 46.48 34.6298 47.2603 35.6132 47.2603C36.5967 47.2603 37.3939 46.48 37.3939 45.5174Z" fill="url(#paint77_linear_441_1153)"/>
<path d="M54.0553 45.5168C54.0553 44.6316 53.3222 43.9141 52.4179 43.9141C51.5136 43.9141 50.7805 44.6316 50.7805 45.5168C50.7805 46.402 51.5136 47.1195 52.4179 47.1195C53.3222 47.1195 54.0553 46.402 54.0553 45.5168Z" fill="url(#paint78_linear_441_1153)"/>
<path d="M70.6949 45.5171C70.6949 46.3184 70.0195 46.9796 69.2008 46.9796C68.3616 46.9796 67.7066 46.3184 67.7066 45.5171C67.7066 44.7157 68.382 44.0546 69.2008 44.0546C70.0195 44.0346 70.6949 44.6957 70.6949 45.5171Z" fill="url(#paint79_linear_441_1153)"/>
<path d="M87.3555 45.517C87.3555 46.2582 86.7415 46.8593 85.9842 46.8593C85.2269 46.8593 84.6128 46.2582 84.6128 45.517C84.6128 44.7757 85.2269 44.1747 85.9842 44.1747C86.7415 44.1747 87.3555 44.7757 87.3555 45.517Z" fill="url(#paint80_linear_441_1153)"/>
<path d="M103.997 45.5173C103.997 44.8535 103.447 44.3153 102.769 44.3153C102.09 44.3153 101.54 44.8535 101.54 45.5173C101.54 46.1812 102.09 46.7194 102.769 46.7194C103.447 46.7194 103.997 46.1812 103.997 45.5173Z" fill="url(#paint81_linear_441_1153)"/>
<path d="M120.656 45.5167C120.656 46.0977 120.165 46.5785 119.572 46.5785C118.978 46.5785 118.487 46.0977 118.487 45.5167C118.487 44.9357 118.978 44.4549 119.572 44.4549C120.165 44.4349 120.656 44.9157 120.656 45.5167Z" fill="url(#paint82_linear_441_1153)"/>
<path d="M137.317 45.5176C137.317 46.0385 136.887 46.4592 136.355 46.4592C135.822 46.4592 135.393 46.0385 135.393 45.5176C135.393 44.9968 135.822 44.576 136.355 44.576C136.887 44.576 137.317 44.9968 137.317 45.5176Z" fill="url(#paint83_linear_441_1153)"/>
<path d="M153.958 45.517C153.958 45.9578 153.589 46.3184 153.139 46.3184C152.689 46.3184 152.32 45.9578 152.32 45.517C152.32 45.0763 152.689 44.7157 153.139 44.7157C153.589 44.7157 153.958 45.0562 153.958 45.517Z" fill="url(#paint84_linear_441_1153)"/>
<path d="M170.618 45.5173C170.618 45.8779 170.311 46.1784 169.943 46.1784C169.574 46.1784 169.267 45.8779 169.267 45.5173C169.267 45.1567 169.574 44.8562 169.943 44.8562C170.311 44.8361 170.618 45.1367 170.618 45.5173Z" fill="url(#paint85_linear_441_1153)"/>
<path d="M187.278 45.5172C187.278 45.2185 187.031 44.9763 186.726 44.9763C186.42 44.9763 186.173 45.2185 186.173 45.5172C186.173 45.8159 186.42 46.0581 186.726 46.0581C187.031 46.0581 187.278 45.8159 187.278 45.5172Z" fill="url(#paint86_linear_441_1153)"/>
<path d="M203.92 45.5176C203.92 45.2963 203.736 45.1169 203.51 45.1169C203.284 45.1169 203.101 45.2963 203.101 45.5176C203.101 45.7388 203.284 45.9182 203.51 45.9182C203.736 45.9182 203.92 45.7388 203.92 45.5176Z" fill="url(#paint87_linear_441_1153)"/>
<path d="M220.558 45.5169C220.558 45.3731 220.439 45.2565 220.292 45.2565C220.146 45.2565 220.027 45.3731 220.027 45.5169C220.027 45.6608 220.146 45.7774 220.292 45.7774C220.439 45.7774 220.558 45.6608 220.558 45.5169Z" fill="url(#paint88_linear_441_1153)"/>
<path d="M237.219 45.5168C237.219 45.597 237.157 45.6571 237.076 45.6571C236.994 45.6571 236.933 45.597 236.933 45.5168C236.933 45.4367 236.994 45.3766 237.076 45.3766C237.157 45.3766 237.219 45.4367 237.219 45.5168Z" fill="url(#paint89_linear_441_1153)"/>
<path d="M4.09353 31.0125C4.09353 29.906 3.17716 29.0091 2.04677 29.0091C0.916368 29.0091 0 29.906 0 31.0125C0 32.1189 0.916368 33.0159 2.04677 33.0159C3.17716 33.0159 4.09353 32.1189 4.09353 31.0125Z" fill="url(#paint90_linear_441_1153)"/>
<path d="M20.7537 31.0127C20.7537 32.0545 19.894 32.8759 18.8502 32.8759C17.7858 32.8759 16.9467 32.0344 16.9467 31.0127C16.9467 29.9709 17.8063 29.1496 18.8502 29.1496C19.894 29.1295 20.7537 29.9709 20.7537 31.0127Z" fill="url(#paint91_linear_441_1153)"/>
<path d="M37.3939 31.0126C37.3939 31.9742 36.5957 32.7556 35.6132 32.7556C34.6308 32.7556 33.8325 31.9742 33.8325 31.0126C33.8325 30.051 34.6308 29.2697 35.6132 29.2697C36.5957 29.2697 37.3939 30.051 37.3939 31.0126Z" fill="url(#paint92_linear_441_1153)"/>
<path d="M54.0553 31.012C54.0553 31.8935 53.3185 32.6147 52.4179 32.6147C51.5173 32.6147 50.7805 31.8935 50.7805 31.012C50.7805 30.1305 51.5173 29.4093 52.4179 29.4093C53.3185 29.4093 54.0553 30.1305 54.0553 31.012Z" fill="url(#paint93_linear_441_1153)"/>
<path d="M70.6949 31.0124C70.6949 31.8137 70.0195 32.4749 69.2008 32.4749C68.3616 32.4749 67.7066 31.8137 67.7066 31.0124C67.7066 30.191 68.382 29.5499 69.2008 29.5499C70.0195 29.5299 70.6949 30.191 70.6949 31.0124Z" fill="url(#paint94_linear_441_1153)"/>
<path d="M87.3555 31.0122C87.3555 31.7535 86.7415 32.3545 85.9842 32.3545C85.2269 32.3545 84.6128 31.7535 84.6128 31.0122C84.6128 30.271 85.2269 29.6699 85.9842 29.6699C86.7415 29.6699 87.3555 30.271 87.3555 31.0122Z" fill="url(#paint95_linear_441_1153)"/>
<path d="M103.997 31.0126C103.997 31.6737 103.444 32.2146 102.769 32.2146C102.093 32.2146 101.54 31.6737 101.54 31.0126C101.54 30.3515 102.093 29.8105 102.769 29.8105C103.464 29.8105 103.997 30.3515 103.997 31.0126Z" fill="url(#paint96_linear_441_1153)"/>
<path d="M120.656 31.0119C120.656 31.5929 120.165 32.0737 119.572 32.0737C118.978 32.0737 118.487 31.5929 118.487 31.0119C118.487 30.431 118.978 29.9501 119.572 29.9501C120.165 29.9301 120.656 30.4109 120.656 31.0119Z" fill="url(#paint97_linear_441_1153)"/>
<path d="M137.317 31.0128C137.317 31.5337 136.887 31.9544 136.355 31.9544C135.822 31.9544 135.393 31.5337 135.393 31.0128C135.393 30.4919 135.822 30.0712 136.355 30.0712C136.887 30.0712 137.317 30.4919 137.317 31.0128Z" fill="url(#paint98_linear_441_1153)"/>
<path d="M153.958 31.0122C153.958 31.4529 153.589 31.8135 153.139 31.8135C152.689 31.8135 152.32 31.4529 152.32 31.0122C152.32 30.5715 152.689 30.2108 153.139 30.2108C153.589 30.2108 153.958 30.5715 153.958 31.0122Z" fill="url(#paint99_linear_441_1153)"/>
<path d="M170.618 31.0126C170.618 31.3732 170.311 31.6737 169.943 31.6737C169.574 31.6737 169.267 31.3732 169.267 31.0126C169.267 30.652 169.574 30.3515 169.943 30.3515C170.311 30.3314 170.618 30.632 170.618 31.0126Z" fill="url(#paint100_linear_441_1153)"/>
<path d="M187.258 31.0124C187.258 31.3129 187.012 31.5533 186.705 31.5533C186.398 31.5533 186.153 31.3129 186.153 31.0124C186.153 30.7119 186.398 30.4715 186.705 30.4715C187.012 30.4715 187.258 30.7119 187.258 31.0124Z" fill="url(#paint101_linear_441_1153)"/>
<path d="M203.92 31.0128C203.92 31.2332 203.736 31.4135 203.51 31.4135C203.285 31.4135 203.101 31.2332 203.101 31.0128C203.101 30.7924 203.285 30.6121 203.51 30.6121C203.736 30.6121 203.92 30.7924 203.92 31.0128Z" fill="url(#paint102_linear_441_1153)"/>
<path d="M220.578 31.0121C220.578 31.1524 220.456 31.2726 220.313 31.2726C220.17 31.2726 220.048 31.1524 220.048 31.0121C220.048 30.8719 220.17 30.7517 220.313 30.7517C220.456 30.7517 220.578 30.8519 220.578 31.0121Z" fill="url(#paint103_linear_441_1153)"/>
<path d="M237.219 31.012C237.219 31.0921 237.157 31.1522 237.076 31.1522C236.994 31.1522 236.933 31.0921 236.933 31.012C236.933 30.9319 236.994 30.8717 237.076 30.8717C237.157 30.8717 237.219 30.9319 237.219 31.012Z" fill="url(#paint104_linear_441_1153)"/>
<path d="M4.09353 16.5084C4.09353 15.402 3.17716 14.505 2.04677 14.505C0.916368 14.505 0 15.402 0 16.5084C0 17.6148 0.916368 18.5118 2.04677 18.5118C3.17716 18.5118 4.09353 17.6148 4.09353 16.5084Z" fill="url(#paint105_linear_441_1153)"/>
<path d="M20.7537 16.5087C20.7537 17.5504 19.894 18.3718 18.8502 18.3718C17.7858 18.3718 16.9467 17.5304 16.9467 16.5087C16.9467 15.4669 17.8063 14.6455 18.8502 14.6455C19.894 14.6455 20.7537 15.4669 20.7537 16.5087Z" fill="url(#paint106_linear_441_1153)"/>
<path d="M37.3939 16.5085C37.3939 17.4701 36.5957 18.2515 35.6132 18.2515C34.6308 18.2515 33.8325 17.4701 33.8325 16.5085C33.8325 15.5469 34.6308 14.7656 35.6132 14.7656C36.5957 14.7656 37.3939 15.5469 37.3939 16.5085Z" fill="url(#paint107_linear_441_1153)"/>
<path d="M54.0553 16.5079C54.0553 17.3894 53.3185 18.1106 52.4179 18.1106C51.5173 18.1106 50.7805 17.3894 50.7805 16.5079C50.7805 15.6264 51.5173 14.9052 52.4179 14.9052C53.3185 14.9052 54.0553 15.6264 54.0553 16.5079Z" fill="url(#paint108_linear_441_1153)"/>
<path d="M70.6949 16.5083C70.6949 17.3096 70.0195 17.9708 69.2008 17.9708C68.3616 17.9708 67.7066 17.3096 67.7066 16.5083C67.7066 15.6869 68.382 15.0458 69.2008 15.0458C70.0195 15.0458 70.6949 15.7069 70.6949 16.5083Z" fill="url(#paint109_linear_441_1153)"/>
<path d="M87.3555 16.5082C87.3555 17.2494 86.7415 17.8505 85.9842 17.8505C85.2269 17.8505 84.6128 17.2494 84.6128 16.5082C84.6128 15.7669 85.2269 15.1659 85.9842 15.1659C86.7415 15.1659 87.3555 15.7669 87.3555 16.5082Z" fill="url(#paint110_linear_441_1153)"/>
<path d="M103.997 16.5085C103.997 17.1696 103.444 17.7106 102.769 17.7106C102.093 17.7106 101.54 17.1696 101.54 16.5085C101.54 15.8474 102.093 15.3065 102.769 15.3065C103.464 15.3065 103.997 15.8474 103.997 16.5085Z" fill="url(#paint111_linear_441_1153)"/>
<path d="M120.656 16.5078C120.656 17.0888 120.165 17.5696 119.572 17.5696C118.978 17.5696 118.487 17.0888 118.487 16.5078C118.487 15.9269 118.978 15.446 119.572 15.446C120.165 15.446 120.656 15.9269 120.656 16.5078Z" fill="url(#paint112_linear_441_1153)"/>
<path d="M137.317 16.5087C137.317 17.0296 136.887 17.4503 136.355 17.4503C135.822 17.4503 135.393 17.0296 135.393 16.5087C135.393 15.9878 135.822 15.5671 136.355 15.5671C136.887 15.5671 137.317 15.9878 137.317 16.5087Z" fill="url(#paint113_linear_441_1153)"/>
<path d="M153.958 16.5081C153.958 16.9488 153.589 17.3094 153.139 17.3094C152.689 17.3094 152.32 16.9488 152.32 16.5081C152.32 16.0673 152.689 15.7067 153.139 15.7067C153.589 15.7067 153.958 16.0673 153.958 16.5081Z" fill="url(#paint114_linear_441_1153)"/>
<path d="M170.618 16.5085C170.618 16.8691 170.311 17.1696 169.943 17.1696C169.574 17.1696 169.267 16.8691 169.267 16.5085C169.267 16.1479 169.574 15.8474 169.943 15.8474C170.311 15.8474 170.618 16.1479 170.618 16.5085Z" fill="url(#paint115_linear_441_1153)"/>
<path d="M187.258 16.5084C187.258 16.8089 187.012 17.0493 186.705 17.0493C186.398 17.0493 186.153 16.8089 186.153 16.5084C186.153 16.2079 186.398 15.9675 186.705 15.9675C187.012 15.9675 187.258 16.2079 187.258 16.5084Z" fill="url(#paint116_linear_441_1153)"/>
<path d="M203.92 16.5087C203.92 16.7291 203.736 16.9094 203.51 16.9094C203.285 16.9094 203.101 16.7291 203.101 16.5087C203.101 16.2883 203.285 16.108 203.51 16.108C203.736 16.108 203.92 16.2883 203.92 16.5087Z" fill="url(#paint117_linear_441_1153)"/>
<path d="M220.578 16.5081C220.578 16.6483 220.456 16.7685 220.313 16.7685C220.17 16.7685 220.048 16.6483 220.048 16.5081C220.048 16.3678 220.17 16.2476 220.313 16.2476C220.456 16.2476 220.578 16.3678 220.578 16.5081Z" fill="url(#paint118_linear_441_1153)"/>
<path d="M237.219 16.508C237.219 16.5881 237.157 16.6482 237.076 16.6482C236.994 16.6482 236.933 16.5881 236.933 16.508C236.933 16.4278 236.994 16.3677 237.076 16.3677C237.157 16.3677 237.219 16.4278 237.219 16.508Z" fill="url(#paint119_linear_441_1153)"/>
<path d="M4.09353 2.00339C4.09353 0.896947 3.17716 0 2.04677 0C0.916368 0 0 0.896947 0 2.00339C0 3.10983 0.916368 4.00678 2.04677 4.00678C3.17716 4.00678 4.09353 3.10983 4.09353 2.00339Z" fill="url(#paint120_linear_441_1153)"/>
<path d="M20.7537 2.00385C20.7537 3.04562 19.894 3.867 18.8502 3.867C17.7858 3.867 16.9467 3.02558 16.9467 2.00385C16.9467 0.962092 17.8063 0.140703 18.8502 0.140703C19.894 0.140703 20.7537 0.982126 20.7537 2.00385Z" fill="url(#paint121_linear_441_1153)"/>
<path d="M37.3939 2.00375C37.3939 2.96538 36.5957 3.7467 35.6132 3.7467C34.6308 3.7467 33.8325 2.96538 33.8325 2.00375C33.8325 1.04213 34.6308 0.260799 35.6132 0.260799C36.5957 0.260799 37.3939 1.04213 37.3939 2.00375Z" fill="url(#paint122_linear_441_1153)"/>
<path d="M54.0553 2.00312C54.0553 1.11797 53.3222 0.400418 52.4179 0.400418C51.5136 0.400418 50.7805 1.11797 50.7805 2.00312C50.7805 2.88827 51.5136 3.60584 52.4179 3.60584C53.3222 3.60584 54.0553 2.88827 54.0553 2.00312Z" fill="url(#paint123_linear_441_1153)"/>
<path d="M70.6949 2.0034C70.6949 2.80476 70.0195 3.46588 69.2008 3.46588C68.3616 3.46588 67.7066 2.80476 67.7066 2.0034C67.7066 1.18201 68.382 0.540938 69.2008 0.540938C70.0195 0.540938 70.6949 1.20205 70.6949 2.0034Z" fill="url(#paint124_linear_441_1153)"/>
<path d="M87.3555 2.00332C87.3555 2.74457 86.7415 3.34558 85.9842 3.34558C85.2269 3.34558 84.6128 2.74457 84.6128 2.00332C84.6128 1.26206 85.2269 0.661049 85.9842 0.661049C86.7415 0.681083 87.3555 1.26206 87.3555 2.00332Z" fill="url(#paint125_linear_441_1153)"/>
<path d="M103.997 2.00373C103.997 2.66485 103.444 3.20576 102.769 3.20576C102.093 3.20576 101.54 2.66485 101.54 2.00373C101.54 1.34261 102.093 0.801699 102.769 0.801699C103.464 0.801699 103.997 1.34261 103.997 2.00373Z" fill="url(#paint126_linear_441_1153)"/>
<path d="M120.656 2.0031C120.656 2.58408 120.165 3.06489 119.572 3.06489C118.978 3.06489 118.487 2.58408 118.487 2.0031C118.487 1.42211 118.978 0.941302 119.572 0.941302C120.165 0.941302 120.656 1.42211 120.656 2.0031Z" fill="url(#paint127_linear_441_1153)"/>
<path d="M137.317 2.00397C137.317 2.52485 136.887 2.94556 136.355 2.94556C135.822 2.94556 135.393 2.52485 135.393 2.00397C135.393 1.48309 135.822 1.06238 136.355 1.06238C136.887 1.08241 137.317 1.50312 137.317 2.00397Z" fill="url(#paint128_linear_441_1153)"/>
<path d="M153.958 2.00328C153.958 2.44402 153.589 2.80463 153.139 2.80463C152.689 2.80463 152.32 2.44402 152.32 2.00328C152.32 1.56253 152.689 1.20192 153.139 1.20192C153.589 1.20192 153.958 1.56253 153.958 2.00328Z" fill="url(#paint129_linear_441_1153)"/>
<path d="M170.618 2.00368C170.618 2.36429 170.311 2.6648 169.943 2.6648C169.574 2.6648 169.267 2.36429 169.267 2.00368C169.267 1.64307 169.574 1.34256 169.943 1.34256C170.311 1.34256 170.618 1.64307 170.618 2.00368Z" fill="url(#paint130_linear_441_1153)"/>
<path d="M187.258 2.00352C187.258 2.30403 187.012 2.54444 186.705 2.54444C186.398 2.54444 186.153 2.30403 186.153 2.00352C186.153 1.70301 186.398 1.46261 186.705 1.46261C187.012 1.48264 187.258 1.72304 187.258 2.00352Z" fill="url(#paint131_linear_441_1153)"/>
<path d="M203.92 2.00392C203.92 1.78264 203.736 1.60325 203.51 1.60325C203.284 1.60325 203.101 1.78264 203.101 2.00392C203.101 2.22521 203.284 2.40461 203.51 2.40461C203.736 2.40461 203.92 2.22521 203.92 2.00392Z" fill="url(#paint132_linear_441_1153)"/>
<path d="M220.578 2.00331C220.578 2.14354 220.456 2.26374 220.313 2.26374C220.17 2.26374 220.048 2.14354 220.048 2.00331C220.048 1.86307 220.17 1.74287 220.313 1.74287C220.456 1.74287 220.578 1.86307 220.578 2.00331Z" fill="url(#paint133_linear_441_1153)"/>
<path d="M237.219 2.0032C237.219 2.08334 237.157 2.14344 237.076 2.14344C236.994 2.14344 236.933 2.08334 236.933 2.0032C236.933 1.92307 236.994 1.86297 237.076 1.86297C237.157 1.883 237.219 1.9431 237.219 2.0032Z" fill="url(#paint134_linear_441_1153)"/>
<defs>
<linearGradient id="paint0_linear_441_1153" x1="0" y1="0" x2="199.54" y2="57.5609" gradientUnits="userSpaceOnUse">
<stop stop-color="#5C4DF1"/>
<stop offset="0.5" stop-color="#EA52F0" stop-opacity="0.69"/>
<stop offset="1" stop-color="#EB9F5C" stop-opacity="0.19"/>
</linearGradient>
<linearGradient id="paint1_linear_441_1153" x1="0" y1="0" x2="199.54" y2="57.5609" gradientUnits="userSpaceOnUse">
<stop stop-color="#5C4DF1"/>
<stop offset="0.5" stop-color="#EA52F0" stop-opacity="0.69"/>
<stop offset="1" stop-color="#EB9F5C" stop-opacity="0.19"/>
</linearGradient>
<linearGradient id="paint2_linear_441_1153" x1="0" y1="0" x2="199.54" y2="57.5609" gradientUnits="userSpaceOnUse">
<stop stop-color="#5C4DF1"/>
<stop offset="0.5" stop-color="#EA52F0" stop-opacity="0.69"/>
<stop offset="1" stop-color="#EB9F5C" stop-opacity="0.19"/>
</linearGradient>
<linearGradient id="paint3_linear_441_1153" x1="0" y1="0" x2="199.54" y2="57.5609" gradientUnits="userSpaceOnUse">
<stop stop-color="#5C4DF1"/>
<stop offset="0.5" stop-color="#EA52F0" stop-opacity="0.69"/>
<stop offset="1" stop-color="#EB9F5C" stop-opacity="0.19"/>
</linearGradient>
<linearGradient id="paint4_linear_441_1153" x1="0" y1="0" x2="199.54" y2="57.5609" gradientUnits="userSpaceOnUse">
<stop stop-color="#5C4DF1"/>
<stop offset="0.5" stop-color="#EA52F0" stop-opacity="0.69"/>
<stop offset="1" stop-color="#EB9F5C" stop-opacity="0.19"/>
</linearGradient>
<linearGradient id="paint5_linear_441_1153" x1="0" y1="0" x2="199.54" y2="57.5609" gradientUnits="userSpaceOnUse">
<stop stop-color="#5C4DF1"/>
<stop offset="0.5" stop-color="#EA52F0" stop-opacity="0.69"/>
<stop offset="1" stop-color="#EB9F5C" stop-opacity="0.19"/>
</linearGradient>
<linearGradient id="paint6_linear_441_1153" x1="0" y1="0" x2="199.54" y2="57.5609" gradientUnits="userSpaceOnUse">
<stop stop-color="#5C4DF1"/>
<stop offset="0.5" stop-color="#EA52F0" stop-opacity="0.69"/>
<stop offset="1" stop-color="#EB9F5C" stop-opacity="0.19"/>
</linearGradient>
<linearGradient id="paint7_linear_441_1153" x1="0" y1="0" x2="199.54" y2="57.5609" gradientUnits="userSpaceOnUse">
<stop stop-color="#5C4DF1"/>
<stop offset="0.5" stop-color="#EA52F0" stop-opacity="0.69"/>
<stop offset="1" stop-color="#EB9F5C" stop-opacity="0.19"/>
</linearGradient>
<linearGradient id="paint8_linear_441_1153" x1="0" y1="0" x2="199.54" y2="57.5609" gradientUnits="userSpaceOnUse">
<stop stop-color="#5C4DF1"/>
<stop offset="0.5" stop-color="#EA52F0" stop-opacity="0.69"/>
<stop offset="1" stop-color="#EB9F5C" stop-opacity="0.19"/>
</linearGradient>
<linearGradient id="paint9_linear_441_1153" x1="0" y1="0" x2="199.54" y2="57.5609" gradientUnits="userSpaceOnUse">
<stop stop-color="#5C4DF1"/>
<stop offset="0.5" stop-color="#EA52F0" stop-opacity="0.69"/>
<stop offset="1" stop-color="#EB9F5C" stop-opacity="0.19"/>
</linearGradient>
<linearGradient id="paint10_linear_441_1153" x1="0" y1="0" x2="199.54" y2="57.5609" gradientUnits="userSpaceOnUse">
<stop stop-color="#5C4DF1"/>
<stop offset="0.5" stop-color="#EA52F0" stop-opacity="0.69"/>
<stop offset="1" stop-color="#EB9F5C" stop-opacity="0.19"/>
</linearGradient>
<linearGradient id="paint11_linear_441_1153" x1="0" y1="0" x2="199.54" y2="57.5609" gradientUnits="userSpaceOnUse">
<stop stop-color="#5C4DF1"/>
<stop offset="0.5" stop-color="#EA52F0" stop-opacity="0.69"/>
<stop offset="1" stop-color="#EB9F5C" stop-opacity="0.19"/>
</linearGradient>
<linearGradient id="paint12_linear_441_1153" x1="0" y1="0" x2="199.54" y2="57.5609" gradientUnits="userSpaceOnUse">
<stop stop-color="#5C4DF1"/>
<stop offset="0.5" stop-color="#EA52F0" stop-opacity="0.69"/>
<stop offset="1" stop-color="#EB9F5C" stop-opacity="0.19"/>
</linearGradient>
<linearGradient id="paint13_linear_441_1153" x1="0" y1="0" x2="199.54" y2="57.5609" gradientUnits="userSpaceOnUse">
<stop stop-color="#5C4DF1"/>
<stop offset="0.5" stop-color="#EA52F0" stop-opacity="0.69"/>
<stop offset="1" stop-color="#EB9F5C" stop-opacity="0.19"/>
</linearGradient>
<linearGradient id="paint14_linear_441_1153" x1="0" y1="0" x2="199.54" y2="57.5609" gradientUnits="userSpaceOnUse">
<stop stop-color="#5C4DF1"/>
<stop offset="0.5" stop-color="#EA52F0" stop-opacity="0.69"/>
<stop offset="1" stop-color="#EB9F5C" stop-opacity="0.19"/>
</linearGradient>
<linearGradient id="paint15_linear_441_1153" x1="0" y1="0" x2="199.54" y2="57.5609" gradientUnits="userSpaceOnUse">
<stop stop-color="#5C4DF1"/>
<stop offset="0.5" stop-color="#EA52F0" stop-opacity="0.69"/>
<stop offset="1" stop-color="#EB9F5C" stop-opacity="0.19"/>
</linearGradient>
<linearGradient id="paint16_linear_441_1153" x1="0" y1="0" x2="199.54" y2="57.5609" gradientUnits="userSpaceOnUse">
<stop stop-color="#5C4DF1"/>
<stop offset="0.5" stop-color="#EA52F0" stop-opacity="0.69"/>
<stop offset="1" stop-color="#EB9F5C" stop-opacity="0.19"/>
</linearGradient>
<linearGradient id="paint17_linear_441_1153" x1="0" y1="0" x2="199.54" y2="57.5609" gradientUnits="userSpaceOnUse">
<stop stop-color="#5C4DF1"/>
<stop offset="0.5" stop-color="#EA52F0" stop-opacity="0.69"/>
<stop offset="1" stop-color="#EB9F5C" stop-opacity="0.19"/>
</linearGradient>
<linearGradient id="paint18_linear_441_1153" x1="0" y1="0" x2="199.54" y2="57.5609" gradientUnits="userSpaceOnUse">
<stop stop-color="#5C4DF1"/>
<stop offset="0.5" stop-color="#EA52F0" stop-opacity="0.69"/>
<stop offset="1" stop-color="#EB9F5C" stop-opacity="0.19"/>
</linearGradient>
<linearGradient id="paint19_linear_441_1153" x1="0" y1="0" x2="199.54" y2="57.5609" gradientUnits="userSpaceOnUse">
<stop stop-color="#5C4DF1"/>
<stop offset="0.5" stop-color="#EA52F0" stop-opacity="0.69"/>
<stop offset="1" stop-color="#EB9F5C" stop-opacity="0.19"/>
</linearGradient>
<linearGradient id="paint20_linear_441_1153" x1="0" y1="0" x2="199.54" y2="57.5609" gradientUnits="userSpaceOnUse">
<stop stop-color="#5C4DF1"/>
<stop offset="0.5" stop-color="#EA52F0" stop-opacity="0.69"/>
<stop offset="1" stop-color="#EB9F5C" stop-opacity="0.19"/>
</linearGradient>
<linearGradient id="paint21_linear_441_1153" x1="0" y1="0" x2="199.54" y2="57.5609" gradientUnits="userSpaceOnUse">
<stop stop-color="#5C4DF1"/>
<stop offset="0.5" stop-color="#EA52F0" stop-opacity="0.69"/>
<stop offset="1" stop-color="#EB9F5C" stop-opacity="0.19"/>
</linearGradient>
<linearGradient id="paint22_linear_441_1153" x1="0" y1="0" x2="199.54" y2="57.5609" gradientUnits="userSpaceOnUse">
<stop stop-color="#5C4DF1"/>
<stop offset="0.5" stop-color="#EA52F0" stop-opacity="0.69"/>
<stop offset="1" stop-color="#EB9F5C" stop-opacity="0.19"/>
</linearGradient>
<linearGradient id="paint23_linear_441_1153" x1="0" y1="0" x2="199.54" y2="57.5609" gradientUnits="userSpaceOnUse">
<stop stop-color="#5C4DF1"/>
<stop offset="0.5" stop-color="#EA52F0" stop-opacity="0.69"/>
<stop offset="1" stop-color="#EB9F5C" stop-opacity="0.19"/>
</linearGradient>
<linearGradient id="paint24_linear_441_1153" x1="0" y1="0" x2="199.54" y2="57.5609" gradientUnits="userSpaceOnUse">
<stop stop-color="#5C4DF1"/>
<stop offset="0.5" stop-color="#EA52F0" stop-opacity="0.69"/>
<stop offset="1" stop-color="#EB9F5C" stop-opacity="0.19"/>
</linearGradient>
<linearGradient id="paint25_linear_441_1153" x1="0" y1="0" x2="199.54" y2="57.5609" gradientUnits="userSpaceOnUse">
<stop stop-color="#5C4DF1"/>
<stop offset="0.5" stop-color="#EA52F0" stop-opacity="0.69"/>
<stop offset="1" stop-color="#EB9F5C" stop-opacity="0.19"/>
</linearGradient>
<linearGradient id="paint26_linear_441_1153" x1="0" y1="0" x2="199.54" y2="57.5609" gradientUnits="userSpaceOnUse">
<stop stop-color="#5C4DF1"/>
<stop offset="0.5" stop-color="#EA52F0" stop-opacity="0.69"/>
<stop offset="1" stop-color="#EB9F5C" stop-opacity="0.19"/>
</linearGradient>
<linearGradient id="paint27_linear_441_1153" x1="0" y1="0" x2="199.54" y2="57.5609" gradientUnits="userSpaceOnUse">
<stop stop-color="#5C4DF1"/>
<stop offset="0.5" stop-color="#EA52F0" stop-opacity="0.69"/>
<stop offset="1" stop-color="#EB9F5C" stop-opacity="0.19"/>
</linearGradient>
<linearGradient id="paint28_linear_441_1153" x1="0" y1="0" x2="199.54" y2="57.5609" gradientUnits="userSpaceOnUse">
<stop stop-color="#5C4DF1"/>
<stop offset="0.5" stop-color="#EA52F0" stop-opacity="0.69"/>
<stop offset="1" stop-color="#EB9F5C" stop-opacity="0.19"/>
</linearGradient>
<linearGradient id="paint29_linear_441_1153" x1="0" y1="0" x2="199.54" y2="57.5609" gradientUnits="userSpaceOnUse">
<stop stop-color="#5C4DF1"/>
<stop offset="0.5" stop-color="#EA52F0" stop-opacity="0.69"/>
<stop offset="1" stop-color="#EB9F5C" stop-opacity="0.19"/>
</linearGradient>
<linearGradient id="paint30_linear_441_1153" x1="0" y1="0" x2="199.54" y2="57.5609" gradientUnits="userSpaceOnUse">
<stop stop-color="#5C4DF1"/>
<stop offset="0.5" stop-color="#EA52F0" stop-opacity="0.69"/>
<stop offset="1" stop-color="#EB9F5C" stop-opacity="0.19"/>
</linearGradient>
<linearGradient id="paint31_linear_441_1153" x1="0" y1="0" x2="199.54" y2="57.5609" gradientUnits="userSpaceOnUse">
<stop stop-color="#5C4DF1"/>
<stop offset="0.5" stop-color="#EA52F0" stop-opacity="0.69"/>
<stop offset="1" stop-color="#EB9F5C" stop-opacity="0.19"/>
</linearGradient>
<linearGradient id="paint32_linear_441_1153" x1="0" y1="0" x2="199.54" y2="57.5609" gradientUnits="userSpaceOnUse">
<stop stop-color="#5C4DF1"/>
<stop offset="0.5" stop-color="#EA52F0" stop-opacity="0.69"/>
<stop offset="1" stop-color="#EB9F5C" stop-opacity="0.19"/>
</linearGradient>
<linearGradient id="paint33_linear_441_1153" x1="0" y1="0" x2="199.54" y2="57.5609" gradientUnits="userSpaceOnUse">
<stop stop-color="#5C4DF1"/>
<stop offset="0.5" stop-color="#EA52F0" stop-opacity="0.69"/>
<stop offset="1" stop-color="#EB9F5C" stop-opacity="0.19"/>
</linearGradient>
<linearGradient id="paint34_linear_441_1153" x1="0" y1="0" x2="199.54" y2="57.5609" gradientUnits="userSpaceOnUse">
<stop stop-color="#5C4DF1"/>
<stop offset="0.5" stop-color="#EA52F0" stop-opacity="0.69"/>
<stop offset="1" stop-color="#EB9F5C" stop-opacity="0.19"/>
</linearGradient>
<linearGradient id="paint35_linear_441_1153" x1="0" y1="0" x2="199.54" y2="57.5609" gradientUnits="userSpaceOnUse">
<stop stop-color="#5C4DF1"/>
<stop offset="0.5" stop-color="#EA52F0" stop-opacity="0.69"/>
<stop offset="1" stop-color="#EB9F5C" stop-opacity="0.19"/>
</linearGradient>
<linearGradient id="paint36_linear_441_1153" x1="0" y1="0" x2="199.54" y2="57.5609" gradientUnits="userSpaceOnUse">
<stop stop-color="#5C4DF1"/>
<stop offset="0.5" stop-color="#EA52F0" stop-opacity="0.69"/>
<stop offset="1" stop-color="#EB9F5C" stop-opacity="0.19"/>
</linearGradient>
<linearGradient id="paint37_linear_441_1153" x1="0" y1="0" x2="199.54" y2="57.5609" gradientUnits="userSpaceOnUse">
<stop stop-color="#5C4DF1"/>
<stop offset="0.5" stop-color="#EA52F0" stop-opacity="0.69"/>
<stop offset="1" stop-color="#EB9F5C" stop-opacity="0.19"/>
</linearGradient>
<linearGradient id="paint38_linear_441_1153" x1="0" y1="0" x2="199.54" y2="57.5609" gradientUnits="userSpaceOnUse">
<stop stop-color="#5C4DF1"/>
<stop offset="0.5" stop-color="#EA52F0" stop-opacity="0.69"/>
<stop offset="1" stop-color="#EB9F5C" stop-opacity="0.19"/>
</linearGradient>
<linearGradient id="paint39_linear_441_1153" x1="0" y1="0" x2="199.54" y2="57.5609" gradientUnits="userSpaceOnUse">
<stop stop-color="#5C4DF1"/>
<stop offset="0.5" stop-color="#EA52F0" stop-opacity="0.69"/>
<stop offset="1" stop-color="#EB9F5C" stop-opacity="0.19"/>
</linearGradient>
<linearGradient id="paint40_linear_441_1153" x1="0" y1="0" x2="199.54" y2="57.5609" gradientUnits="userSpaceOnUse">
<stop stop-color="#5C4DF1"/>
<stop offset="0.5" stop-color="#EA52F0" stop-opacity="0.69"/>
<stop offset="1" stop-color="#EB9F5C" stop-opacity="0.19"/>
</linearGradient>
<linearGradient id="paint41_linear_441_1153" x1="0" y1="0" x2="199.54" y2="57.5609" gradientUnits="userSpaceOnUse">
<stop stop-color="#5C4DF1"/>
<stop offset="0.5" stop-color="#EA52F0" stop-opacity="0.69"/>
<stop offset="1" stop-color="#EB9F5C" stop-opacity="0.19"/>
</linearGradient>
<linearGradient id="paint42_linear_441_1153" x1="0" y1="0" x2="199.54" y2="57.5609" gradientUnits="userSpaceOnUse">
<stop stop-color="#5C4DF1"/>
<stop offset="0.5" stop-color="#EA52F0" stop-opacity="0.69"/>
<stop offset="1" stop-color="#EB9F5C" stop-opacity="0.19"/>
</linearGradient>
<linearGradient id="paint43_linear_441_1153" x1="0" y1="0" x2="199.54" y2="57.5609" gradientUnits="userSpaceOnUse">
<stop stop-color="#5C4DF1"/>
<stop offset="0.5" stop-color="#EA52F0" stop-opacity="0.69"/>
<stop offset="1" stop-color="#EB9F5C" stop-opacity="0.19"/>
</linearGradient>
<linearGradient id="paint44_linear_441_1153" x1="0" y1="0" x2="199.54" y2="57.5609" gradientUnits="userSpaceOnUse">
<stop stop-color="#5C4DF1"/>
<stop offset="0.5" stop-color="#EA52F0" stop-opacity="0.69"/>
<stop offset="1" stop-color="#EB9F5C" stop-opacity="0.19"/>
</linearGradient>
<linearGradient id="paint45_linear_441_1153" x1="0" y1="0" x2="199.54" y2="57.5609" gradientUnits="userSpaceOnUse">
<stop stop-color="#5C4DF1"/>
<stop offset="0.5" stop-color="#EA52F0" stop-opacity="0.69"/>
<stop offset="1" stop-color="#EB9F5C" stop-opacity="0.19"/>
</linearGradient>
<linearGradient id="paint46_linear_441_1153" x1="0" y1="0" x2="199.54" y2="57.5609" gradientUnits="userSpaceOnUse">
<stop stop-color="#5C4DF1"/>
<stop offset="0.5" stop-color="#EA52F0" stop-opacity="0.69"/>
<stop offset="1" stop-color="#EB9F5C" stop-opacity="0.19"/>
</linearGradient>
<linearGradient id="paint47_linear_441_1153" x1="0" y1="0" x2="199.54" y2="57.5609" gradientUnits="userSpaceOnUse">
<stop stop-color="#5C4DF1"/>
<stop offset="0.5" stop-color="#EA52F0" stop-opacity="0.69"/>
<stop offset="1" stop-color="#EB9F5C" stop-opacity="0.19"/>
</linearGradient>
<linearGradient id="paint48_linear_441_1153" x1="0" y1="0" x2="199.54" y2="57.5609" gradientUnits="userSpaceOnUse">
<stop stop-color="#5C4DF1"/>
<stop offset="0.5" stop-color="#EA52F0" stop-opacity="0.69"/>
<stop offset="1" stop-color="#EB9F5C" stop-opacity="0.19"/>
</linearGradient>
<linearGradient id="paint49_linear_441_1153" x1="0" y1="0" x2="199.54" y2="57.5609" gradientUnits="userSpaceOnUse">
<stop stop-color="#5C4DF1"/>
<stop offset="0.5" stop-color="#EA52F0" stop-opacity="0.69"/>
<stop offset="1" stop-color="#EB9F5C" stop-opacity="0.19"/>
</linearGradient>
<linearGradient id="paint50_linear_441_1153" x1="0" y1="0" x2="199.54" y2="57.5609" gradientUnits="userSpaceOnUse">
<stop stop-color="#5C4DF1"/>
<stop offset="0.5" stop-color="#EA52F0" stop-opacity="0.69"/>
<stop offset="1" stop-color="#EB9F5C" stop-opacity="0.19"/>
</linearGradient>
<linearGradient id="paint51_linear_441_1153" x1="0" y1="0" x2="199.54" y2="57.5609" gradientUnits="userSpaceOnUse">
<stop stop-color="#5C4DF1"/>
<stop offset="0.5" stop-color="#EA52F0" stop-opacity="0.69"/>
<stop offset="1" stop-color="#EB9F5C" stop-opacity="0.19"/>
</linearGradient>
<linearGradient id="paint52_linear_441_1153" x1="0" y1="0" x2="199.54" y2="57.5609" gradientUnits="userSpaceOnUse">
<stop stop-color="#5C4DF1"/>
<stop offset="0.5" stop-color="#EA52F0" stop-opacity="0.69"/>
<stop offset="1" stop-color="#EB9F5C" stop-opacity="0.19"/>
</linearGradient>
<linearGradient id="paint53_linear_441_1153" x1="0" y1="0" x2="199.54" y2="57.5609" gradientUnits="userSpaceOnUse">
<stop stop-color="#5C4DF1"/>
<stop offset="0.5" stop-color="#EA52F0" stop-opacity="0.69"/>
<stop offset="1" stop-color="#EB9F5C" stop-opacity="0.19"/>
</linearGradient>
<linearGradient id="paint54_linear_441_1153" x1="0" y1="0" x2="199.54" y2="57.5609" gradientUnits="userSpaceOnUse">
<stop stop-color="#5C4DF1"/>
<stop offset="0.5" stop-color="#EA52F0" stop-opacity="0.69"/>
<stop offset="1" stop-color="#EB9F5C" stop-opacity="0.19"/>
</linearGradient>
<linearGradient id="paint55_linear_441_1153" x1="0" y1="0" x2="199.54" y2="57.5609" gradientUnits="userSpaceOnUse">
<stop stop-color="#5C4DF1"/>
<stop offset="0.5" stop-color="#EA52F0" stop-opacity="0.69"/>
<stop offset="1" stop-color="#EB9F5C" stop-opacity="0.19"/>
</linearGradient>
<linearGradient id="paint56_linear_441_1153" x1="0" y1="0" x2="199.54" y2="57.5609" gradientUnits="userSpaceOnUse">
<stop stop-color="#5C4DF1"/>
<stop offset="0.5" stop-color="#EA52F0" stop-opacity="0.69"/>
<stop offset="1" stop-color="#EB9F5C" stop-opacity="0.19"/>
</linearGradient>
<linearGradient id="paint57_linear_441_1153" x1="0" y1="0" x2="199.54" y2="57.5609" gradientUnits="userSpaceOnUse">
<stop stop-color="#5C4DF1"/>
<stop offset="0.5" stop-color="#EA52F0" stop-opacity="0.69"/>
<stop offset="1" stop-color="#EB9F5C" stop-opacity="0.19"/>
</linearGradient>
<linearGradient id="paint58_linear_441_1153" x1="0" y1="0" x2="199.54" y2="57.5609" gradientUnits="userSpaceOnUse">
<stop stop-color="#5C4DF1"/>
<stop offset="0.5" stop-color="#EA52F0" stop-opacity="0.69"/>
<stop offset="1" stop-color="#EB9F5C" stop-opacity="0.19"/>
</linearGradient>
<linearGradient id="paint59_linear_441_1153" x1="0" y1="0" x2="199.54" y2="57.5609" gradientUnits="userSpaceOnUse">
<stop stop-color="#5C4DF1"/>
<stop offset="0.5" stop-color="#EA52F0" stop-opacity="0.69"/>
<stop offset="1" stop-color="#EB9F5C" stop-opacity="0.19"/>
</linearGradient>
<linearGradient id="paint60_linear_441_1153" x1="0" y1="0" x2="199.54" y2="57.5609" gradientUnits="userSpaceOnUse">
<stop stop-color="#5C4DF1"/>
<stop offset="0.5" stop-color="#EA52F0" stop-opacity="0.69"/>
<stop offset="1" stop-color="#EB9F5C" stop-opacity="0.19"/>
</linearGradient>
<linearGradient id="paint61_linear_441_1153" x1="0" y1="0" x2="199.54" y2="57.5609" gradientUnits="userSpaceOnUse">
<stop stop-color="#5C4DF1"/>
<stop offset="0.5" stop-color="#EA52F0" stop-opacity="0.69"/>
<stop offset="1" stop-color="#EB9F5C" stop-opacity="0.19"/>
</linearGradient>
<linearGradient id="paint62_linear_441_1153" x1="0" y1="0" x2="199.54" y2="57.5609" gradientUnits="userSpaceOnUse">
<stop stop-color="#5C4DF1"/>
<stop offset="0.5" stop-color="#EA52F0" stop-opacity="0.69"/>
<stop offset="1" stop-color="#EB9F5C" stop-opacity="0.19"/>
</linearGradient>
<linearGradient id="paint63_linear_441_1153" x1="0" y1="0" x2="199.54" y2="57.5609" gradientUnits="userSpaceOnUse">
<stop stop-color="#5C4DF1"/>
<stop offset="0.5" stop-color="#EA52F0" stop-opacity="0.69"/>
<stop offset="1" stop-color="#EB9F5C" stop-opacity="0.19"/>
</linearGradient>
<linearGradient id="paint64_linear_441_1153" x1="0" y1="0" x2="199.54" y2="57.5609" gradientUnits="userSpaceOnUse">
<stop stop-color="#5C4DF1"/>
<stop offset="0.5" stop-color="#EA52F0" stop-opacity="0.69"/>
<stop offset="1" stop-color="#EB9F5C" stop-opacity="0.19"/>
</linearGradient>
<linearGradient id="paint65_linear_441_1153" x1="0" y1="0" x2="199.54" y2="57.5609" gradientUnits="userSpaceOnUse">
<stop stop-color="#5C4DF1"/>
<stop offset="0.5" stop-color="#EA52F0" stop-opacity="0.69"/>
<stop offset="1" stop-color="#EB9F5C" stop-opacity="0.19"/>
</linearGradient>
<linearGradient id="paint66_linear_441_1153" x1="0" y1="0" x2="199.54" y2="57.5609" gradientUnits="userSpaceOnUse">
<stop stop-color="#5C4DF1"/>
<stop offset="0.5" stop-color="#EA52F0" stop-opacity="0.69"/>
<stop offset="1" stop-color="#EB9F5C" stop-opacity="0.19"/>
</linearGradient>
<linearGradient id="paint67_linear_441_1153" x1="0" y1="0" x2="199.54" y2="57.5609" gradientUnits="userSpaceOnUse">
<stop stop-color="#5C4DF1"/>
<stop offset="0.5" stop-color="#EA52F0" stop-opacity="0.69"/>
<stop offset="1" stop-color="#EB9F5C" stop-opacity="0.19"/>
</linearGradient>
<linearGradient id="paint68_linear_441_1153" x1="0" y1="0" x2="199.54" y2="57.5609" gradientUnits="userSpaceOnUse">
<stop stop-color="#5C4DF1"/>
<stop offset="0.5" stop-color="#EA52F0" stop-opacity="0.69"/>
<stop offset="1" stop-color="#EB9F5C" stop-opacity="0.19"/>
</linearGradient>
<linearGradient id="paint69_linear_441_1153" x1="0" y1="0" x2="199.54" y2="57.5609" gradientUnits="userSpaceOnUse">
<stop stop-color="#5C4DF1"/>
<stop offset="0.5" stop-color="#EA52F0" stop-opacity="0.69"/>
<stop offset="1" stop-color="#EB9F5C" stop-opacity="0.19"/>
</linearGradient>
<linearGradient id="paint70_linear_441_1153" x1="0" y1="0" x2="199.54" y2="57.5609" gradientUnits="userSpaceOnUse">
<stop stop-color="#5C4DF1"/>
<stop offset="0.5" stop-color="#EA52F0" stop-opacity="0.69"/>
<stop offset="1" stop-color="#EB9F5C" stop-opacity="0.19"/>
</linearGradient>
<linearGradient id="paint71_linear_441_1153" x1="0" y1="0" x2="199.54" y2="57.5609" gradientUnits="userSpaceOnUse">
<stop stop-color="#5C4DF1"/>
<stop offset="0.5" stop-color="#EA52F0" stop-opacity="0.69"/>
<stop offset="1" stop-color="#EB9F5C" stop-opacity="0.19"/>
</linearGradient>
<linearGradient id="paint72_linear_441_1153" x1="0" y1="0" x2="199.54" y2="57.5609" gradientUnits="userSpaceOnUse">
<stop stop-color="#5C4DF1"/>
<stop offset="0.5" stop-color="#EA52F0" stop-opacity="0.69"/>
<stop offset="1" stop-color="#EB9F5C" stop-opacity="0.19"/>
</linearGradient>
<linearGradient id="paint73_linear_441_1153" x1="0" y1="0" x2="199.54" y2="57.5609" gradientUnits="userSpaceOnUse">
<stop stop-color="#5C4DF1"/>
<stop offset="0.5" stop-color="#EA52F0" stop-opacity="0.69"/>
<stop offset="1" stop-color="#EB9F5C" stop-opacity="0.19"/>
</linearGradient>
<linearGradient id="paint74_linear_441_1153" x1="0" y1="0" x2="199.54" y2="57.5609" gradientUnits="userSpaceOnUse">
<stop stop-color="#5C4DF1"/>
<stop offset="0.5" stop-color="#EA52F0" stop-opacity="0.69"/>
<stop offset="1" stop-color="#EB9F5C" stop-opacity="0.19"/>
</linearGradient>
<linearGradient id="paint75_linear_441_1153" x1="0" y1="0" x2="199.54" y2="57.5609" gradientUnits="userSpaceOnUse">
<stop stop-color="#5C4DF1"/>
<stop offset="0.5" stop-color="#EA52F0" stop-opacity="0.69"/>
<stop offset="1" stop-color="#EB9F5C" stop-opacity="0.19"/>
</linearGradient>
<linearGradient id="paint76_linear_441_1153" x1="0" y1="0" x2="199.54" y2="57.5609" gradientUnits="userSpaceOnUse">
<stop stop-color="#5C4DF1"/>
<stop offset="0.5" stop-color="#EA52F0" stop-opacity="0.69"/>
<stop offset="1" stop-color="#EB9F5C" stop-opacity="0.19"/>
</linearGradient>
<linearGradient id="paint77_linear_441_1153" x1="0" y1="0" x2="199.54" y2="57.5609" gradientUnits="userSpaceOnUse">
<stop stop-color="#5C4DF1"/>
<stop offset="0.5" stop-color="#EA52F0" stop-opacity="0.69"/>
<stop offset="1" stop-color="#EB9F5C" stop-opacity="0.19"/>
</linearGradient>
<linearGradient id="paint78_linear_441_1153" x1="0" y1="0" x2="199.54" y2="57.5609" gradientUnits="userSpaceOnUse">
<stop stop-color="#5C4DF1"/>
<stop offset="0.5" stop-color="#EA52F0" stop-opacity="0.69"/>
<stop offset="1" stop-color="#EB9F5C" stop-opacity="0.19"/>
</linearGradient>
<linearGradient id="paint79_linear_441_1153" x1="0" y1="0" x2="199.54" y2="57.5609" gradientUnits="userSpaceOnUse">
<stop stop-color="#5C4DF1"/>
<stop offset="0.5" stop-color="#EA52F0" stop-opacity="0.69"/>
<stop offset="1" stop-color="#EB9F5C" stop-opacity="0.19"/>
</linearGradient>
<linearGradient id="paint80_linear_441_1153" x1="0" y1="0" x2="199.54" y2="57.5609" gradientUnits="userSpaceOnUse">
<stop stop-color="#5C4DF1"/>
<stop offset="0.5" stop-color="#EA52F0" stop-opacity="0.69"/>
<stop offset="1" stop-color="#EB9F5C" stop-opacity="0.19"/>
</linearGradient>
<linearGradient id="paint81_linear_441_1153" x1="0" y1="0" x2="199.54" y2="57.5609" gradientUnits="userSpaceOnUse">
<stop stop-color="#5C4DF1"/>
<stop offset="0.5" stop-color="#EA52F0" stop-opacity="0.69"/>
<stop offset="1" stop-color="#EB9F5C" stop-opacity="0.19"/>
</linearGradient>
<linearGradient id="paint82_linear_441_1153" x1="0" y1="0" x2="199.54" y2="57.5609" gradientUnits="userSpaceOnUse">
<stop stop-color="#5C4DF1"/>
<stop offset="0.5" stop-color="#EA52F0" stop-opacity="0.69"/>
<stop offset="1" stop-color="#EB9F5C" stop-opacity="0.19"/>
</linearGradient>
<linearGradient id="paint83_linear_441_1153" x1="0" y1="0" x2="199.54" y2="57.5609" gradientUnits="userSpaceOnUse">
<stop stop-color="#5C4DF1"/>
<stop offset="0.5" stop-color="#EA52F0" stop-opacity="0.69"/>
<stop offset="1" stop-color="#EB9F5C" stop-opacity="0.19"/>
</linearGradient>
<linearGradient id="paint84_linear_441_1153" x1="0" y1="0" x2="199.54" y2="57.5609" gradientUnits="userSpaceOnUse">
<stop stop-color="#5C4DF1"/>
<stop offset="0.5" stop-color="#EA52F0" stop-opacity="0.69"/>
<stop offset="1" stop-color="#EB9F5C" stop-opacity="0.19"/>
</linearGradient>
<linearGradient id="paint85_linear_441_1153" x1="0" y1="0" x2="199.54" y2="57.5609" gradientUnits="userSpaceOnUse">
<stop stop-color="#5C4DF1"/>
<stop offset="0.5" stop-color="#EA52F0" stop-opacity="0.69"/>
<stop offset="1" stop-color="#EB9F5C" stop-opacity="0.19"/>
</linearGradient>
<linearGradient id="paint86_linear_441_1153" x1="0" y1="0" x2="199.54" y2="57.5609" gradientUnits="userSpaceOnUse">
<stop stop-color="#5C4DF1"/>
<stop offset="0.5" stop-color="#EA52F0" stop-opacity="0.69"/>
<stop offset="1" stop-color="#EB9F5C" stop-opacity="0.19"/>
</linearGradient>
<linearGradient id="paint87_linear_441_1153" x1="0" y1="0" x2="199.54" y2="57.5609" gradientUnits="userSpaceOnUse">
<stop stop-color="#5C4DF1"/>
<stop offset="0.5" stop-color="#EA52F0" stop-opacity="0.69"/>
<stop offset="1" stop-color="#EB9F5C" stop-opacity="0.19"/>
</linearGradient>
<linearGradient id="paint88_linear_441_1153" x1="0" y1="0" x2="199.54" y2="57.5609" gradientUnits="userSpaceOnUse">
<stop stop-color="#5C4DF1"/>
<stop offset="0.5" stop-color="#EA52F0" stop-opacity="0.69"/>
<stop offset="1" stop-color="#EB9F5C" stop-opacity="0.19"/>
</linearGradient>
<linearGradient id="paint89_linear_441_1153" x1="0" y1="0" x2="199.54" y2="57.5609" gradientUnits="userSpaceOnUse">
<stop stop-color="#5C4DF1"/>
<stop offset="0.5" stop-color="#EA52F0" stop-opacity="0.69"/>
<stop offset="1" stop-color="#EB9F5C" stop-opacity="0.19"/>
</linearGradient>
<linearGradient id="paint90_linear_441_1153" x1="0" y1="0" x2="199.54" y2="57.5609" gradientUnits="userSpaceOnUse">
<stop stop-color="#5C4DF1"/>
<stop offset="0.5" stop-color="#EA52F0" stop-opacity="0.69"/>
<stop offset="1" stop-color="#EB9F5C" stop-opacity="0.19"/>
</linearGradient>
<linearGradient id="paint91_linear_441_1153" x1="0" y1="0" x2="199.54" y2="57.5609" gradientUnits="userSpaceOnUse">
<stop stop-color="#5C4DF1"/>
<stop offset="0.5" stop-color="#EA52F0" stop-opacity="0.69"/>
<stop offset="1" stop-color="#EB9F5C" stop-opacity="0.19"/>
</linearGradient>
<linearGradient id="paint92_linear_441_1153" x1="0" y1="0" x2="199.54" y2="57.5609" gradientUnits="userSpaceOnUse">
<stop stop-color="#5C4DF1"/>
<stop offset="0.5" stop-color="#EA52F0" stop-opacity="0.69"/>
<stop offset="1" stop-color="#EB9F5C" stop-opacity="0.19"/>
</linearGradient>
<linearGradient id="paint93_linear_441_1153" x1="0" y1="0" x2="199.54" y2="57.5609" gradientUnits="userSpaceOnUse">
<stop stop-color="#5C4DF1"/>
<stop offset="0.5" stop-color="#EA52F0" stop-opacity="0.69"/>
<stop offset="1" stop-color="#EB9F5C" stop-opacity="0.19"/>
</linearGradient>
<linearGradient id="paint94_linear_441_1153" x1="0" y1="0" x2="199.54" y2="57.5609" gradientUnits="userSpaceOnUse">
<stop stop-color="#5C4DF1"/>
<stop offset="0.5" stop-color="#EA52F0" stop-opacity="0.69"/>
<stop offset="1" stop-color="#EB9F5C" stop-opacity="0.19"/>
</linearGradient>
<linearGradient id="paint95_linear_441_1153" x1="0" y1="0" x2="199.54" y2="57.5609" gradientUnits="userSpaceOnUse">
<stop stop-color="#5C4DF1"/>
<stop offset="0.5" stop-color="#EA52F0" stop-opacity="0.69"/>
<stop offset="1" stop-color="#EB9F5C" stop-opacity="0.19"/>
</linearGradient>
<linearGradient id="paint96_linear_441_1153" x1="0" y1="0" x2="199.54" y2="57.5609" gradientUnits="userSpaceOnUse">
<stop stop-color="#5C4DF1"/>
<stop offset="0.5" stop-color="#EA52F0" stop-opacity="0.69"/>
<stop offset="1" stop-color="#EB9F5C" stop-opacity="0.19"/>
</linearGradient>
<linearGradient id="paint97_linear_441_1153" x1="0" y1="0" x2="199.54" y2="57.5609" gradientUnits="userSpaceOnUse">
<stop stop-color="#5C4DF1"/>
<stop offset="0.5" stop-color="#EA52F0" stop-opacity="0.69"/>
<stop offset="1" stop-color="#EB9F5C" stop-opacity="0.19"/>
</linearGradient>
<linearGradient id="paint98_linear_441_1153" x1="0" y1="0" x2="199.54" y2="57.5609" gradientUnits="userSpaceOnUse">
<stop stop-color="#5C4DF1"/>
<stop offset="0.5" stop-color="#EA52F0" stop-opacity="0.69"/>
<stop offset="1" stop-color="#EB9F5C" stop-opacity="0.19"/>
</linearGradient>
<linearGradient id="paint99_linear_441_1153" x1="0" y1="0" x2="199.54" y2="57.5609" gradientUnits="userSpaceOnUse">
<stop stop-color="#5C4DF1"/>
<stop offset="0.5" stop-color="#EA52F0" stop-opacity="0.69"/>
<stop offset="1" stop-color="#EB9F5C" stop-opacity="0.19"/>
</linearGradient>
<linearGradient id="paint100_linear_441_1153" x1="0" y1="0" x2="199.54" y2="57.5609" gradientUnits="userSpaceOnUse">
<stop stop-color="#5C4DF1"/>
<stop offset="0.5" stop-color="#EA52F0" stop-opacity="0.69"/>
<stop offset="1" stop-color="#EB9F5C" stop-opacity="0.19"/>
</linearGradient>
<linearGradient id="paint101_linear_441_1153" x1="0" y1="0" x2="199.54" y2="57.5609" gradientUnits="userSpaceOnUse">
<stop stop-color="#5C4DF1"/>
<stop offset="0.5" stop-color="#EA52F0" stop-opacity="0.69"/>
<stop offset="1" stop-color="#EB9F5C" stop-opacity="0.19"/>
</linearGradient>
<linearGradient id="paint102_linear_441_1153" x1="0" y1="0" x2="199.54" y2="57.5609" gradientUnits="userSpaceOnUse">
<stop stop-color="#5C4DF1"/>
<stop offset="0.5" stop-color="#EA52F0" stop-opacity="0.69"/>
<stop offset="1" stop-color="#EB9F5C" stop-opacity="0.19"/>
</linearGradient>
<linearGradient id="paint103_linear_441_1153" x1="0" y1="0" x2="199.54" y2="57.5609" gradientUnits="userSpaceOnUse">
<stop stop-color="#5C4DF1"/>
<stop offset="0.5" stop-color="#EA52F0" stop-opacity="0.69"/>
<stop offset="1" stop-color="#EB9F5C" stop-opacity="0.19"/>
</linearGradient>
<linearGradient id="paint104_linear_441_1153" x1="0" y1="0" x2="199.54" y2="57.5609" gradientUnits="userSpaceOnUse">
<stop stop-color="#5C4DF1"/>
<stop offset="0.5" stop-color="#EA52F0" stop-opacity="0.69"/>
<stop offset="1" stop-color="#EB9F5C" stop-opacity="0.19"/>
</linearGradient>
<linearGradient id="paint105_linear_441_1153" x1="0" y1="0" x2="199.54" y2="57.5609" gradientUnits="userSpaceOnUse">
<stop stop-color="#5C4DF1"/>
<stop offset="0.5" stop-color="#EA52F0" stop-opacity="0.69"/>
<stop offset="1" stop-color="#EB9F5C" stop-opacity="0.19"/>
</linearGradient>
<linearGradient id="paint106_linear_441_1153" x1="0" y1="0" x2="199.54" y2="57.5609" gradientUnits="userSpaceOnUse">
<stop stop-color="#5C4DF1"/>
<stop offset="0.5" stop-color="#EA52F0" stop-opacity="0.69"/>
<stop offset="1" stop-color="#EB9F5C" stop-opacity="0.19"/>
</linearGradient>
<linearGradient id="paint107_linear_441_1153" x1="0" y1="0" x2="199.54" y2="57.5609" gradientUnits="userSpaceOnUse">
<stop stop-color="#5C4DF1"/>
<stop offset="0.5" stop-color="#EA52F0" stop-opacity="0.69"/>
<stop offset="1" stop-color="#EB9F5C" stop-opacity="0.19"/>
</linearGradient>
<linearGradient id="paint108_linear_441_1153" x1="0" y1="0" x2="199.54" y2="57.5609" gradientUnits="userSpaceOnUse">
<stop stop-color="#5C4DF1"/>
<stop offset="0.5" stop-color="#EA52F0" stop-opacity="0.69"/>
<stop offset="1" stop-color="#EB9F5C" stop-opacity="0.19"/>
</linearGradient>
<linearGradient id="paint109_linear_441_1153" x1="0" y1="0" x2="199.54" y2="57.5609" gradientUnits="userSpaceOnUse">
<stop stop-color="#5C4DF1"/>
<stop offset="0.5" stop-color="#EA52F0" stop-opacity="0.69"/>
<stop offset="1" stop-color="#EB9F5C" stop-opacity="0.19"/>
</linearGradient>
<linearGradient id="paint110_linear_441_1153" x1="0" y1="0" x2="199.54" y2="57.5609" gradientUnits="userSpaceOnUse">
<stop stop-color="#5C4DF1"/>
<stop offset="0.5" stop-color="#EA52F0" stop-opacity="0.69"/>
<stop offset="1" stop-color="#EB9F5C" stop-opacity="0.19"/>
</linearGradient>
<linearGradient id="paint111_linear_441_1153" x1="0" y1="0" x2="199.54" y2="57.5609" gradientUnits="userSpaceOnUse">
<stop stop-color="#5C4DF1"/>
<stop offset="0.5" stop-color="#EA52F0" stop-opacity="0.69"/>
<stop offset="1" stop-color="#EB9F5C" stop-opacity="0.19"/>
</linearGradient>
<linearGradient id="paint112_linear_441_1153" x1="0" y1="0" x2="199.54" y2="57.5609" gradientUnits="userSpaceOnUse">
<stop stop-color="#5C4DF1"/>
<stop offset="0.5" stop-color="#EA52F0" stop-opacity="0.69"/>
<stop offset="1" stop-color="#EB9F5C" stop-opacity="0.19"/>
</linearGradient>
<linearGradient id="paint113_linear_441_1153" x1="0" y1="0" x2="199.54" y2="57.5609" gradientUnits="userSpaceOnUse">
<stop stop-color="#5C4DF1"/>
<stop offset="0.5" stop-color="#EA52F0" stop-opacity="0.69"/>
<stop offset="1" stop-color="#EB9F5C" stop-opacity="0.19"/>
</linearGradient>
<linearGradient id="paint114_linear_441_1153" x1="0" y1="0" x2="199.54" y2="57.5609" gradientUnits="userSpaceOnUse">
<stop stop-color="#5C4DF1"/>
<stop offset="0.5" stop-color="#EA52F0" stop-opacity="0.69"/>
<stop offset="1" stop-color="#EB9F5C" stop-opacity="0.19"/>
</linearGradient>
<linearGradient id="paint115_linear_441_1153" x1="0" y1="0" x2="199.54" y2="57.5609" gradientUnits="userSpaceOnUse">
<stop stop-color="#5C4DF1"/>
<stop offset="0.5" stop-color="#EA52F0" stop-opacity="0.69"/>
<stop offset="1" stop-color="#EB9F5C" stop-opacity="0.19"/>
</linearGradient>
<linearGradient id="paint116_linear_441_1153" x1="0" y1="0" x2="199.54" y2="57.5609" gradientUnits="userSpaceOnUse">
<stop stop-color="#5C4DF1"/>
<stop offset="0.5" stop-color="#EA52F0" stop-opacity="0.69"/>
<stop offset="1" stop-color="#EB9F5C" stop-opacity="0.19"/>
</linearGradient>
<linearGradient id="paint117_linear_441_1153" x1="0" y1="0" x2="199.54" y2="57.5609" gradientUnits="userSpaceOnUse">
<stop stop-color="#5C4DF1"/>
<stop offset="0.5" stop-color="#EA52F0" stop-opacity="0.69"/>
<stop offset="1" stop-color="#EB9F5C" stop-opacity="0.19"/>
</linearGradient>
<linearGradient id="paint118_linear_441_1153" x1="0" y1="0" x2="199.54" y2="57.5609" gradientUnits="userSpaceOnUse">
<stop stop-color="#5C4DF1"/>
<stop offset="0.5" stop-color="#EA52F0" stop-opacity="0.69"/>
<stop offset="1" stop-color="#EB9F5C" stop-opacity="0.19"/>
</linearGradient>
<linearGradient id="paint119_linear_441_1153" x1="0" y1="0" x2="199.54" y2="57.5609" gradientUnits="userSpaceOnUse">
<stop stop-color="#5C4DF1"/>
<stop offset="0.5" stop-color="#EA52F0" stop-opacity="0.69"/>
<stop offset="1" stop-color="#EB9F5C" stop-opacity="0.19"/>
</linearGradient>
<linearGradient id="paint120_linear_441_1153" x1="0" y1="0" x2="199.54" y2="57.5609" gradientUnits="userSpaceOnUse">
<stop stop-color="#5C4DF1"/>
<stop offset="0.5" stop-color="#EA52F0" stop-opacity="0.69"/>
<stop offset="1" stop-color="#EB9F5C" stop-opacity="0.19"/>
</linearGradient>
<linearGradient id="paint121_linear_441_1153" x1="0" y1="0" x2="199.54" y2="57.5609" gradientUnits="userSpaceOnUse">
<stop stop-color="#5C4DF1"/>
<stop offset="0.5" stop-color="#EA52F0" stop-opacity="0.69"/>
<stop offset="1" stop-color="#EB9F5C" stop-opacity="0.19"/>
</linearGradient>
<linearGradient id="paint122_linear_441_1153" x1="0" y1="0" x2="199.54" y2="57.5609" gradientUnits="userSpaceOnUse">
<stop stop-color="#5C4DF1"/>
<stop offset="0.5" stop-color="#EA52F0" stop-opacity="0.69"/>
<stop offset="1" stop-color="#EB9F5C" stop-opacity="0.19"/>
</linearGradient>
<linearGradient id="paint123_linear_441_1153" x1="0" y1="0" x2="199.54" y2="57.5609" gradientUnits="userSpaceOnUse">
<stop stop-color="#5C4DF1"/>
<stop offset="0.5" stop-color="#EA52F0" stop-opacity="0.69"/>
<stop offset="1" stop-color="#EB9F5C" stop-opacity="0.19"/>
</linearGradient>
<linearGradient id="paint124_linear_441_1153" x1="0" y1="0" x2="199.54" y2="57.5609" gradientUnits="userSpaceOnUse">
<stop stop-color="#5C4DF1"/>
<stop offset="0.5" stop-color="#EA52F0" stop-opacity="0.69"/>
<stop offset="1" stop-color="#EB9F5C" stop-opacity="0.19"/>
</linearGradient>
<linearGradient id="paint125_linear_441_1153" x1="0" y1="0" x2="199.54" y2="57.5609" gradientUnits="userSpaceOnUse">
<stop stop-color="#5C4DF1"/>
<stop offset="0.5" stop-color="#EA52F0" stop-opacity="0.69"/>
<stop offset="1" stop-color="#EB9F5C" stop-opacity="0.19"/>
</linearGradient>
<linearGradient id="paint126_linear_441_1153" x1="0" y1="0" x2="199.54" y2="57.5609" gradientUnits="userSpaceOnUse">
<stop stop-color="#5C4DF1"/>
<stop offset="0.5" stop-color="#EA52F0" stop-opacity="0.69"/>
<stop offset="1" stop-color="#EB9F5C" stop-opacity="0.19"/>
</linearGradient>
<linearGradient id="paint127_linear_441_1153" x1="0" y1="0" x2="199.54" y2="57.5609" gradientUnits="userSpaceOnUse">
<stop stop-color="#5C4DF1"/>
<stop offset="0.5" stop-color="#EA52F0" stop-opacity="0.69"/>
<stop offset="1" stop-color="#EB9F5C" stop-opacity="0.19"/>
</linearGradient>
<linearGradient id="paint128_linear_441_1153" x1="0" y1="0" x2="199.54" y2="57.5609" gradientUnits="userSpaceOnUse">
<stop stop-color="#5C4DF1"/>
<stop offset="0.5" stop-color="#EA52F0" stop-opacity="0.69"/>
<stop offset="1" stop-color="#EB9F5C" stop-opacity="0.19"/>
</linearGradient>
<linearGradient id="paint129_linear_441_1153" x1="0" y1="0" x2="199.54" y2="57.5609" gradientUnits="userSpaceOnUse">
<stop stop-color="#5C4DF1"/>
<stop offset="0.5" stop-color="#EA52F0" stop-opacity="0.69"/>
<stop offset="1" stop-color="#EB9F5C" stop-opacity="0.19"/>
</linearGradient>
<linearGradient id="paint130_linear_441_1153" x1="0" y1="0" x2="199.54" y2="57.5609" gradientUnits="userSpaceOnUse">
<stop stop-color="#5C4DF1"/>
<stop offset="0.5" stop-color="#EA52F0" stop-opacity="0.69"/>
<stop offset="1" stop-color="#EB9F5C" stop-opacity="0.19"/>
</linearGradient>
<linearGradient id="paint131_linear_441_1153" x1="0" y1="0" x2="199.54" y2="57.5609" gradientUnits="userSpaceOnUse">
<stop stop-color="#5C4DF1"/>
<stop offset="0.5" stop-color="#EA52F0" stop-opacity="0.69"/>
<stop offset="1" stop-color="#EB9F5C" stop-opacity="0.19"/>
</linearGradient>
<linearGradient id="paint132_linear_441_1153" x1="0" y1="0" x2="199.54" y2="57.5609" gradientUnits="userSpaceOnUse">
<stop stop-color="#5C4DF1"/>
<stop offset="0.5" stop-color="#EA52F0" stop-opacity="0.69"/>
<stop offset="1" stop-color="#EB9F5C" stop-opacity="0.19"/>
</linearGradient>
<linearGradient id="paint133_linear_441_1153" x1="0" y1="0" x2="199.54" y2="57.5609" gradientUnits="userSpaceOnUse">
<stop stop-color="#5C4DF1"/>
<stop offset="0.5" stop-color="#EA52F0" stop-opacity="0.69"/>
<stop offset="1" stop-color="#EB9F5C" stop-opacity="0.19"/>
</linearGradient>
<linearGradient id="paint134_linear_441_1153" x1="0" y1="0" x2="199.54" y2="57.5609" gradientUnits="userSpaceOnUse">
<stop stop-color="#5C4DF1"/>
<stop offset="0.5" stop-color="#EA52F0" stop-opacity="0.69"/>
<stop offset="1" stop-color="#EB9F5C" stop-opacity="0.19"/>
</linearGradient>
</defs>
</svg>
