<svg width="214" height="297" viewBox="0 0 214 297" fill="none" xmlns="http://www.w3.org/2000/svg">
<path d="M3.31629 5.84213C4.74763 5.84213 5.90796 4.70154 5.90796 3.29454C5.90796 1.88754 4.74763 0.746948 3.31629 0.746948C1.88494 0.746948 0.724609 1.88754 0.724609 3.29454C0.724609 4.70154 1.88494 5.84213 3.31629 5.84213Z" fill="#8F9093" stroke="#8F9093"/>
<path d="M3.31553 26.5785C1.96786 26.5785 0.905273 25.5085 0.905273 24.2092C0.905273 22.8845 1.99378 21.84 3.31553 21.84C4.66321 21.84 5.7258 22.91 5.7258 24.2092C5.7258 25.5085 4.63729 26.5785 3.31553 26.5785Z" fill="#8F9093" stroke="#8F9093"/>
<path d="M3.3158 47.2899C2.0718 47.2899 1.06104 46.2963 1.06104 45.0735C1.06104 43.8506 2.0718 42.8571 3.3158 42.8571C4.55981 42.8571 5.57057 43.8506 5.57057 45.0735C5.57057 46.2963 4.55981 47.2899 3.3158 47.2899Z" fill="#8F9093" stroke="#8F9093"/>
<path d="M3.317 68.0259C4.46208 68.0259 5.39035 67.1134 5.39035 65.9878C5.39035 64.8622 4.46208 63.9498 3.317 63.9498C2.17193 63.9498 1.24365 64.8622 1.24365 65.9878C1.24365 67.1134 2.17193 68.0259 3.317 68.0259Z" fill="#8F9093" stroke="#8F9093"/>
<path d="M3.31623 88.7372C2.25364 88.7372 1.42432 87.8965 1.42432 86.8774C1.42432 85.8329 2.27956 85.0177 3.31623 85.0177C4.3529 85.0177 5.20816 85.8584 5.20816 86.8774C5.20816 87.8965 4.3529 88.7372 3.31623 88.7372Z" fill="#8F9093" stroke="#8F9093"/>
<path d="M3.31601 109.474C2.35709 109.474 1.57959 108.709 1.57959 107.767C1.57959 106.824 2.35709 106.06 3.31601 106.06C4.27493 106.06 5.05243 106.824 5.05243 107.767C5.02651 108.709 4.27493 109.474 3.31601 109.474Z" fill="#8F9093" stroke="#8F9093"/>
<path d="M3.31574 130.185C4.17455 130.185 4.87075 129.5 4.87075 128.656C4.87075 127.812 4.17455 127.127 3.31574 127.127C2.45694 127.127 1.76074 127.812 1.76074 128.656C1.76074 129.5 2.45694 130.185 3.31574 130.185Z" fill="#8F9093" stroke="#8F9093"/>
<path d="M3.31646 150.921C2.56487 150.921 1.94287 150.31 1.94287 149.571C1.94287 148.832 2.56487 148.221 3.31646 148.221C4.06804 148.221 4.69004 148.832 4.69004 149.571C4.69004 150.31 4.06804 150.921 3.31646 150.921Z" fill="#8F9093" stroke="#8F9093"/>
<path d="M3.31624 171.657C2.6424 171.657 2.09814 171.122 2.09814 170.46C2.09814 169.798 2.6424 169.263 3.31624 169.263C3.99007 169.263 4.53433 169.798 4.53433 170.46C4.50841 171.122 3.99007 171.657 3.31624 171.657Z" fill="#8F9093" stroke="#8F9093"/>
<path d="M3.31646 192.368C2.74629 192.368 2.27979 191.91 2.27979 191.349C2.27979 190.789 2.74629 190.33 3.31646 190.33C3.88663 190.33 4.35314 190.789 4.35314 191.349C4.35314 191.91 3.88663 192.368 3.31646 192.368Z" fill="#8F9093" stroke="#8F9093"/>
<path d="M3.31571 213.105C2.84921 213.105 2.46045 212.723 2.46045 212.264C2.46045 211.806 2.84921 211.424 3.31571 211.424C3.78221 211.424 4.17097 211.806 4.17097 212.264C4.17097 212.723 3.78221 213.105 3.31571 213.105Z" fill="#8F9093" stroke="#8F9093"/>
<path d="M3.31596 233.816C2.9272 233.816 2.61621 233.51 2.61621 233.128C2.61621 232.746 2.9272 232.44 3.31596 232.44C3.70471 232.44 4.01572 232.746 4.01572 233.128C3.9898 233.51 3.67879 233.816 3.31596 233.816Z" fill="#8F9093" stroke="#8F9093"/>
<path d="M3.3158 254.552C3.60187 254.552 3.83376 254.324 3.83376 254.043C3.83376 253.761 3.60187 253.533 3.3158 253.533C3.02974 253.533 2.79785 253.761 2.79785 254.043C2.79785 254.324 3.02974 254.552 3.3158 254.552Z" fill="#8F9093" stroke="#8F9093"/>
<path d="M3.31664 275.288C3.13509 275.288 2.97949 275.136 2.97949 274.957C2.97949 274.779 3.13509 274.626 3.31664 274.626C3.49818 274.626 3.65378 274.779 3.65378 274.957C3.65378 275.136 3.49818 275.288 3.31664 275.288Z" fill="#8F9093" stroke="#8F9093"/>
<path d="M3.31704 296C3.21316 296 3.13525 295.923 3.13525 295.822C3.13525 295.72 3.21316 295.643 3.31704 295.643C3.42092 295.643 3.49883 295.72 3.49883 295.822C3.47286 295.923 3.39495 296 3.31704 296Z" fill="#8F9093" stroke="#8F9093"/>
<path d="M22.0536 5.84213C23.4849 5.84213 24.6453 4.70154 24.6453 3.29454C24.6453 1.88754 23.4849 0.746948 22.0536 0.746948C20.6222 0.746948 19.4619 1.88754 19.4619 3.29454C19.4619 4.70154 20.6222 5.84213 22.0536 5.84213Z" fill="#8F9093" stroke="#8F9093"/>
<path d="M22.0533 26.5785C20.7057 26.5785 19.6431 25.5085 19.6431 24.2092C19.6431 22.8845 20.7316 21.84 22.0533 21.84C23.401 21.84 24.4636 22.91 24.4636 24.2092C24.4895 25.5085 23.401 26.5785 22.0533 26.5785Z" fill="#8F9093" stroke="#8F9093"/>
<path d="M22.0531 47.2899C20.8091 47.2899 19.7983 46.2963 19.7983 45.0735C19.7983 43.8506 20.8091 42.8571 22.0531 42.8571C23.2971 42.8571 24.3079 43.8506 24.3079 45.0735C24.3079 46.2963 23.2971 47.2899 22.0531 47.2899Z" fill="#8F9093" stroke="#8F9093"/>
<path d="M22.0543 68.0259C23.1994 68.0259 24.1276 67.1134 24.1276 65.9878C24.1276 64.8622 23.1994 63.9498 22.0543 63.9498C20.9092 63.9498 19.981 64.8622 19.981 65.9878C19.981 67.1134 20.9092 68.0259 22.0543 68.0259Z" fill="#8F9093" stroke="#8F9093"/>
<path d="M22.0536 88.7372C20.991 88.7372 20.1616 87.8965 20.1616 86.8774C20.1616 85.8329 21.0169 85.0177 22.0536 85.0177C23.0902 85.0177 23.9455 85.8584 23.9455 86.8774C23.9714 87.8965 23.1161 88.7372 22.0536 88.7372Z" fill="#8F9093" stroke="#8F9093"/>
<path d="M22.0538 109.474C21.0949 109.474 20.3174 108.709 20.3174 107.767C20.3174 106.824 21.0949 106.06 22.0538 106.06C23.0127 106.06 23.7902 106.824 23.7902 107.767C23.7902 108.709 23.0127 109.474 22.0538 109.474Z" fill="#8F9093" stroke="#8F9093"/>
<path d="M22.0531 130.185C21.1978 130.185 20.498 129.497 20.498 128.656C20.498 127.815 21.1978 127.127 22.0531 127.127C22.9083 127.127 23.6081 127.815 23.6081 128.656C23.6081 129.522 22.9342 130.185 22.0531 130.185Z" fill="#8F9093" stroke="#8F9093"/>
<path d="M22.0538 150.921C21.3022 150.921 20.6802 150.31 20.6802 149.571C20.6802 148.832 21.3022 148.221 22.0538 148.221C22.8054 148.221 23.4274 148.832 23.4274 149.571C23.4533 150.31 22.8313 150.921 22.0538 150.921Z" fill="#8F9093" stroke="#8F9093"/>
<path d="M22.0531 171.657C21.3792 171.657 20.835 171.122 20.835 170.46C20.835 169.798 21.3792 169.263 22.0531 169.263C22.7269 169.263 23.2711 169.798 23.2711 170.46C23.2711 171.122 22.7269 171.657 22.0531 171.657Z" fill="#8F9093" stroke="#8F9093"/>
<path d="M22.0543 192.368C21.4841 192.368 21.0176 191.91 21.0176 191.349C21.0176 190.789 21.4841 190.33 22.0543 190.33C22.6244 190.33 23.0909 190.789 23.0909 191.349C23.0909 191.91 22.6503 192.368 22.0543 192.368Z" fill="#8F9093" stroke="#8F9093"/>
<path d="M22.0535 213.08C22.5258 213.08 22.9087 212.703 22.9087 212.239C22.9087 211.775 22.5258 211.398 22.0535 211.398C21.5812 211.398 21.1982 211.775 21.1982 212.239C21.1982 212.703 21.5812 213.08 22.0535 213.08Z" fill="#8F9093" stroke="#8F9093"/>
<path d="M22.0538 233.816C21.665 233.816 21.354 233.51 21.354 233.128C21.354 232.746 21.665 232.44 22.0538 232.44C22.4425 232.44 22.7535 232.746 22.7535 233.128C22.7535 233.51 22.4425 233.816 22.0538 233.816Z" fill="#8F9093" stroke="#8F9093"/>
<path d="M22.0526 254.552C22.3387 254.552 22.5706 254.324 22.5706 254.043C22.5706 253.761 22.3387 253.533 22.0526 253.533C21.7666 253.533 21.5347 253.761 21.5347 254.043C21.5347 254.324 21.7666 254.552 22.0526 254.552Z" fill="#8F9093" stroke="#8F9093"/>
<path d="M22.054 275.288C21.8724 275.288 21.7168 275.136 21.7168 274.957C21.7168 274.779 21.8724 274.626 22.054 274.626C22.2355 274.626 22.3911 274.779 22.3911 274.957C22.3911 275.136 22.2614 275.288 22.054 275.288Z" fill="#8F9093" stroke="#8F9093"/>
<path d="M22.0539 296C21.95 296 21.8721 295.923 21.8721 295.822C21.8721 295.72 21.95 295.643 22.0539 295.643C22.1577 295.643 22.2356 295.72 22.2356 295.822C22.2356 295.923 22.1577 296 22.0539 296Z" fill="#8F9093" stroke="#8F9093"/>
<path d="M40.8173 5.84213C42.2486 5.84213 43.4089 4.70154 43.4089 3.29454C43.4089 1.88754 42.2486 0.746948 40.8173 0.746948C39.3859 0.746948 38.2256 1.88754 38.2256 3.29454C38.2256 4.70154 39.3859 5.84213 40.8173 5.84213Z" fill="#8F9093" stroke="#8F9093"/>
<path d="M40.8175 26.5785C39.4698 26.5785 38.4072 25.5085 38.4072 24.2092C38.4072 22.8845 39.4957 21.84 40.8175 21.84C42.1652 21.84 43.2277 22.91 43.2277 24.2092C43.2537 25.5085 42.1652 26.5785 40.8175 26.5785Z" fill="#8F9093" stroke="#8F9093"/>
<path d="M40.8173 47.2899C39.5733 47.2899 38.5625 46.2963 38.5625 45.0735C38.5625 43.8506 39.5733 42.8571 40.8173 42.8571C42.0613 42.8571 43.072 43.8506 43.072 45.0735C43.072 46.2963 42.0613 47.2899 40.8173 47.2899Z" fill="#8F9093" stroke="#8F9093"/>
<path d="M40.8175 68.0259C39.6772 68.0259 38.7441 67.1088 38.7441 65.9878C38.7441 64.8669 39.6772 63.9498 40.8175 63.9498C41.9578 63.9498 42.8908 64.8669 42.8908 65.9878C42.8908 67.1088 41.9578 68.0259 40.8175 68.0259Z" fill="#8F9093" stroke="#8F9093"/>
<path d="M40.8167 88.7372C39.7542 88.7372 38.9248 87.8965 38.9248 86.8774C38.9248 85.8329 39.7801 85.0177 40.8167 85.0177C41.8534 85.0177 42.7087 85.8584 42.7087 86.8774C42.7346 87.8965 41.8793 88.7372 40.8167 88.7372Z" fill="#8F9093" stroke="#8F9093"/>
<path d="M40.8175 109.474C39.8586 109.474 39.0811 108.709 39.0811 107.767C39.0811 106.824 39.8586 106.06 40.8175 106.06C41.7764 106.06 42.5539 106.824 42.5539 107.767C42.5539 108.709 41.7764 109.474 40.8175 109.474Z" fill="#8F9093" stroke="#8F9093"/>
<path d="M40.8172 130.185C39.962 130.185 39.2622 129.497 39.2622 128.656C39.2622 127.815 39.962 127.127 40.8172 127.127C41.6725 127.127 42.3722 127.815 42.3722 128.656C42.3722 129.522 41.6725 130.185 40.8172 130.185Z" fill="#8F9093" stroke="#8F9093"/>
<path d="M40.8179 150.921C40.0663 150.921 39.4443 150.31 39.4443 149.571C39.4443 148.832 40.0663 148.221 40.8179 148.221C41.5695 148.221 42.1915 148.832 42.1915 149.571C42.2174 150.31 41.5954 150.921 40.8179 150.921Z" fill="#8F9093" stroke="#8F9093"/>
<path d="M40.8172 171.657C40.1434 171.657 39.5991 171.122 39.5991 170.46C39.5991 169.798 40.1434 169.263 40.8172 169.263C41.491 169.263 42.0353 169.798 42.0353 170.46C42.0353 171.122 41.491 171.657 40.8172 171.657Z" fill="#8F9093" stroke="#8F9093"/>
<path d="M40.8184 192.368C40.2482 192.368 39.7817 191.91 39.7817 191.349C39.7817 190.789 40.2482 190.33 40.8184 190.33C41.3886 190.33 41.8551 190.789 41.8551 191.349C41.8551 191.91 41.3886 192.368 40.8184 192.368Z" fill="#8F9093" stroke="#8F9093"/>
<path d="M40.8177 213.105C40.3512 213.105 39.9624 212.723 39.9624 212.264C39.9624 211.806 40.3512 211.424 40.8177 211.424C41.2842 211.424 41.6729 211.806 41.6729 212.264C41.6988 212.723 41.3101 213.105 40.8177 213.105Z" fill="#8F9093" stroke="#8F9093"/>
<path d="M40.8174 233.816C40.4287 233.816 40.1177 233.51 40.1177 233.128C40.1177 232.746 40.4287 232.44 40.8174 232.44C41.2062 232.44 41.5172 232.746 41.5172 233.128C41.5172 233.51 41.2062 233.816 40.8174 233.816Z" fill="#8F9093" stroke="#8F9093"/>
<path d="M40.8163 254.552C40.5314 254.552 40.2983 254.323 40.2983 254.043C40.2983 253.762 40.5314 253.533 40.8163 253.533C41.1012 253.533 41.3342 253.762 41.3342 254.043C41.3342 254.323 41.1012 254.552 40.8163 254.552Z" fill="#8F9093" stroke="#8F9093"/>
<path d="M40.8176 275.288C40.6361 275.288 40.4805 275.136 40.4805 274.957C40.4805 274.779 40.6361 274.626 40.8176 274.626C40.9992 274.626 41.1548 274.779 41.1548 274.957C41.1548 275.136 41.0251 275.288 40.8176 275.288Z" fill="#8F9093" stroke="#8F9093"/>
<path d="M40.818 296C40.7141 296 40.6362 295.923 40.6362 295.822C40.6362 295.72 40.7141 295.643 40.818 295.643C40.9219 295.643 40.9998 295.72 40.9998 295.822C40.9998 295.923 40.9219 296 40.818 296Z" fill="#8F9093" stroke="#8F9093"/>
<path d="M59.5814 5.84213C61.0128 5.84213 62.1731 4.70154 62.1731 3.29454C62.1731 1.88754 61.0128 0.746948 59.5814 0.746948C58.1501 0.746948 56.9897 1.88754 56.9897 3.29454C56.9897 4.70154 58.1501 5.84213 59.5814 5.84213Z" fill="#8F9093" stroke="#8F9093"/>
<path d="M59.5807 26.5785C58.233 26.5785 57.1704 25.5085 57.1704 24.2092C57.1704 22.8845 58.2589 21.84 59.5807 21.84C60.9283 21.84 61.9909 22.91 61.9909 24.2092C61.9909 25.5085 60.9283 26.5785 59.5807 26.5785Z" fill="#8F9093" stroke="#8F9093"/>
<path d="M59.5809 47.2899C60.8262 47.2899 61.8357 46.2975 61.8357 45.0735C61.8357 43.8494 60.8262 42.8571 59.5809 42.8571C58.3356 42.8571 57.3262 43.8494 57.3262 45.0735C57.3262 46.2975 58.3356 47.2899 59.5809 47.2899Z" fill="#8F9093" stroke="#8F9093"/>
<path d="M59.5816 68.0259C58.4413 68.0259 57.5083 67.1088 57.5083 65.9878C57.5083 64.8669 58.4413 63.9498 59.5816 63.9498C60.722 63.9498 61.655 64.8669 61.655 65.9878C61.655 67.1088 60.722 68.0259 59.5816 68.0259Z" fill="#8F9093" stroke="#8F9093"/>
<path d="M59.5814 88.7372C58.5447 88.7372 57.6895 87.8965 57.6895 86.8774C57.6895 85.8329 58.5447 85.0177 59.5814 85.0177C60.618 85.0177 61.4733 85.8584 61.4733 86.8774C61.4733 87.8965 60.618 88.7372 59.5814 88.7372Z" fill="#8F9093" stroke="#8F9093"/>
<path d="M59.5811 109.474C58.6222 109.474 57.8447 108.709 57.8447 107.767C57.8447 106.824 58.6222 106.06 59.5811 106.06C60.5401 106.06 61.3176 106.824 61.3176 107.767C61.3176 108.709 60.5401 109.474 59.5811 109.474Z" fill="#8F9093" stroke="#8F9093"/>
<path d="M59.5804 130.185C60.4392 130.185 61.1354 129.5 61.1354 128.656C61.1354 127.812 60.4392 127.127 59.5804 127.127C58.7216 127.127 58.0254 127.812 58.0254 128.656C58.0254 129.5 58.7216 130.185 59.5804 130.185Z" fill="#8F9093" stroke="#8F9093"/>
<path d="M59.5821 150.921C58.8305 150.921 58.2085 150.31 58.2085 149.571C58.2085 148.832 58.8305 148.221 59.5821 148.221C60.3337 148.221 60.9557 148.832 60.9557 149.571C60.9557 150.31 60.3337 150.921 59.5821 150.921Z" fill="#8F9093" stroke="#8F9093"/>
<path d="M59.5804 171.657C58.9066 171.657 58.3623 171.122 58.3623 170.46C58.3623 169.798 58.9066 169.263 59.5804 169.263C60.2542 169.263 60.7985 169.798 60.7985 170.46C60.7985 171.122 60.2542 171.657 59.5804 171.657Z" fill="#8F9093" stroke="#8F9093"/>
<path d="M59.5811 192.368C59.0109 192.368 58.5444 191.91 58.5444 191.349C58.5444 190.789 59.0109 190.33 59.5811 190.33C60.1513 190.33 60.6178 190.789 60.6178 191.349C60.6178 191.91 60.1513 192.368 59.5811 192.368Z" fill="#8F9093" stroke="#8F9093"/>
<path d="M59.5808 213.105C59.1143 213.105 58.7256 212.723 58.7256 212.264C58.7256 211.806 59.1143 211.424 59.5808 211.424C60.0473 211.424 60.4361 211.806 60.4361 212.264C60.4361 212.723 60.0473 213.105 59.5808 213.105Z" fill="#8F9093" stroke="#8F9093"/>
<path d="M59.5816 233.816C59.1928 233.816 58.8818 233.51 58.8818 233.128C58.8818 232.746 59.1928 232.44 59.5816 232.44C59.9703 232.44 60.2813 232.746 60.2813 233.128C60.2813 233.51 59.9703 233.816 59.5816 233.816Z" fill="#8F9093" stroke="#8F9093"/>
<path d="M59.5805 254.552C59.2956 254.552 59.0625 254.323 59.0625 254.043C59.0625 253.762 59.2956 253.533 59.5805 253.533C59.8653 253.533 60.0984 253.762 60.0984 254.043C60.0984 254.323 59.8653 254.552 59.5805 254.552Z" fill="#8F9093" stroke="#8F9093"/>
<path d="M59.5813 275.263C59.7675 275.263 59.9185 275.115 59.9185 274.932C59.9185 274.749 59.7675 274.601 59.5813 274.601C59.3951 274.601 59.2441 274.749 59.2441 274.932C59.2441 275.115 59.3951 275.263 59.5813 275.263Z" fill="#8F9093" stroke="#8F9093"/>
<path d="M59.5817 296C59.4778 296 59.3999 295.923 59.3999 295.822C59.3999 295.72 59.4778 295.643 59.5817 295.643C59.6856 295.643 59.7635 295.72 59.7635 295.822C59.7635 295.923 59.6856 296 59.5817 296Z" fill="#8F9093" stroke="#8F9093"/>
<path d="M78.3441 5.84213C79.7755 5.84213 80.9358 4.70154 80.9358 3.29454C80.9358 1.88754 79.7755 0.746948 78.3441 0.746948C76.9128 0.746948 75.7524 1.88754 75.7524 3.29454C75.7524 4.70154 76.9128 5.84213 78.3441 5.84213Z" fill="#8F9093" stroke="#8F9093"/>
<path d="M78.3438 26.5785C76.9962 26.5785 75.9336 25.5085 75.9336 24.2092C75.9336 22.8845 77.0221 21.84 78.3438 21.84C79.6915 21.84 80.7541 22.91 80.7541 24.2092C80.7541 25.5085 79.6656 26.5785 78.3438 26.5785Z" fill="#8F9093" stroke="#8F9093"/>
<path d="M78.3436 47.2899C79.5889 47.2899 80.5984 46.2975 80.5984 45.0735C80.5984 43.8494 79.5889 42.8571 78.3436 42.8571C77.0983 42.8571 76.0889 43.8494 76.0889 45.0735C76.0889 46.2975 77.0983 47.2899 78.3436 47.2899Z" fill="#8F9093" stroke="#8F9093"/>
<path d="M78.3443 68.0259C79.4894 68.0259 80.4177 67.1134 80.4177 65.9878C80.4177 64.8622 79.4894 63.9498 78.3443 63.9498C77.1993 63.9498 76.271 64.8622 76.271 65.9878C76.271 67.1134 77.1993 68.0259 78.3443 68.0259Z" fill="#8F9093" stroke="#8F9093"/>
<path d="M78.3441 88.7372C77.3074 88.7372 76.4521 87.8965 76.4521 86.8774C76.4521 85.8329 77.3074 85.0177 78.3441 85.0177C79.3807 85.0177 80.236 85.8584 80.236 86.8774C80.236 87.8965 79.3807 88.7372 78.3441 88.7372Z" fill="#8F9093" stroke="#8F9093"/>
<path d="M78.3438 109.474C77.3849 109.474 76.6074 108.709 76.6074 107.767C76.6074 106.824 77.3849 106.06 78.3438 106.06C79.3028 106.06 80.0803 106.824 80.0803 107.767C80.0544 108.709 79.3028 109.474 78.3438 109.474Z" fill="#8F9093" stroke="#8F9093"/>
<path d="M78.3436 130.185C79.2024 130.185 79.8986 129.5 79.8986 128.656C79.8986 127.812 79.2024 127.127 78.3436 127.127C77.4848 127.127 76.7886 127.812 76.7886 128.656C76.7886 129.5 77.4848 130.185 78.3436 130.185Z" fill="#8F9093" stroke="#8F9093"/>
<path d="M78.3448 150.921C77.5932 150.921 76.9712 150.31 76.9712 149.571C76.9712 148.832 77.5932 148.221 78.3448 148.221C79.0964 148.221 79.7184 148.832 79.7184 149.571C79.7184 150.31 79.0964 150.921 78.3448 150.921Z" fill="#8F9093" stroke="#8F9093"/>
<path d="M78.3436 171.657C77.6697 171.657 77.1255 171.122 77.1255 170.46C77.1255 169.798 77.6697 169.263 78.3436 169.263C79.0174 169.263 79.5617 169.798 79.5617 170.46C79.5357 171.122 79.0174 171.657 78.3436 171.657Z" fill="#8F9093" stroke="#8F9093"/>
<path d="M78.3438 192.368C77.7736 192.368 77.3071 191.91 77.3071 191.349C77.3071 190.789 77.7736 190.33 78.3438 190.33C78.914 190.33 79.3805 190.789 79.3805 191.349C79.3805 191.91 78.914 192.368 78.3438 192.368Z" fill="#8F9093" stroke="#8F9093"/>
<path d="M78.343 213.08C78.8154 213.08 79.1983 212.703 79.1983 212.239C79.1983 211.775 78.8154 211.398 78.343 211.398C77.8707 211.398 77.4878 211.775 77.4878 212.239C77.4878 212.703 77.8707 213.08 78.343 213.08Z" fill="#8F9093" stroke="#8F9093"/>
<path d="M78.3443 233.816C77.9555 233.816 77.6445 233.51 77.6445 233.128C77.6445 232.746 77.9555 232.44 78.3443 232.44C78.733 232.44 79.044 232.746 79.044 233.128C79.0181 233.51 78.7071 233.816 78.3443 233.816Z" fill="#8F9093" stroke="#8F9093"/>
<path d="M78.3431 254.552C78.6292 254.552 78.8611 254.324 78.8611 254.043C78.8611 253.761 78.6292 253.533 78.3431 253.533C78.0571 253.533 77.8252 253.761 77.8252 254.043C77.8252 254.324 78.0571 254.552 78.3431 254.552Z" fill="#8F9093" stroke="#8F9093"/>
<path d="M78.344 275.263C78.5302 275.263 78.6811 275.115 78.6811 274.932C78.6811 274.749 78.5302 274.601 78.344 274.601C78.1578 274.601 78.0068 274.749 78.0068 274.932C78.0068 275.115 78.1578 275.263 78.344 275.263Z" fill="#8F9093" stroke="#8F9093"/>
<path d="M78.3444 296C78.2405 296 78.1626 295.923 78.1626 295.822C78.1626 295.72 78.2405 295.643 78.3444 295.643C78.4483 295.643 78.5262 295.72 78.5262 295.822C78.5002 295.923 78.4223 296 78.3444 296Z" fill="#8F9093" stroke="#8F9093"/>
<path d="M97.0824 5.84213C98.5137 5.84213 99.6741 4.70154 99.6741 3.29454C99.6741 1.88754 98.5137 0.746948 97.0824 0.746948C95.6511 0.746948 94.4907 1.88754 94.4907 3.29454C94.4907 4.70154 95.6511 5.84213 97.0824 5.84213Z" fill="#8F9093" stroke="#8F9093"/>
<path d="M97.0826 26.5785C95.735 26.5785 94.6724 25.5085 94.6724 24.2092C94.6724 22.8845 95.7609 21.84 97.0826 21.84C98.4303 21.84 99.4929 22.91 99.4929 24.2092C99.5188 25.5085 98.4303 26.5785 97.0826 26.5785Z" fill="#8F9093" stroke="#8F9093"/>
<path d="M97.0824 47.2899C98.3277 47.2899 99.3372 46.2975 99.3372 45.0735C99.3372 43.8494 98.3277 42.8571 97.0824 42.8571C95.8371 42.8571 94.8276 43.8494 94.8276 45.0735C94.8276 46.2975 95.8371 47.2899 97.0824 47.2899Z" fill="#8F9093" stroke="#8F9093"/>
<path d="M97.0831 68.0259C98.2282 68.0259 99.1565 67.1134 99.1565 65.9878C99.1565 64.8622 98.2282 63.9498 97.0831 63.9498C95.938 63.9498 95.0098 64.8622 95.0098 65.9878C95.0098 67.1134 95.938 68.0259 97.0831 68.0259Z" fill="#8F9093" stroke="#8F9093"/>
<path d="M97.0833 88.7372C96.0467 88.7372 95.1914 87.8965 95.1914 86.8774C95.1914 85.8329 96.0467 85.0177 97.0833 85.0177C98.12 85.0177 98.9753 85.8584 98.9753 86.8774C99.0012 87.8965 98.1459 88.7372 97.0833 88.7372Z" fill="#8F9093" stroke="#8F9093"/>
<path d="M97.0831 109.474C96.1242 109.474 95.3467 108.709 95.3467 107.767C95.3467 106.824 96.1242 106.06 97.0831 106.06C98.042 106.06 98.8195 106.824 98.8195 107.767C98.8195 108.709 98.042 109.474 97.0831 109.474Z" fill="#8F9093" stroke="#8F9093"/>
<path d="M97.0833 130.185C97.9421 130.185 98.6383 129.5 98.6383 128.656C98.6383 127.812 97.9421 127.127 97.0833 127.127C96.2245 127.127 95.5283 127.812 95.5283 128.656C95.5283 129.5 96.2245 130.185 97.0833 130.185Z" fill="#8F9093" stroke="#8F9093"/>
<path d="M97.0835 150.921C96.332 150.921 95.71 150.31 95.71 149.571C95.71 148.832 96.332 148.221 97.0835 148.221C97.8351 148.221 98.4571 148.832 98.4571 149.571C98.483 150.31 97.861 150.921 97.0835 150.921Z" fill="#8F9093" stroke="#8F9093"/>
<path d="M97.0823 171.657C96.4085 171.657 95.8643 171.122 95.8643 170.46C95.8643 169.798 96.4085 169.263 97.0823 169.263C97.7562 169.263 98.3004 169.798 98.3004 170.46C98.3004 171.122 97.7562 171.657 97.0823 171.657Z" fill="#8F9093" stroke="#8F9093"/>
<path d="M97.0831 192.368C96.5129 192.368 96.0464 191.91 96.0464 191.349C96.0464 190.789 96.5129 190.33 97.0831 190.33C97.6532 190.33 98.1197 190.789 98.1197 191.349C98.1197 191.91 97.6791 192.368 97.0831 192.368Z" fill="#8F9093" stroke="#8F9093"/>
<path d="M97.0823 213.105C96.6158 213.105 96.2271 212.723 96.2271 212.264C96.2271 211.806 96.6158 211.424 97.0823 211.424C97.5488 211.424 97.9376 211.806 97.9376 212.264C97.9635 212.723 97.5747 213.105 97.0823 213.105Z" fill="#8F9093" stroke="#8F9093"/>
<path d="M97.083 233.842C97.4695 233.842 97.7828 233.534 97.7828 233.154C97.7828 232.774 97.4695 232.466 97.083 232.466C96.6966 232.466 96.3833 232.774 96.3833 233.154C96.3833 233.534 96.6966 233.842 97.083 233.842Z" fill="#8F9093" stroke="#8F9093"/>
<path d="M97.0819 254.552C97.368 254.552 97.5999 254.324 97.5999 254.043C97.5999 253.761 97.368 253.533 97.0819 253.533C96.7959 253.533 96.564 253.761 96.564 254.043C96.564 254.324 96.7959 254.552 97.0819 254.552Z" fill="#8F9093" stroke="#8F9093"/>
<path d="M97.0837 275.263C97.2699 275.263 97.4209 275.115 97.4209 274.932C97.4209 274.749 97.2699 274.601 97.0837 274.601C96.8975 274.601 96.7466 274.749 96.7466 274.932C96.7466 275.115 96.8975 275.263 97.0837 275.263Z" fill="#8F9093" stroke="#8F9093"/>
<path d="M97.0841 296C96.9803 296 96.9023 295.923 96.9023 295.822C96.9023 295.72 96.9803 295.643 97.0841 295.643C97.188 295.643 97.2659 295.72 97.2659 295.822C97.2659 295.923 97.188 296 97.0841 296Z" fill="#8F9093" stroke="#8F9093"/>
<path d="M115.847 5.84213C117.278 5.84213 118.438 4.70154 118.438 3.29454C118.438 1.88754 117.278 0.746948 115.847 0.746948C114.415 0.746948 113.255 1.88754 113.255 3.29454C113.255 4.70154 114.415 5.84213 115.847 5.84213Z" fill="#8F9093" stroke="#8F9093"/>
<path d="M115.846 26.5785C114.498 26.5785 113.436 25.5085 113.436 24.2092C113.436 22.8845 114.524 21.84 115.846 21.84C117.193 21.84 118.256 22.91 118.256 24.2092C118.282 25.5085 117.193 26.5785 115.846 26.5785Z" fill="#8F9093" stroke="#8F9093"/>
<path d="M115.846 47.2899C114.602 47.2899 113.591 46.2963 113.591 45.0735C113.591 43.8506 114.602 42.8571 115.846 42.8571C117.09 42.8571 118.101 43.8506 118.101 45.0735C118.101 46.2963 117.09 47.2899 115.846 47.2899Z" fill="#8F9093" stroke="#8F9093"/>
<path d="M115.847 68.0259C114.706 68.0259 113.773 67.1088 113.773 65.9878C113.773 64.8669 114.706 63.9498 115.847 63.9498C116.987 63.9498 117.92 64.8669 117.92 65.9878C117.92 67.1088 116.987 68.0259 115.847 68.0259Z" fill="#8F9093" stroke="#8F9093"/>
<path d="M115.847 88.7372C114.81 88.7372 113.955 87.8965 113.955 86.8774C113.955 85.8329 114.81 85.0177 115.847 85.0177C116.909 85.0177 117.738 85.8584 117.738 86.8774C117.764 87.8965 116.909 88.7372 115.847 88.7372Z" fill="#8F9093" stroke="#8F9093"/>
<path d="M115.847 109.474C114.888 109.474 114.11 108.709 114.11 107.767C114.11 106.824 114.888 106.06 115.847 106.06C116.806 106.06 117.583 106.824 117.583 107.767C117.583 108.709 116.806 109.474 115.847 109.474Z" fill="#8F9093" stroke="#8F9093"/>
<path d="M115.846 130.185C114.991 130.185 114.291 129.497 114.291 128.656C114.291 127.815 114.991 127.127 115.846 127.127C116.701 127.127 117.401 127.815 117.401 128.656C117.401 129.522 116.701 130.185 115.846 130.185Z" fill="#8F9093" stroke="#8F9093"/>
<path d="M115.847 150.921C115.096 150.921 114.474 150.31 114.474 149.571C114.474 148.832 115.096 148.221 115.847 148.221C116.599 148.221 117.221 148.832 117.221 149.571C117.247 150.31 116.625 150.921 115.847 150.921Z" fill="#8F9093" stroke="#8F9093"/>
<path d="M115.846 171.657C115.172 171.657 114.627 171.122 114.627 170.46C114.627 169.798 115.172 169.263 115.846 169.263C116.519 169.263 117.064 169.798 117.064 170.46C117.064 171.122 116.519 171.657 115.846 171.657Z" fill="#8F9093" stroke="#8F9093"/>
<path d="M115.847 192.368C115.277 192.368 114.81 191.91 114.81 191.349C114.81 190.789 115.277 190.33 115.847 190.33C116.417 190.33 116.883 190.789 116.883 191.349C116.883 191.91 116.417 192.368 115.847 192.368Z" fill="#8F9093" stroke="#8F9093"/>
<path d="M115.846 213.105C115.379 213.105 114.991 212.723 114.991 212.264C114.991 211.806 115.379 211.424 115.846 211.424C116.312 211.424 116.701 211.806 116.701 212.264C116.727 212.723 116.338 213.105 115.846 213.105Z" fill="#8F9093" stroke="#8F9093"/>
<path d="M115.846 233.816C115.457 233.816 115.146 233.51 115.146 233.128C115.146 232.746 115.457 232.44 115.846 232.44C116.235 232.44 116.546 232.746 116.546 233.128C116.546 233.51 116.235 233.816 115.846 233.816Z" fill="#8F9093" stroke="#8F9093"/>
<path d="M115.846 254.552C115.561 254.552 115.328 254.323 115.328 254.043C115.328 253.762 115.561 253.533 115.846 253.533C116.13 253.533 116.364 253.762 116.364 254.043C116.364 254.323 116.13 254.552 115.846 254.552Z" fill="#8F9093" stroke="#8F9093"/>
<path d="M115.846 275.288C115.665 275.288 115.509 275.136 115.509 274.957C115.509 274.779 115.665 274.626 115.846 274.626C116.028 274.626 116.184 274.779 116.184 274.957C116.184 275.136 116.054 275.288 115.846 275.288Z" fill="#8F9093" stroke="#8F9093"/>
<path d="M115.847 296C115.743 296 115.665 295.923 115.665 295.822C115.665 295.72 115.743 295.643 115.847 295.643C115.951 295.643 116.029 295.72 116.029 295.822C116.029 295.923 115.951 296 115.847 296Z" fill="#8F9093" stroke="#8F9093"/>
<path d="M134.609 5.84213C136.041 5.84213 137.201 4.70154 137.201 3.29454C137.201 1.88754 136.041 0.746948 134.609 0.746948C133.178 0.746948 132.018 1.88754 132.018 3.29454C132.018 4.70154 133.178 5.84213 134.609 5.84213Z" fill="#8F9093" stroke="#8F9093"/>
<path d="M134.609 26.5785C133.262 26.5785 132.199 25.5085 132.199 24.2092C132.199 22.8845 133.288 21.84 134.609 21.84C135.957 21.84 137.02 22.91 137.02 24.2092C137.02 25.5085 135.957 26.5785 134.609 26.5785Z" fill="#8F9093" stroke="#8F9093"/>
<path d="M134.609 47.2899C133.365 47.2899 132.354 46.2963 132.354 45.0735C132.354 43.8506 133.365 42.8571 134.609 42.8571C135.853 42.8571 136.864 43.8506 136.864 45.0735C136.864 46.2963 135.853 47.2899 134.609 47.2899Z" fill="#8F9093" stroke="#8F9093"/>
<path d="M134.61 68.0259C133.47 68.0259 132.537 67.1088 132.537 65.9878C132.537 64.8669 133.47 63.9498 134.61 63.9498C135.751 63.9498 136.684 64.8669 136.684 65.9878C136.684 67.1088 135.751 68.0259 134.61 68.0259Z" fill="#8F9093" stroke="#8F9093"/>
<path d="M134.61 88.7372C133.573 88.7372 132.718 87.8965 132.718 86.8774C132.718 85.8329 133.573 85.0177 134.61 85.0177C135.672 85.0177 136.502 85.8584 136.502 86.8774C136.502 87.8965 135.646 88.7372 134.61 88.7372Z" fill="#8F9093" stroke="#8F9093"/>
<path d="M134.61 109.474C133.651 109.474 132.874 108.709 132.874 107.767C132.874 106.824 133.651 106.06 134.61 106.06C135.569 106.06 136.346 106.824 136.346 107.767C136.346 108.709 135.569 109.474 134.61 109.474Z" fill="#8F9093" stroke="#8F9093"/>
<path d="M134.61 130.185C133.754 130.185 133.055 129.497 133.055 128.656C133.055 127.815 133.754 127.127 134.61 127.127C135.465 127.127 136.165 127.815 136.165 128.656C136.165 129.522 135.465 130.185 134.61 130.185Z" fill="#8F9093" stroke="#8F9093"/>
<path d="M134.61 150.921C133.859 150.921 133.237 150.31 133.237 149.571C133.237 148.832 133.859 148.221 134.61 148.221C135.362 148.221 135.984 148.832 135.984 149.571C135.984 150.31 135.362 150.921 134.61 150.921Z" fill="#8F9093" stroke="#8F9093"/>
<path d="M134.609 171.657C133.935 171.657 133.391 171.122 133.391 170.46C133.391 169.798 133.935 169.263 134.609 169.263C135.283 169.263 135.827 169.798 135.827 170.46C135.827 171.122 135.283 171.657 134.609 171.657Z" fill="#8F9093" stroke="#8F9093"/>
<path d="M134.609 192.368C134.039 192.368 133.573 191.91 133.573 191.349C133.573 190.789 134.039 190.33 134.609 190.33C135.18 190.33 135.646 190.789 135.646 191.349C135.646 191.91 135.18 192.368 134.609 192.368Z" fill="#8F9093" stroke="#8F9093"/>
<path d="M134.609 213.105C134.142 213.105 133.753 212.723 133.753 212.264C133.753 211.806 134.142 211.424 134.609 211.424C135.075 211.424 135.464 211.806 135.464 212.264C135.464 212.723 135.075 213.105 134.609 213.105Z" fill="#8F9093" stroke="#8F9093"/>
<path d="M134.609 233.816C134.221 233.816 133.91 233.51 133.91 233.128C133.91 232.746 134.221 232.44 134.609 232.44C134.998 232.44 135.309 232.746 135.309 233.128C135.309 233.51 134.998 233.816 134.609 233.816Z" fill="#8F9093" stroke="#8F9093"/>
<path d="M134.608 254.552C134.323 254.552 134.09 254.323 134.09 254.043C134.09 253.762 134.323 253.533 134.608 253.533C134.893 253.533 135.126 253.762 135.126 254.043C135.126 254.323 134.893 254.552 134.608 254.552Z" fill="#8F9093" stroke="#8F9093"/>
<path d="M134.61 275.288C134.429 275.288 134.273 275.136 134.273 274.957C134.273 274.779 134.429 274.626 134.61 274.626C134.792 274.626 134.947 274.779 134.947 274.957C134.947 275.136 134.792 275.288 134.61 275.288Z" fill="#8F9093" stroke="#8F9093"/>
<path d="M134.61 296C134.507 296 134.429 295.923 134.429 295.822C134.429 295.72 134.507 295.643 134.61 295.643C134.714 295.643 134.792 295.72 134.792 295.822C134.792 295.923 134.714 296 134.61 296Z" fill="#8F9093" stroke="#8F9093"/>
<path d="M153.374 5.84213C154.805 5.84213 155.966 4.70154 155.966 3.29454C155.966 1.88754 154.805 0.746948 153.374 0.746948C151.943 0.746948 150.782 1.88754 150.782 3.29454C150.782 4.70154 151.943 5.84213 153.374 5.84213Z" fill="#8F9093" stroke="#8F9093"/>
<path d="M153.374 26.5785C152.026 26.5785 150.963 25.5085 150.963 24.2092C150.963 22.8845 152.052 21.84 153.374 21.84C154.721 21.84 155.784 22.91 155.784 24.2092C155.784 25.5085 154.695 26.5785 153.374 26.5785Z" fill="#8F9093" stroke="#8F9093"/>
<path d="M153.373 47.2899C152.129 47.2899 151.119 46.2963 151.119 45.0735C151.119 43.8506 152.129 42.8571 153.373 42.8571C154.617 42.8571 155.628 43.8506 155.628 45.0735C155.628 46.2963 154.617 47.2899 153.373 47.2899Z" fill="#8F9093" stroke="#8F9093"/>
<path d="M153.374 68.0259C154.519 68.0259 155.447 67.1134 155.447 65.9878C155.447 64.8622 154.519 63.9498 153.374 63.9498C152.229 63.9498 151.301 64.8622 151.301 65.9878C151.301 67.1134 152.229 68.0259 153.374 68.0259Z" fill="#8F9093" stroke="#8F9093"/>
<path d="M153.374 88.7372C152.337 88.7372 151.482 87.8965 151.482 86.8774C151.482 85.8329 152.337 85.0177 153.374 85.0177C154.436 85.0177 155.266 85.8584 155.266 86.8774C155.266 87.8965 154.411 88.7372 153.374 88.7372Z" fill="#8F9093" stroke="#8F9093"/>
<path d="M153.374 109.474C152.415 109.474 151.638 108.709 151.638 107.767C151.638 106.824 152.415 106.06 153.374 106.06C154.333 106.06 155.111 106.824 155.111 107.767C155.085 108.709 154.333 109.474 153.374 109.474Z" fill="#8F9093" stroke="#8F9093"/>
<path d="M153.374 130.185C152.519 130.185 151.819 129.497 151.819 128.656C151.819 127.815 152.519 127.127 153.374 127.127C154.229 127.127 154.929 127.815 154.929 128.656C154.929 129.522 154.229 130.185 153.374 130.185Z" fill="#8F9093" stroke="#8F9093"/>
<path d="M153.375 150.921C152.623 150.921 152.001 150.31 152.001 149.571C152.001 148.832 152.623 148.221 153.375 148.221C154.126 148.221 154.748 148.832 154.748 149.571C154.748 150.31 154.126 150.921 153.375 150.921Z" fill="#8F9093" stroke="#8F9093"/>
<path d="M153.373 171.657C152.7 171.657 152.155 171.122 152.155 170.46C152.155 169.798 152.7 169.263 153.373 169.263C154.047 169.263 154.591 169.798 154.591 170.46C154.566 171.122 154.021 171.657 153.373 171.657Z" fill="#8F9093" stroke="#8F9093"/>
<path d="M153.374 192.368C152.804 192.368 152.337 191.91 152.337 191.349C152.337 190.789 152.804 190.33 153.374 190.33C153.944 190.33 154.411 190.789 154.411 191.349C154.411 191.91 153.944 192.368 153.374 192.368Z" fill="#8F9093" stroke="#8F9093"/>
<path d="M153.374 213.105C152.907 213.105 152.519 212.723 152.519 212.264C152.519 211.806 152.907 211.424 153.374 211.424C153.84 211.424 154.229 211.806 154.229 212.264C154.229 212.723 153.84 213.105 153.374 213.105Z" fill="#8F9093" stroke="#8F9093"/>
<path d="M153.374 233.816C152.985 233.816 152.674 233.51 152.674 233.128C152.674 232.746 152.985 232.44 153.374 232.44C153.763 232.44 154.074 232.746 154.074 233.128C154.048 233.51 153.737 233.816 153.374 233.816Z" fill="#8F9093" stroke="#8F9093"/>
<path d="M153.373 254.552C153.659 254.552 153.891 254.324 153.891 254.043C153.891 253.761 153.659 253.533 153.373 253.533C153.087 253.533 152.855 253.761 152.855 254.043C152.855 254.324 153.087 254.552 153.373 254.552Z" fill="#8F9093" stroke="#8F9093"/>
<path d="M153.375 275.288C153.193 275.288 153.038 275.136 153.038 274.957C153.038 274.779 153.193 274.626 153.375 274.626C153.556 274.626 153.712 274.779 153.712 274.957C153.712 275.136 153.556 275.288 153.375 275.288Z" fill="#8F9093" stroke="#8F9093"/>
<path d="M153.375 296C153.271 296 153.193 295.923 153.193 295.822C153.193 295.72 153.271 295.643 153.375 295.643C153.479 295.643 153.556 295.72 153.556 295.822C153.53 295.923 153.453 296 153.375 296Z" fill="#8F9093" stroke="#8F9093"/>
<path d="M172.766 5.84213C174.198 5.84213 175.358 4.70154 175.358 3.29454C175.358 1.88754 174.198 0.746948 172.766 0.746948C171.335 0.746948 170.175 1.88754 170.175 3.29454C170.175 4.70154 171.335 5.84213 172.766 5.84213Z" fill="#8F9093" stroke="#8F9093"/>
<path d="M172.766 26.5785C171.418 26.5785 170.355 25.5085 170.355 24.2092C170.355 22.8845 171.444 21.84 172.766 21.84C174.113 21.84 175.176 22.91 175.176 24.2092C175.202 25.5085 174.113 26.5785 172.766 26.5785Z" fill="#8F9093" stroke="#8F9093"/>
<path d="M172.766 47.2899C171.522 47.2899 170.511 46.2963 170.511 45.0735C170.511 43.8506 171.522 42.8571 172.766 42.8571C174.01 42.8571 175.021 43.8506 175.021 45.0735C175.021 46.2963 174.01 47.2899 172.766 47.2899Z" fill="#8F9093" stroke="#8F9093"/>
<path d="M172.767 68.0259C171.627 68.0259 170.694 67.1088 170.694 65.9878C170.694 64.8669 171.627 63.9498 172.767 63.9498C173.908 63.9498 174.841 64.8669 174.841 65.9878C174.841 67.1088 173.908 68.0259 172.767 68.0259Z" fill="#8F9093" stroke="#8F9093"/>
<path d="M172.766 88.7372C171.73 88.7372 170.875 87.8965 170.875 86.8774C170.875 85.8329 171.73 85.0177 172.766 85.0177C173.829 85.0177 174.658 85.8584 174.658 86.8774C174.684 87.8965 173.829 88.7372 172.766 88.7372Z" fill="#8F9093" stroke="#8F9093"/>
<path d="M172.767 109.474C171.808 109.474 171.031 108.709 171.031 107.767C171.031 106.824 171.808 106.06 172.767 106.06C173.726 106.06 174.504 106.824 174.504 107.767C174.504 108.709 173.726 109.474 172.767 109.474Z" fill="#8F9093" stroke="#8F9093"/>
<path d="M172.766 130.185C171.911 130.185 171.211 129.497 171.211 128.656C171.211 127.815 171.911 127.127 172.766 127.127C173.622 127.127 174.321 127.815 174.321 128.656C174.321 129.522 173.622 130.185 172.766 130.185Z" fill="#8F9093" stroke="#8F9093"/>
<path d="M172.768 150.921C172.016 150.921 171.394 150.31 171.394 149.571C171.394 148.832 172.016 148.221 172.768 148.221C173.519 148.221 174.141 148.832 174.141 149.571C174.167 150.31 173.545 150.921 172.768 150.921Z" fill="#8F9093" stroke="#8F9093"/>
<path d="M172.767 171.657C172.093 171.657 171.549 171.122 171.549 170.46C171.549 169.798 172.093 169.263 172.767 169.263C173.441 169.263 173.985 169.798 173.985 170.46C173.985 171.122 173.441 171.657 172.767 171.657Z" fill="#8F9093" stroke="#8F9093"/>
<path d="M172.767 192.368C172.197 192.368 171.73 191.91 171.73 191.349C171.73 190.789 172.197 190.33 172.767 190.33C173.337 190.33 173.804 190.789 173.804 191.349C173.804 191.91 173.337 192.368 172.767 192.368Z" fill="#8F9093" stroke="#8F9093"/>
<path d="M172.766 213.105C172.3 213.105 171.911 212.723 171.911 212.264C171.911 211.806 172.3 211.424 172.766 211.424C173.233 211.424 173.622 211.806 173.622 212.264C173.648 212.723 173.259 213.105 172.766 213.105Z" fill="#8F9093" stroke="#8F9093"/>
<path d="M172.767 233.816C172.378 233.816 172.067 233.51 172.067 233.128C172.067 232.746 172.378 232.44 172.767 232.44C173.156 232.44 173.467 232.746 173.467 233.128C173.467 233.51 173.156 233.816 172.767 233.816Z" fill="#8F9093" stroke="#8F9093"/>
<path d="M172.766 254.552C172.481 254.552 172.248 254.323 172.248 254.043C172.248 253.762 172.481 253.533 172.766 253.533C173.051 253.533 173.284 253.762 173.284 254.043C173.284 254.323 173.051 254.552 172.766 254.552Z" fill="#8F9093" stroke="#8F9093"/>
<path d="M172.767 275.288C172.586 275.288 172.43 275.136 172.43 274.957C172.43 274.779 172.586 274.626 172.767 274.626C172.949 274.626 173.104 274.779 173.104 274.957C173.104 275.136 172.975 275.288 172.767 275.288Z" fill="#8F9093" stroke="#8F9093"/>
<path d="M172.767 296C172.663 296 172.585 295.923 172.585 295.822C172.585 295.72 172.663 295.643 172.767 295.643C172.871 295.643 172.949 295.72 172.949 295.822C172.949 295.923 172.871 296 172.767 296Z" fill="#8F9093" stroke="#8F9093"/>
<path d="M191.53 5.84213C192.961 5.84213 194.122 4.70154 194.122 3.29454C194.122 1.88754 192.961 0.746948 191.53 0.746948C190.099 0.746948 188.938 1.88754 188.938 3.29454C188.938 4.70154 190.099 5.84213 191.53 5.84213Z" fill="#8F9093" stroke="#8F9093"/>
<path d="M191.53 26.5785C190.182 26.5785 189.12 25.5085 189.12 24.2092C189.12 22.8845 190.208 21.84 191.53 21.84C192.878 21.84 193.94 22.91 193.94 24.2092C193.94 25.5085 192.878 26.5785 191.53 26.5785Z" fill="#8F9093" stroke="#8F9093"/>
<path d="M191.53 47.2899C190.286 47.2899 189.275 46.2963 189.275 45.0735C189.275 43.8506 190.286 42.8571 191.53 42.8571C192.774 42.8571 193.785 43.8506 193.785 45.0735C193.785 46.2963 192.774 47.2899 191.53 47.2899Z" fill="#8F9093" stroke="#8F9093"/>
<path d="M191.531 68.0259C190.391 68.0259 189.458 67.1088 189.458 65.9878C189.458 64.8669 190.391 63.9498 191.531 63.9498C192.671 63.9498 193.604 64.8669 193.604 65.9878C193.604 67.1088 192.671 68.0259 191.531 68.0259Z" fill="#8F9093" stroke="#8F9093"/>
<path d="M191.531 88.7372C190.494 88.7372 189.639 87.8965 189.639 86.8774C189.639 85.8329 190.494 85.0177 191.531 85.0177C192.593 85.0177 193.423 85.8584 193.423 86.8774C193.423 87.8965 192.567 88.7372 191.531 88.7372Z" fill="#8F9093" stroke="#8F9093"/>
<path d="M191.531 109.474C190.572 109.474 189.795 108.709 189.795 107.767C189.795 106.824 190.572 106.06 191.531 106.06C192.49 106.06 193.268 106.824 193.268 107.767C193.268 108.709 192.49 109.474 191.531 109.474Z" fill="#8F9093" stroke="#8F9093"/>
<path d="M191.531 130.185C190.675 130.185 189.976 129.497 189.976 128.656C189.976 127.815 190.675 127.127 191.531 127.127C192.386 127.127 193.086 127.815 193.086 128.656C193.086 129.522 192.386 130.185 191.531 130.185Z" fill="#8F9093" stroke="#8F9093"/>
<path d="M191.532 150.921C190.78 150.921 190.158 150.31 190.158 149.571C190.158 148.832 190.78 148.221 191.532 148.221C192.283 148.221 192.905 148.832 192.905 149.571C192.905 150.31 192.283 150.921 191.532 150.921Z" fill="#8F9093" stroke="#8F9093"/>
<path d="M191.531 171.657C190.857 171.657 190.312 171.122 190.312 170.46C190.312 169.798 190.857 169.263 191.531 169.263C192.204 169.263 192.749 169.798 192.749 170.46C192.749 171.122 192.204 171.657 191.531 171.657Z" fill="#8F9093" stroke="#8F9093"/>
<path d="M191.531 192.368C190.961 192.368 190.495 191.91 190.495 191.349C190.495 190.789 190.961 190.33 191.531 190.33C192.101 190.33 192.568 190.789 192.568 191.349C192.568 191.91 192.101 192.368 191.531 192.368Z" fill="#8F9093" stroke="#8F9093"/>
<path d="M191.531 213.105C191.064 213.105 190.675 212.723 190.675 212.264C190.675 211.806 191.064 211.424 191.531 211.424C191.997 211.424 192.386 211.806 192.386 212.264C192.386 212.723 191.997 213.105 191.531 213.105Z" fill="#8F9093" stroke="#8F9093"/>
<path d="M191.531 233.816C191.142 233.816 190.831 233.51 190.831 233.128C190.831 232.746 191.142 232.44 191.531 232.44C191.92 232.44 192.231 232.746 192.231 233.128C192.231 233.51 191.92 233.816 191.531 233.816Z" fill="#8F9093" stroke="#8F9093"/>
<path d="M191.53 254.552C191.245 254.552 191.012 254.323 191.012 254.043C191.012 253.762 191.245 253.533 191.53 253.533C191.815 253.533 192.048 253.762 192.048 254.043C192.048 254.323 191.815 254.552 191.53 254.552Z" fill="#8F9093" stroke="#8F9093"/>
<path d="M191.532 275.288C191.35 275.288 191.194 275.136 191.194 274.957C191.194 274.779 191.35 274.626 191.532 274.626C191.713 274.626 191.869 274.779 191.869 274.957C191.869 275.136 191.713 275.288 191.532 275.288Z" fill="#8F9093" stroke="#8F9093"/>
<path d="M191.531 296C191.428 296 191.35 295.923 191.35 295.822C191.35 295.72 191.428 295.643 191.531 295.643C191.635 295.643 191.713 295.72 191.713 295.822C191.713 295.923 191.635 296 191.531 296Z" fill="#8F9093" stroke="#8F9093"/>
<path d="M210.295 5.84213C211.726 5.84213 212.886 4.70154 212.886 3.29454C212.886 1.88754 211.726 0.746948 210.295 0.746948C208.863 0.746948 207.703 1.88754 207.703 3.29454C207.703 4.70154 208.863 5.84213 210.295 5.84213Z" fill="#8F9093" stroke="#8F9093"/>
<path d="M210.294 26.5785C208.946 26.5785 207.884 25.5085 207.884 24.2092C207.884 22.8845 208.972 21.84 210.294 21.84C211.642 21.84 212.704 22.91 212.704 24.2092C212.704 25.5085 211.616 26.5785 210.294 26.5785Z" fill="#8F9093" stroke="#8F9093"/>
<path d="M210.294 47.2899C209.05 47.2899 208.039 46.2963 208.039 45.0735C208.039 43.8506 209.05 42.8571 210.294 42.8571C211.538 42.8571 212.549 43.8506 212.549 45.0735C212.549 46.2963 211.538 47.2899 210.294 47.2899Z" fill="#8F9093" stroke="#8F9093"/>
<path d="M210.295 68.0259C211.44 68.0259 212.368 67.1134 212.368 65.9878C212.368 64.8622 211.44 63.9498 210.295 63.9498C209.149 63.9498 208.221 64.8622 208.221 65.9878C208.221 67.1134 209.149 68.0259 210.295 68.0259Z" fill="#8F9093" stroke="#8F9093"/>
<path d="M210.294 88.7372C209.258 88.7372 208.402 87.8965 208.402 86.8774C208.402 85.8329 209.258 85.0177 210.294 85.0177C211.357 85.0177 212.186 85.8584 212.186 86.8774C212.186 87.8965 211.331 88.7372 210.294 88.7372Z" fill="#8F9093" stroke="#8F9093"/>
<path d="M210.295 109.474C209.336 109.474 208.558 108.709 208.558 107.767C208.558 106.824 209.336 106.06 210.295 106.06C211.253 106.06 212.031 106.824 212.031 107.767C212.005 108.709 211.253 109.474 210.295 109.474Z" fill="#8F9093" stroke="#8F9093"/>
<path d="M210.294 130.185C209.439 130.185 208.739 129.497 208.739 128.656C208.739 127.815 209.439 127.127 210.294 127.127C211.149 127.127 211.849 127.815 211.849 128.656C211.849 129.522 211.149 130.185 210.294 130.185Z" fill="#8F9093" stroke="#8F9093"/>
<path d="M210.295 150.921C209.544 150.921 208.922 150.31 208.922 149.571C208.922 148.832 209.544 148.221 210.295 148.221C211.047 148.221 211.669 148.832 211.669 149.571C211.669 150.31 211.047 150.921 210.295 150.921Z" fill="#8F9093" stroke="#8F9093"/>
<path d="M210.294 171.657C209.62 171.657 209.076 171.122 209.076 170.46C209.076 169.798 209.62 169.263 210.294 169.263C210.968 169.263 211.512 169.798 211.512 170.46C211.486 171.122 210.942 171.657 210.294 171.657Z" fill="#8F9093" stroke="#8F9093"/>
<path d="M210.295 192.368C209.725 192.368 209.258 191.91 209.258 191.349C209.258 190.789 209.725 190.33 210.295 190.33C210.865 190.33 211.332 190.789 211.332 191.349C211.332 191.91 210.865 192.368 210.295 192.368Z" fill="#8F9093" stroke="#8F9093"/>
<path d="M210.294 213.105C209.827 213.105 209.438 212.723 209.438 212.264C209.438 211.806 209.827 211.424 210.294 211.424C210.76 211.424 211.149 211.806 211.149 212.264C211.149 212.723 210.76 213.105 210.294 213.105Z" fill="#8F9093" stroke="#8F9093"/>
<path d="M210.294 233.816C209.906 233.816 209.595 233.51 209.595 233.128C209.595 232.746 209.906 232.44 210.294 232.44C210.683 232.44 210.994 232.746 210.994 233.128C210.968 233.51 210.657 233.816 210.294 233.816Z" fill="#8F9093" stroke="#8F9093"/>
<path d="M210.293 254.552C210.579 254.552 210.811 254.324 210.811 254.043C210.811 253.761 210.579 253.533 210.293 253.533C210.007 253.533 209.775 253.761 209.775 254.043C209.775 254.324 210.007 254.552 210.293 254.552Z" fill="#8F9093" stroke="#8F9093"/>
<path d="M210.295 275.288C210.113 275.288 209.958 275.136 209.958 274.957C209.958 274.779 210.113 274.626 210.295 274.626C210.476 274.626 210.632 274.779 210.632 274.957C210.632 275.136 210.476 275.288 210.295 275.288Z" fill="#8F9093" stroke="#8F9093"/>
<path d="M210.295 296C210.191 296 210.113 295.923 210.113 295.822C210.113 295.72 210.191 295.643 210.295 295.643C210.398 295.643 210.476 295.72 210.476 295.822C210.45 295.923 210.372 296 210.295 296Z" fill="#8F9093" stroke="#8F9093"/>
</svg>
