<svg width="166" height="153" viewBox="0 0 166 153" fill="none" xmlns="http://www.w3.org/2000/svg">
<path d="M153.39 145.803V141.441H151.51V145.803H146.568V147.801H151.51V152.162H153.39V147.801H157.955V145.803H153.39Z" fill="#E5E5E5"/>
<path d="M118.39 145.803V141.441H116.51V145.803H111.568V147.801H116.51V152.162H118.39V147.801H122.955V145.803H118.39Z" fill="#E5E5E5"/>
<path d="M83.3896 141.441H81.5205V152.162H83.3896V141.441ZM87.9551 145.803H76.5684V147.79H87.9551V145.803Z" fill="#E5E5E5"/>
<path d="M48.3896 141.441H46.5205V152.162H48.3896V141.441ZM52.9551 145.803H41.5684V147.79H52.9551V145.803Z" fill="#FAD064"/>
<path d="M13.3896 145.803V141.441H11.5098V145.803H6.56836V147.801H11.5098V152.162H13.3896V147.801H17.9551V145.803H13.3896Z" fill="#E5E5E5"/>
<path d="M153.39 110.803V106.441H151.51V110.803H146.568V112.801H151.51V117.162H153.39V112.801H157.955V110.803H153.39Z" fill="#E5E5E5"/>
<path d="M118.39 106.441H116.521V117.162H118.39V106.441ZM122.955 110.803H111.568V112.79H122.955V110.803Z" fill="#7764FA"/>
<path d="M83.3896 110.803V106.441H81.5098V110.803H76.5684V112.801H81.5098V117.162H83.3896V112.801H87.9551V110.803H83.3896Z" fill="#E5E5E5"/>
<path d="M48.3896 110.803V106.441H46.5098V110.803H41.5684V112.801H46.5098V117.162H48.3896V112.801H52.9551V110.803H48.3896Z" fill="#E5E5E5"/>
<path d="M13.3896 110.803V106.441H11.5098V110.803H6.56836V112.801H11.5098V117.162H13.3896V112.801H17.9551V110.803H13.3896Z" fill="#E5E5E5"/>
<path d="M153.39 75.8027V71.4413H151.51V75.8027H146.568V77.8007H151.51V82.162H153.39V77.8007H157.955V75.8027H153.39Z" fill="#E5E5E5"/>
<path d="M118.39 75.8027V71.4413H116.51V75.8027H111.568V77.8007H116.51V82.162H118.39V77.8007H122.955V75.8027H118.39Z" fill="#E5E5E5"/>
<path d="M83.3896 75.8027V71.4413H81.5098V75.8027H76.5684V77.8007H81.5098V82.162H83.3896V77.8007H87.9551V75.8027H83.3896Z" fill="#E5E5E5"/>
<path d="M83.3896 40.8027V36.4413H81.5098V40.8027H76.5684V42.8007H81.5098V47.162H83.3896V42.8007H87.9551V40.8027H83.3896Z" fill="#E5E5E5"/>
<path d="M48.3896 40.8027V36.4413H46.5098V40.8027H41.5684V42.8007H46.5098V47.162H48.3896V42.8007H52.9551V40.8027H48.3896Z" fill="#E5E5E5"/>
<path d="M13.3896 40.8027V36.4413H11.5098V40.8027H6.56836V42.8007H11.5098V47.162H13.3896V42.8007H17.9551V40.8027H13.3896Z" fill="#E5E5E5"/>
<path d="M48.3896 5.80267V1.44135H46.5098V5.80267H41.5684V7.80072H46.5098V12.162H48.3896V7.80072H52.9551V5.80267H48.3896Z" fill="#E5E5E5"/>
<path d="M13.3896 5.80267V1.44135H11.5098V5.80267H6.56836V7.80072H11.5098V12.162H13.3896V7.80072H17.9551V5.80267H13.3896Z" fill="#E5E5E5"/>
<path d="M48.3896 75.8027V71.4413H46.5098V75.8027H41.5684V77.8007H46.5098V82.162H48.3896V77.8007H52.9551V75.8027H48.3896Z" fill="#E5E5E5"/>
<path d="M13.3896 75.8027V71.4413H11.5098V75.8027H6.56836V77.8007H11.5098V82.162H13.3896V77.8007H17.9551V75.8027H13.3896Z" fill="#E5E5E5"/>
</svg>
