<svg width="18" height="15" viewBox="0 0 18 15" fill="none" xmlns="http://www.w3.org/2000/svg">
<g clip-path="url(#clip0_162_5)">
<path d="M17.5919 1.7312C17.3092 1.85894 17.0185 1.96665 16.7214 2.05396C17.073 1.64925 17.3412 1.17262 17.5051 0.651614C17.5416 0.53496 17.5036 0.406856 17.4094 0.330638C17.3152 0.254061 17.1844 0.245116 17.0804 0.307736C16.4493 0.688471 15.769 0.962213 15.055 1.12216C14.3361 0.406856 13.3598 0 12.3504 0C10.2196 0 8.48607 1.76447 8.48607 3.93294C8.48607 4.10363 8.49661 4.2736 8.51771 4.44107C5.87361 4.2049 3.41583 2.88199 1.72763 0.774708C1.66751 0.699563 1.5747 0.659128 1.47978 0.667001C1.38486 0.674515 1.29943 0.728906 1.25161 0.812639C0.909192 1.41058 0.728137 2.0944 0.728137 2.79038C0.728137 3.73792 1.06036 4.63716 1.64782 5.33994C1.46923 5.27696 1.29591 5.19824 1.13068 5.10485C1.04208 5.05439 0.93345 5.05546 0.845208 5.10663C0.756965 5.15816 0.70177 5.25263 0.699309 5.3564C0.698958 5.37394 0.698958 5.39111 0.698958 5.409C0.698958 6.82352 1.44708 8.09704 2.59072 8.79124C2.49263 8.78122 2.39419 8.76691 2.29681 8.74794C2.19626 8.72826 2.0929 8.7644 2.02505 8.84241C1.9572 8.92042 1.9347 9.0292 1.96599 9.12832C2.38927 10.4734 3.47911 11.4628 4.79642 11.7645C3.70376 12.4612 2.45396 12.8262 1.14228 12.8262C0.868411 12.8262 0.593137 12.8097 0.32384 12.7775C0.189895 12.7614 0.0619264 12.8419 0.0165748 12.9714C-0.0291283 13.101 0.0193873 13.2455 0.133294 13.32C1.81868 14.42 3.76704 15.0011 5.76814 15.0011C9.70212 15.0011 12.1634 13.1128 13.5352 11.5287C15.2459 9.55342 16.2268 6.9391 16.2268 4.3559C16.2268 4.24784 16.225 4.13905 16.2218 4.03027C16.8968 3.51285 17.4776 2.88628 17.9505 2.16668C18.0222 2.05718 18.0145 1.91298 17.9311 1.81207C17.8485 1.71044 17.71 1.67788 17.5919 1.7312Z" fill="#75A4FF"/>
</g>
<defs>
<clipPath id="clip0_162_5">
<rect width="18" height="15" fill="white"/>
</clipPath>
</defs>
</svg>
